<?xml version="1.0" encoding="utf-8"?>
<!-- Generator: Adobe Illustrator 24.1.1, SVG Export Plug-In . SVG Version: 6.00 Build 0)  -->
<svg version="1.1" xmlns="http://www.w3.org/2000/svg" xmlns:xlink="http://www.w3.org/1999/xlink" x="0px" y="0px"
	 viewBox="0 0 142.6 33.7" style="enable-background:new 0 0 142.6 33.7;" xml:space="preserve">
<style type="text/css">
	.st0{fill:#8EC044;}
	.st1{fill:#003433;}
	.st2{fill:none;stroke:url(#SVGID_2_);stroke-miterlimit:10;}
	.st3{fill:none;stroke:url(#SVGID_4_);stroke-miterlimit:10;}
	.st4{fill:#FFFFFF;}
	.st5{fill:url(#SVGID_5_);}
	.st6{fill:#013333;}
	.st7{fill:url(#SVGID_6_);}
	.st8{fill:url(#SVGID_7_);}
	.st9{fill:url(#SVGID_8_);}
	.st10{fill:none;stroke:#CCCCCC;stroke-width:21;stroke-miterlimit:10;}
	.st11{fill:none;stroke:#B2B2B2;stroke-width:8;stroke-miterlimit:10;}
	.st12{fill:none;stroke:#CCCCCC;stroke-width:12;stroke-miterlimit:10;}
	.st13{fill:none;stroke:#CCCCCC;stroke-width:55;stroke-miterlimit:10;}
	.st14{fill:#CCCCCC;}
	.st15{fill:#E6E6E6;}
	.st16{fill:#B3B3B3;}
	.st17{fill:#F2F2F2;}
	.st18{fill:none;stroke:#CCCCCC;stroke-width:13.8574;stroke-miterlimit:10;}
	.st19{fill-rule:evenodd;clip-rule:evenodd;fill:#808080;}
	.st20{fill-rule:evenodd;clip-rule:evenodd;fill:#FFFFFF;}
	.st21{fill:none;stroke:#CCCCCC;stroke-width:28;stroke-miterlimit:10;}
	.st22{fill:url(#SVGID_9_);}
	.st23{fill:none;stroke:#E6E6E6;stroke-miterlimit:10;}
	.st24{fill:url(#SVGID_10_);}
	.st25{fill:url(#SVGID_11_);}
	.st26{fill:#EDEDED;}
	.st27{fill:#F7EECF;}
	.st28{fill:none;stroke:#8EC044;stroke-width:8;stroke-miterlimit:10;}
	.st29{fill:none;stroke:#FFFFFF;stroke-width:8;stroke-miterlimit:10;}
	.st30{clip-path:url(#SVGID_35_);fill:#F7EECF;}
	.st31{clip-path:url(#SVGID_35_);}
	.st32{fill-rule:evenodd;clip-rule:evenodd;fill:#8EC044;}
	.st33{fill:url(#SVGID_38_);}
	.st34{fill:url(#SVGID_39_);}
	.st35{opacity:0.8;fill:#FFFFFF;}
	.st36{fill:none;stroke:#FFFFFF;stroke-width:0.4139;stroke-miterlimit:10;}
	.st37{opacity:0.87;fill:#FFFFFF;}
	.st38{fill-rule:evenodd;clip-rule:evenodd;fill:#1D1D1B;}
	.st39{fill:#1D1D1B;}
	.st40{opacity:0.8;fill:#1D1D1B;}
	.st41{opacity:0.87;fill:#1D1D1B;}
</style>
<g id="Camada_2">
</g>
<g id="Camada_1">
</g>
<g id="Camada_3">
	<g>
		<g>
			<path id="XMLID_36_" class="st32" d="M135.2,33.7H6.4c-3.5,0-6.4-2.9-6.4-6.4L0,6.4C0,2.9,2.9,0,6.4,0l128.8,0
				c3.5,0,6.4,2.9,6.4,6.4v20.9C141.6,30.8,138.7,33.7,135.2,33.7z"/>
			<g id="XMLID_28_">
				<path id="XMLID_30_" class="st20" d="M12.9,6.1h9.9c3.2,0,5.8,2.6,5.8,5.8v9.8c0,3.2-2.6,5.8-5.8,5.8h-9.9
					c-3.2,0-5.8-2.6-5.8-5.8v-9.8C7.1,8.7,9.7,6.1,12.9,6.1L12.9,6.1z M23.6,9.9L23.6,9.9c0.7,0,1.2,0.6,1.2,1.2l0,0
					c0,0.7-0.6,1.2-1.2,1.2l0,0c-0.7,0-1.2-0.6-1.2-1.2l0,0C22.4,10.4,22.9,9.9,23.6,9.9L23.6,9.9z M17.8,11L17.8,11
					c3.2,0,5.9,2.7,5.9,5.8l0,0c0,3.2-2.7,5.8-5.8,5.8h-0.1c-3.2,0-5.8-2.6-5.8-5.8l0,0C12,13.7,14.6,11,17.8,11L17.8,11z M17.8,13
					L17.8,13c2.2,0,3.9,1.7,3.9,3.8l0,0c0,2.2-1.7,3.9-3.8,3.9h-0.1c-2.1,0-3.8-1.7-3.8-3.9l0,0C14,14.7,15.7,13,17.8,13L17.8,13z
					 M12.9,8h9.8c2.2,0,4,1.8,4,4v9.7c0,2.2-1.8,4-4,4h-9.8c-2.2,0-4-1.8-4-4V12C9,9.8,10.7,8,12.9,8L12.9,8z"/>
			</g>
		</g>
		<g>
			<path class="st4" d="M40.4,12.9h2.3v9.8h-2.3V12.9z"/>
			<path class="st4" d="M54,12.9v9.8h-1.9l-4.9-6v6H45v-9.8h1.9l4.9,6v-6H54z"/>
			<path class="st4" d="M57.3,22.5c-0.7-0.2-1.3-0.5-1.7-0.8l0.8-1.7c0.4,0.3,0.9,0.6,1.5,0.7c0.6,0.2,1.2,0.3,1.7,0.3
				c0.6,0,1.1-0.1,1.4-0.3c0.3-0.2,0.5-0.4,0.5-0.8c0-0.2-0.1-0.4-0.3-0.6c-0.2-0.2-0.4-0.3-0.7-0.4c-0.3-0.1-0.7-0.2-1.2-0.3
				c-0.7-0.2-1.4-0.4-1.8-0.5c-0.5-0.2-0.9-0.5-1.2-0.9c-0.3-0.4-0.5-0.9-0.5-1.6c0-0.6,0.2-1.1,0.5-1.5c0.3-0.5,0.8-0.8,1.4-1.1
				c0.6-0.3,1.4-0.4,2.3-0.4c0.6,0,1.2,0.1,1.8,0.2c0.6,0.1,1.1,0.4,1.6,0.6l-0.7,1.7c-0.9-0.5-1.8-0.8-2.7-0.8
				c-0.6,0-1.1,0.1-1.4,0.3S58,15.3,58,15.7s0.2,0.6,0.5,0.7c0.3,0.2,0.9,0.3,1.6,0.5c0.7,0.2,1.4,0.4,1.8,0.5
				c0.5,0.2,0.9,0.5,1.2,0.8c0.3,0.4,0.5,0.9,0.5,1.6c0,0.6-0.2,1.1-0.5,1.5c-0.3,0.5-0.8,0.8-1.4,1.1s-1.4,0.4-2.3,0.4
				C58.8,22.9,58,22.8,57.3,22.5z"/>
			<path class="st4" d="M67.2,14.7H64v-1.8h8.5v1.8h-3.1v8h-2.3V14.7z"/>
			<path class="st4" d="M79.8,20.6h-4.5l-0.9,2.1H72l4.4-9.8h2.2l4.4,9.8h-2.4L79.8,20.6z M79,18.9l-1.6-3.8l-1.6,3.8H79z"/>
			<path class="st4" d="M90.5,17.6h2.1v4c-0.5,0.4-1.1,0.7-1.8,0.9c-0.7,0.2-1.4,0.3-2.1,0.3c-1,0-1.9-0.2-2.7-0.7
				c-0.8-0.4-1.4-1-1.9-1.8c-0.5-0.8-0.7-1.6-0.7-2.6c0-1,0.2-1.8,0.7-2.6c0.5-0.8,1.1-1.4,1.9-1.8c0.8-0.4,1.7-0.7,2.8-0.7
				c0.9,0,1.6,0.1,2.3,0.4c0.7,0.3,1.3,0.7,1.8,1.3l-1.5,1.3c-0.7-0.7-1.5-1.1-2.5-1.1c-0.6,0-1.2,0.1-1.7,0.4
				c-0.5,0.3-0.9,0.6-1.1,1.1c-0.3,0.5-0.4,1-0.4,1.6c0,0.6,0.1,1.1,0.4,1.6c0.3,0.5,0.6,0.8,1.1,1.1s1,0.4,1.6,0.4
				c0.7,0,1.2-0.1,1.8-0.4V17.6z"/>
			<path class="st4" d="M100.9,22.7L99,20h-0.1h-2v2.7h-2.3v-9.8h4.2c0.9,0,1.6,0.1,2.3,0.4c0.6,0.3,1.1,0.7,1.5,1.2
				c0.3,0.5,0.5,1.2,0.5,1.9c0,0.7-0.2,1.4-0.5,1.9c-0.3,0.5-0.8,0.9-1.5,1.2l2.2,3.2H100.9z M100.3,15.2c-0.4-0.3-0.9-0.4-1.6-0.4
				h-1.8v3.4h1.8c0.7,0,1.2-0.1,1.6-0.4c0.4-0.3,0.5-0.7,0.5-1.3C100.9,15.9,100.7,15.5,100.3,15.2z"/>
			<path class="st4" d="M111.4,20.6h-4.5l-0.9,2.1h-2.3l4.4-9.8h2.2l4.4,9.8h-2.4L111.4,20.6z M110.7,18.9l-1.6-3.8l-1.6,3.8H110.7z
				"/>
			<path class="st4" d="M124.6,22.7l0-5.9l-2.9,4.8h-1l-2.9-4.7v5.8h-2.1v-9.8h1.9l3.7,6.1l3.6-6.1h1.9l0,9.8H124.6z"/>
		</g>
	</g>
</g>
</svg>
