<?xml version="1.0" encoding="utf-8"?>
<!-- Generator: Adobe Illustrator 24.1.1, SVG Export Plug-In . SVG Version: 6.00 Build 0)  -->
<svg version="1.1" xmlns="http://www.w3.org/2000/svg" xmlns:xlink="http://www.w3.org/1999/xlink" x="0px" y="0px"
	 viewBox="0 0 141.6 33.7" style="enable-background:new 0 0 141.6 33.7;" xml:space="preserve">
<style type="text/css">
	.st0{fill:#8EC044;}
	.st1{fill:#003433;}
	.st2{fill:none;stroke:url(#SVGID_2_);stroke-miterlimit:10;}
	.st3{fill:none;stroke:url(#SVGID_4_);stroke-miterlimit:10;}
	.st4{fill:#FFFFFF;}
	.st5{fill:url(#SVGID_5_);}
	.st6{fill:#013333;}
	.st7{fill:url(#SVGID_6_);}
	.st8{fill:url(#SVGID_7_);}
	.st9{fill:url(#SVGID_8_);}
	.st10{fill:none;stroke:#CCCCCC;stroke-width:21;stroke-miterlimit:10;}
	.st11{fill:none;stroke:#B2B2B2;stroke-width:8;stroke-miterlimit:10;}
	.st12{fill:none;stroke:#CCCCCC;stroke-width:12;stroke-miterlimit:10;}
	.st13{fill:none;stroke:#CCCCCC;stroke-width:55;stroke-miterlimit:10;}
	.st14{fill:#CCCCCC;}
	.st15{fill:#E6E6E6;}
	.st16{fill:#B3B3B3;}
	.st17{fill:#F2F2F2;}
	.st18{fill:none;stroke:#CCCCCC;stroke-width:13.8574;stroke-miterlimit:10;}
	.st19{fill-rule:evenodd;clip-rule:evenodd;fill:#808080;}
	.st20{fill-rule:evenodd;clip-rule:evenodd;fill:#FFFFFF;}
	.st21{fill:none;stroke:#CCCCCC;stroke-width:28;stroke-miterlimit:10;}
	.st22{fill:url(#SVGID_9_);}
	.st23{fill:none;stroke:#E6E6E6;stroke-miterlimit:10;}
	.st24{fill:url(#SVGID_10_);}
	.st25{fill:url(#SVGID_11_);}
	.st26{fill:#EDEDED;}
	.st27{fill:#F7EECF;}
	.st28{fill:none;stroke:#8EC044;stroke-width:8;stroke-miterlimit:10;}
	.st29{fill:none;stroke:#FFFFFF;stroke-width:8;stroke-miterlimit:10;}
	.st30{clip-path:url(#SVGID_35_);fill:#F7EECF;}
	.st31{clip-path:url(#SVGID_35_);}
	.st32{fill-rule:evenodd;clip-rule:evenodd;fill:#8EC044;}
	.st33{fill:url(#SVGID_38_);}
	.st34{fill:url(#SVGID_39_);}
	.st35{opacity:0.8;fill:#FFFFFF;}
	.st36{fill:none;stroke:#FFFFFF;stroke-width:0.4139;stroke-miterlimit:10;}
	.st37{opacity:0.87;fill:#FFFFFF;}
	.st38{fill-rule:evenodd;clip-rule:evenodd;fill:#1D1D1B;}
	.st39{fill:#1D1D1B;}
	.st40{opacity:0.8;fill:#1D1D1B;}
	.st41{opacity:0.87;fill:#1D1D1B;}
</style>
<g id="Camada_2">
</g>
<g id="Camada_1">
</g>
<g id="Camada_3">
	<g>
		<g>
			<path id="XMLID_39_" class="st32" d="M135.2,33.7H6.4c-3.5,0-6.4-2.9-6.4-6.4L0,6.4C0,2.9,2.9,0,6.4,0l128.8,0
				c3.5,0,6.4,2.9,6.4,6.4v20.9C141.6,30.8,138.7,33.7,135.2,33.7z"/>
			<g id="XMLID_37_">
				<path id="XMLID_38_" class="st20" d="M10.9,27.6h4.2v-9.7h3.1l0.6-3.9h-3.7v-3c0-1.1,1.1-1.7,2.1-1.7H19V6l-3.3-0.1
					c-3.1-0.2-4.8,2.2-4.8,5.2v2.9H7.4v3.9h3.5V27.6z"/>
			</g>
		</g>
		<g>
			<path class="st4" d="M40.9,14.7v2.6h4.5v1.8h-4.5v3.6h-2.3v-9.8h7.4v1.8H40.9z"/>
			<path class="st4" d="M53.7,20.6h-4.5l-0.9,2.1h-2.3l4.4-9.8h2.2l4.4,9.8h-2.4L53.7,20.6z M52.9,18.9l-1.6-3.8l-1.6,3.8H52.9z"/>
			<path class="st4" d="M59.8,22.2c-0.8-0.4-1.4-1-1.9-1.8c-0.5-0.8-0.7-1.6-0.7-2.6c0-1,0.2-1.8,0.7-2.6c0.5-0.8,1.1-1.4,1.9-1.8
				c0.8-0.4,1.7-0.7,2.7-0.7c0.8,0,1.6,0.1,2.3,0.4c0.7,0.3,1.3,0.7,1.7,1.3l-1.5,1.3c-0.7-0.8-1.5-1.1-2.5-1.1
				c-0.6,0-1.1,0.1-1.6,0.4c-0.5,0.3-0.8,0.6-1.1,1.1c-0.3,0.5-0.4,1-0.4,1.6c0,0.6,0.1,1.1,0.4,1.6c0.3,0.5,0.6,0.8,1.1,1.1
				c0.5,0.3,1,0.4,1.6,0.4c1,0,1.8-0.4,2.5-1.2l1.5,1.3c-0.5,0.6-1,1-1.7,1.3c-0.7,0.3-1.5,0.4-2.3,0.4
				C61.5,22.9,60.6,22.6,59.8,22.2z"/>
			<path class="st4" d="M75.6,20.9v1.8H68v-9.8h7.4v1.8h-5.2v2.1h4.5v1.8h-4.5v2.3H75.6z"/>
			<path class="st4" d="M86,18.5c0.3,0.4,0.5,0.9,0.5,1.5c0,0.9-0.3,1.5-1,2c-0.7,0.5-1.6,0.7-2.9,0.7h-5.1v-9.8h4.8
				c1.2,0,2.1,0.2,2.8,0.7c0.6,0.5,1,1.1,1,1.9c0,0.5-0.1,0.9-0.3,1.3c-0.2,0.4-0.5,0.7-1,0.9C85.2,17.8,85.6,18.1,86,18.5z
				 M79.7,14.6v2.3H82c0.6,0,1-0.1,1.3-0.3c0.3-0.2,0.4-0.5,0.4-0.9c0-0.4-0.1-0.7-0.4-0.9c-0.3-0.2-0.7-0.3-1.3-0.3H79.7z
				 M83.7,20.7c0.3-0.2,0.5-0.5,0.5-0.9c0-0.8-0.6-1.2-1.8-1.2h-2.6V21h2.6C82.9,21,83.4,20.9,83.7,20.7z"/>
			<path class="st4" d="M90.1,22.2c-0.8-0.4-1.5-1-1.9-1.8c-0.5-0.8-0.7-1.6-0.7-2.6c0-1,0.2-1.8,0.7-2.6c0.5-0.8,1.1-1.4,1.9-1.8
				c0.8-0.4,1.7-0.7,2.8-0.7c1,0,1.9,0.2,2.7,0.7c0.8,0.4,1.5,1,1.9,1.8c0.5,0.8,0.7,1.6,0.7,2.6c0,1-0.2,1.8-0.7,2.6
				c-0.5,0.8-1.1,1.4-1.9,1.8c-0.8,0.4-1.7,0.7-2.7,0.7C91.9,22.9,91,22.6,90.1,22.2z M94.5,20.5c0.5-0.3,0.8-0.6,1.1-1.1
				c0.3-0.5,0.4-1,0.4-1.6c0-0.6-0.1-1.1-0.4-1.6c-0.3-0.5-0.6-0.8-1.1-1.1c-0.5-0.3-1-0.4-1.6-0.4c-0.6,0-1.1,0.1-1.6,0.4
				c-0.5,0.3-0.8,0.6-1.1,1.1c-0.3,0.5-0.4,1-0.4,1.6c0,0.6,0.1,1.1,0.4,1.6c0.3,0.5,0.6,0.8,1.1,1.1s1,0.4,1.6,0.4
				C93.5,20.9,94,20.8,94.5,20.5z"/>
			<path class="st4" d="M102,22.2c-0.8-0.4-1.5-1-1.9-1.8c-0.5-0.8-0.7-1.6-0.7-2.6c0-1,0.2-1.8,0.7-2.6c0.5-0.8,1.1-1.4,1.9-1.8
				c0.8-0.4,1.7-0.7,2.8-0.7c1,0,1.9,0.2,2.7,0.7c0.8,0.4,1.5,1,1.9,1.8c0.5,0.8,0.7,1.6,0.7,2.6c0,1-0.2,1.8-0.7,2.6
				c-0.5,0.8-1.1,1.4-1.9,1.8c-0.8,0.4-1.7,0.7-2.7,0.7C103.7,22.9,102.8,22.6,102,22.2z M106.3,20.5c0.5-0.3,0.8-0.6,1.1-1.1
				c0.3-0.5,0.4-1,0.4-1.6c0-0.6-0.1-1.1-0.4-1.6c-0.3-0.5-0.6-0.8-1.1-1.1c-0.5-0.3-1-0.4-1.6-0.4c-0.6,0-1.1,0.1-1.6,0.4
				c-0.5,0.3-0.8,0.6-1.1,1.1c-0.3,0.5-0.4,1-0.4,1.6c0,0.6,0.1,1.1,0.4,1.6c0.3,0.5,0.6,0.8,1.1,1.1s1,0.4,1.6,0.4
				C105.3,20.9,105.8,20.8,106.3,20.5z"/>
			<path class="st4" d="M115.4,18.8l-1.3,1.4v2.5h-2.3v-9.8h2.3v4.6l4.3-4.6h2.5l-4.1,4.4l4.3,5.4h-2.6L115.4,18.8z"/>
		</g>
	</g>
</g>
</svg>
