<?xml version="1.0" encoding="utf-8"?>
<!-- Generator: Adobe Illustrator 24.1.1, SVG Export Plug-In . SVG Version: 6.00 Build 0)  -->
<svg version="1.1" xmlns="http://www.w3.org/2000/svg" xmlns:xlink="http://www.w3.org/1999/xlink" x="0px" y="0px"
	 viewBox="0 0 208.1 208.1" style="enable-background:new 0 0 208.1 208.1;" xml:space="preserve">
<style type="text/css">
	.st0{fill:#8EC044;}
	.st1{fill:#003433;}
	.st2{fill:none;stroke:url(#SVGID_3_);stroke-miterlimit:10;}
	.st3{fill:none;stroke:url(#SVGID_4_);stroke-miterlimit:10;}
	.st4{fill:#FFFFFF;}
	.st5{fill:url(#SVGID_5_);}
	.st6{fill:#013333;}
	.st7{fill:url(#SVGID_6_);}
	.st8{fill:url(#SVGID_7_);}
	.st9{fill:url(#SVGID_8_);}
	.st10{fill:none;stroke:#CCCCCC;stroke-width:21;stroke-miterlimit:10;}
	.st11{fill:none;stroke:#B2B2B2;stroke-width:8;stroke-miterlimit:10;}
	.st12{fill:none;stroke:#CCCCCC;stroke-width:12;stroke-miterlimit:10;}
	.st13{fill:none;stroke:#CCCCCC;stroke-width:55;stroke-miterlimit:10;}
	.st14{fill:#CCCCCC;}
	.st15{fill:#E6E6E6;}
	.st16{fill:#B3B3B3;}
	.st17{fill:#F2F2F2;}
	.st18{fill:none;stroke:#CCCCCC;stroke-width:13.8574;stroke-miterlimit:10;}
	.st19{fill-rule:evenodd;clip-rule:evenodd;fill:#808080;}
	.st20{fill-rule:evenodd;clip-rule:evenodd;fill:#FFFFFF;}
	.st21{fill:none;stroke:#CCCCCC;stroke-width:28;stroke-miterlimit:10;}
	.st22{fill:url(#SVGID_9_);}
	.st23{fill:none;stroke:#E6E6E6;stroke-miterlimit:10;}
	.st24{fill:url(#SVGID_10_);}
	.st25{fill:url(#SVGID_11_);}
	.st26{fill:#EDEDED;}
	.st27{fill:#F7EECF;}
	.st28{fill:none;stroke:#8EC044;stroke-width:8;stroke-miterlimit:10;}
	.st29{fill:none;stroke:#FFFFFF;stroke-width:8;stroke-miterlimit:10;}
	.st30{clip-path:url(#SVGID_35_);fill:#F7EECF;}
	.st31{clip-path:url(#SVGID_35_);}
	.st32{fill-rule:evenodd;clip-rule:evenodd;fill:#8EC044;}
	.st33{fill:url(#SVGID_38_);}
	.st34{fill:url(#SVGID_39_);}
	.st35{fill-rule:evenodd;clip-rule:evenodd;fill:#1D1D1B;}
	.st36{fill:#1D1D1B;}
	.st37{opacity:0.8;fill:#1D1D1B;}
	.st38{opacity:0.87;fill:#1D1D1B;}
	.st39{fill:url(#SVGID_40_);}
</style>
<g id="Camada_2">
</g>
<g id="Camada_1">
</g>
<g id="Camada_3">
	<g>
		<linearGradient id="SVGID_3_" gradientUnits="userSpaceOnUse" x1="42.7136" y1="129.4384" x2="148.9588" y2="64.6548">
			<stop  offset="0" style="stop-color:#2C8439"/>
			<stop  offset="1" style="stop-color:#8EC044"/>
		</linearGradient>
		<path style="fill:url(#SVGID_3_);" d="M198.2,77.7c-0.4-0.5-1.7-2.1-3.9-4.1c-4.2-3.7-11.5-8.5-21.4-8.5
			c-26.3,0-36.4,17.8-67.2,44.1c-0.9,0.8-1.8,1.5-2.7,2.3c-0.1,0-0.1,0.1-0.1,0.1c0,0-0.1,0.1-0.1,0.1c0,0,0,0,0,0
			c-2.8,2.3-5.8,4.7-9,7.2c-4.7,3.7-9.4,6.9-13.9,9.6c-34.1,21.2-60.2,18.8-60.2,18.8s2.5-5.6,8.6-14.5c3.2-4.6,7.3-10,12.5-16.1
			c3-3.5,6.5-7.2,10.3-11c4.4-4.4,9.2-8.2,14.3-11.5c15.1-9.9,31.5-15.1,40.3-17.5c3.9-1.1,6.3-1.5,6.3-1.5s-2.4-0.2-6.3-0.1
			c-8.5,0.3-24.4,2.2-40.4,11.2c-0.9,0.5-1.7,1-2.6,1.5c-11.1,6.6-19.7,14-25.5,19.7c-5.5,5.4-8.5,9.3-8.5,9.3
			c0.7-4.5,2.1-8.7,4.1-12.8c5.1-10.6,14-19.7,25.2-27.1c20.8-13.7,49.3-21.5,75.7-21.5c18.1,0,31.5,2.7,41.2,6.3
			c7,2.6,12,5.5,15.6,8.2C195.6,73.8,197.8,77,198.2,77.7z"/>
		<path class="st6" d="M198.3,77.8C198.3,77.8,198.3,77.8,198.3,77.8c-0.1,0-0.3,0-0.4,0c-3.2-0.4-15-1.3-34.6,2.2
			c-19.4,3.4-48.3,23.1-57.6,29.7c-1.4,1-2.3,1.7-2.7,2c0.9-0.8,1.8-1.6,2.7-2.3c30.8-26.3,40.9-44.1,67.2-44.1
			c10,0,17.3,4.8,21.4,8.5C196.5,75.6,197.9,77.3,198.3,77.8C198.2,77.8,198.3,77.8,198.3,77.8z"/>
	</g>
</g>
</svg>
