<?xml version="1.0" encoding="utf-8"?>
<!-- Generator: Adobe Illustrator 24.1.1, SVG Export Plug-In . SVG Version: 6.00 Build 0)  -->
<svg version="1.1" xmlns="http://www.w3.org/2000/svg" xmlns:xlink="http://www.w3.org/1999/xlink" x="0px" y="0px"
	 viewBox="0 0 357.1 243.2" style="enable-background:new 0 0 357.1 243.2;" xml:space="preserve">
<style type="text/css">
	.st0{fill:#8EC044;}
	.st1{fill:#003433;}
	.st2{fill:none;stroke:url(#SVGID_2_);stroke-miterlimit:10;}
	.st3{fill:none;stroke:url(#SVGID_4_);stroke-miterlimit:10;}
	.st4{fill:#FFFFFF;}
	.st5{fill:url(#SVGID_5_);}
	.st6{fill:#013333;}
	.st7{fill:url(#SVGID_6_);}
	.st8{fill:url(#SVGID_7_);}
	.st9{fill:url(#SVGID_8_);}
	.st10{fill:none;stroke:#CCCCCC;stroke-width:21;stroke-miterlimit:10;}
	.st11{fill:none;stroke:#B2B2B2;stroke-width:8;stroke-miterlimit:10;}
	.st12{fill:none;stroke:#CCCCCC;stroke-width:12;stroke-miterlimit:10;}
	.st13{fill:none;stroke:#CCCCCC;stroke-width:55;stroke-miterlimit:10;}
	.st14{fill:#CCCCCC;}
	.st15{fill:#E6E6E6;}
	.st16{fill:#B3B3B3;}
	.st17{fill:#F2F2F2;}
	.st18{fill:none;stroke:#CCCCCC;stroke-width:13.8574;stroke-miterlimit:10;}
	.st19{fill-rule:evenodd;clip-rule:evenodd;fill:#808080;}
	.st20{fill-rule:evenodd;clip-rule:evenodd;fill:#FFFFFF;}
	.st21{fill:none;stroke:#CCCCCC;stroke-width:28;stroke-miterlimit:10;}
	.st22{fill:url(#SVGID_9_);}
	.st23{fill:none;stroke:#E6E6E6;stroke-miterlimit:10;}
	.st24{fill:url(#SVGID_10_);}
	.st25{fill:url(#SVGID_11_);}
	.st26{fill:#EDEDED;}
	.st27{fill:#F7EECF;}
	.st28{fill:none;stroke:#8EC044;stroke-width:8;stroke-miterlimit:10;}
	.st29{fill:none;stroke:#FFFFFF;stroke-width:8;stroke-miterlimit:10;}
	.st30{clip-path:url(#SVGID_35_);fill:#F7EECF;}
	.st31{clip-path:url(#SVGID_35_);}
	.st32{fill-rule:evenodd;clip-rule:evenodd;fill:#8EC044;}
	.st33{fill:url(#SVGID_38_);}
	.st34{fill:url(#SVGID_39_);}
	.st35{opacity:0.8;fill:#FFFFFF;}
	.st36{fill:none;stroke:#FFFFFF;stroke-width:0.4139;stroke-miterlimit:10;}
	.st37{opacity:0.87;fill:#FFFFFF;}
</style>
<g id="Camada_2">
</g>
<g id="Camada_1">
</g>
<g id="Camada_3">
	<g>
		<path class="st1" d="M155,84.3H83.1c-1.5,0-2.5,1-2.5,2.5V117v2.8c0,1.5,1,2.5,2.5,2.5H155c1.5,0,2.5-1,2.5-2.5V86.8
			C157.5,85.3,156.5,84.3,155,84.3z M145.2,89.5l-26.4,10.6L93.1,89.5H145.2z M85.6,91.6l26.4,11.1l-26.4,10.6V91.6z M89.6,117.2
			l29.2-11.8l28.4,11.8H89.6z M152.5,113.9l-27.2-11.3l27.2-10.8V113.9z"/>
		<path class="st1" d="M328.2,238.2h-25.3V214c10.2-2.2,17.7-19.2,17.7-40.1c0-22.7-9-40.6-20.2-40.6c-11.2,0-20.2,17.7-20.2,40.6
			c0,20.9,7.5,37.6,17.7,40.1v24.2h-47.9v-18.4c11.2-1.2,19.9-10.7,19.9-22.2c0-9.2-5.7-17.2-13.7-20.7c3.7-2.9,6.1-7.7,5.3-13
			c-1-6.8-7.1-12-14-12c-7.7,0.1-13.8,6.3-13.8,14c0,4.5,2.2,8.5,5.5,11c-8,3.5-13.7,11.2-13.7,20.7c-0.2,11.5,8.5,20.9,19.4,22.2
			v18.4h-34V129.8l6.3,11.8c0.5,0.8,1.3,1.3,2.3,1.3c0.5,0,0.8,0,1.3-0.3c1.3-0.8,1.8-2.3,1-3.5l-11.6-20.6l-26.2-46.3
			c-0.3-0.5-0.8-0.8-1.3-1l-62.6-28.9c-0.8-0.3-1.5-0.3-2,0L55.4,71.2c-0.5,0.3-0.8,0.5-1,1L28,117.5l-12.6,21.4
			c-0.8,1.3-0.3,2.8,1,3.5c0.5,0.3,0.8,0.3,1.3,0.3c0.8,0,1.8-0.5,2.3-1.3l8-13.6v110.5h-18c-1.3,0-2.4,1-2.5,2.3
			c-0.1,1.6,0.9,2.7,2.5,2.7h34.7l0,0h142.6h0h141c1.4,0,2.5-1.1,2.5-2.5S329.6,238.2,328.2,238.2z M32.5,119.7l25.7-44.3L119,47.3
			l60.9,28.2l25.7,45v23.1h-173V119.7z M98.4,205.5l-12.8,24.9v-49.3L98.4,205.5z M87.3,173.5H115L101.4,200L87.3,173.5z
			 M87.3,238.2l14.1-27.4l14.3,27.4H87.3z M116.5,228.9l-12.3-23.4l12.3-24.1V228.9z M133.6,205.5l-12.1,23.4v-47.5L133.6,205.5z
			 M123.6,173.5h26.7l-13.6,26.2L123.6,173.5z M122.3,238.2l14.1-27.4l13.8,27.4H122.3z M152.5,231.9l-13.3-26.4l13.3-25.7V231.9z
			 M155,168.5H83.1c-0.3,0-0.3,0-0.5,0s-0.3,0-0.5,0.3l-0.3,0.3c-0.3,0-0.3,0.3-0.5,0.3c0,0-0.3,0.3-0.3,0.5c0,0.3-0.3,0.3-0.3,0.5
			s0,0.3,0,0.5v0.3v67.2H32.5v-89.5h173v89.5h-48V171C157.5,169.5,156.5,168.5,155,168.5z M238.6,165.9c0-5,4-9,9-9s9,4,9,9
			s-4,9-9,9S238.6,170.9,238.6,165.9z M230.1,197.8c0-9.7,8-17.4,17.4-17.4c9.5,0,17.4,7.7,17.4,17.4c0,9.7-7.7,17.4-17.4,17.4
			C237.9,215.3,230.1,207.6,230.1,197.8z M300.7,159.5c-1.5,0-2.5,1-2.5,2.5l-0.2,47.4c-7.5-3.5-12.7-20.2-12.7-35.1
			c0-16.7,6.2-35.6,15.2-35.6c9,0,15.2,18.7,15.2,35.6c0,15.2-5.2,31.9-12.7,35.1l0.2-47.4C303.2,160.5,302.2,159.5,300.7,159.5z"/>
	</g>
	<path class="st1" d="M300.8,29.7c-15.8,0-28.6,12.8-28.6,28.6S285,87,300.8,87s28.6-12.8,28.6-28.6S316.6,29.7,300.8,29.7z
		 M300.8,82c-13,0-23.6-10.6-23.6-23.6s10.6-23.6,23.6-23.6s23.6,10.6,23.6,23.6S313.8,82,300.8,82z"/>
	<path class="st1" d="M303.3,17.4V7.9c0-1.4-1.1-2.5-2.5-2.5s-2.5,1.1-2.5,2.5v9.5c0,1.4,1.1,2.5,2.5,2.5S303.3,18.8,303.3,17.4z"/>
	<path class="st1" d="M280.3,25.4c0.4,0,0.9-0.1,1.2-0.3c1.2-0.7,1.6-2.2,0.9-3.4l-4.8-8.3c-0.7-1.2-2.2-1.6-3.4-0.9
		c-1.2,0.7-1.6,2.2-0.9,3.4l4.8,8.3C278.6,24.9,279.5,25.4,280.3,25.4z"/>
	<path class="st1" d="M266.6,35.7l-8.3-4.8c-1.2-0.7-2.7-0.3-3.4,0.9c-0.7,1.2-0.3,2.7,0.9,3.4l8.3,4.8c0.4,0.2,0.8,0.3,1.2,0.3
		c0.9,0,1.7-0.4,2.2-1.2C268.2,37.9,267.8,36.4,266.6,35.7z"/>
	<path class="st1" d="M262.4,58.3c0-1.4-1.1-2.5-2.5-2.5h-9.5c-1.4,0-2.5,1.1-2.5,2.5s1.1,2.5,2.5,2.5h9.5
		C261.2,60.8,262.4,59.7,262.4,58.3z"/>
	<path class="st1" d="M257.1,86.1c0.4,0,0.9-0.1,1.2-0.3l8.3-4.8c1.2-0.7,1.6-2.2,0.9-3.4c-0.7-1.2-2.2-1.6-3.4-0.9l-8.3,4.8
		c-1.2,0.7-1.6,2.2-0.9,3.4C255.4,85.6,256.2,86.1,257.1,86.1z"/>
	<path class="st1" d="M278.2,92.5l-4.8,8.3c-0.7,1.2-0.3,2.7,0.9,3.4c0.4,0.2,0.8,0.3,1.2,0.3c0.9,0,1.7-0.4,2.2-1.2l4.8-8.3
		c0.7-1.2,0.3-2.7-0.9-3.4C280.4,90.9,278.9,91.3,278.2,92.5z"/>
	<path class="st1" d="M298.3,99.3v9.5c0,1.4,1.1,2.5,2.5,2.5s2.5-1.1,2.5-2.5v-9.5c0-1.4-1.1-2.5-2.5-2.5S298.3,97.9,298.3,99.3z"/>
	<path class="st1" d="M320,91.6c-1.2,0.7-1.6,2.2-0.9,3.4l4.8,8.3c0.5,0.8,1.3,1.2,2.2,1.2c0.4,0,0.9-0.1,1.2-0.3
		c1.2-0.7,1.6-2.2,0.9-3.4l-4.8-8.3C322.7,91.3,321.2,90.9,320,91.6z"/>
	<path class="st1" d="M335,81l8.3,4.8c0.4,0.2,0.8,0.3,1.2,0.3c0.9,0,1.7-0.4,2.2-1.2c0.7-1.2,0.3-2.7-0.9-3.4l-8.3-4.8
		c-1.2-0.7-2.7-0.3-3.4,0.9C333.4,78.7,333.8,80.3,335,81z"/>
	<path class="st1" d="M353.8,58.3c0-1.4-1.1-2.5-2.5-2.5h-9.5c-1.4,0-2.5,1.1-2.5,2.5s1.1,2.5,2.5,2.5h9.5
		C352.6,60.8,353.8,59.7,353.8,58.3z"/>
	<path class="st1" d="M343.3,30.9l-8.3,4.8c-1.2,0.7-1.6,2.2-0.9,3.4c0.5,0.8,1.3,1.2,2.2,1.2c0.4,0,0.9-0.1,1.2-0.3l8.3-4.8
		c1.2-0.7,1.6-2.2,0.9-3.4C346,30.7,344.4,30.3,343.3,30.9z"/>
	<path class="st1" d="M321.3,25.4c0.9,0,1.7-0.4,2.2-1.2l4.8-8.3c0.7-1.2,0.3-2.7-0.9-3.4c-1.2-0.7-2.7-0.3-3.4,0.9l-4.8,8.3
		c-0.7,1.2-0.3,2.7,0.9,3.4C320.4,25.3,320.8,25.4,321.3,25.4z"/>
</g>
</svg>
