<?xml version="1.0" encoding="utf-8"?>
<!-- Generator: Adobe Illustrator 24.1.1, SVG Export Plug-In . SVG Version: 6.00 Build 0)  -->
<svg version="1.1" xmlns="http://www.w3.org/2000/svg" xmlns:xlink="http://www.w3.org/1999/xlink" x="0px" y="0px"
	 viewBox="0 0 208.1 208.1" style="enable-background:new 0 0 208.1 208.1;" xml:space="preserve">
<style type="text/css">
	.st0{fill:#8EC044;}
	.st1{fill:#003433;}
	.st2{fill:none;stroke:url(#SVGID_2_);stroke-miterlimit:10;}
	.st3{fill:none;stroke:url(#SVGID_4_);stroke-miterlimit:10;}
	.st4{fill:#FFFFFF;}
	.st5{fill:url(#SVGID_5_);}
	.st6{fill:#013333;}
	.st7{fill:url(#SVGID_6_);}
	.st8{fill:url(#SVGID_7_);}
	.st9{fill:url(#SVGID_8_);}
	.st10{fill:none;stroke:#CCCCCC;stroke-width:21;stroke-miterlimit:10;}
	.st11{fill:none;stroke:#B2B2B2;stroke-width:8;stroke-miterlimit:10;}
	.st12{fill:none;stroke:#CCCCCC;stroke-width:12;stroke-miterlimit:10;}
	.st13{fill:none;stroke:#CCCCCC;stroke-width:55;stroke-miterlimit:10;}
	.st14{fill:#CCCCCC;}
	.st15{fill:#E6E6E6;}
	.st16{fill:#B3B3B3;}
	.st17{fill:#F2F2F2;}
	.st18{fill:none;stroke:#CCCCCC;stroke-width:13.8574;stroke-miterlimit:10;}
	.st19{fill-rule:evenodd;clip-rule:evenodd;fill:#808080;}
	.st20{fill-rule:evenodd;clip-rule:evenodd;fill:#FFFFFF;}
	.st21{fill:none;stroke:#CCCCCC;stroke-width:28;stroke-miterlimit:10;}
	.st22{fill:url(#SVGID_9_);}
	.st23{fill:none;stroke:#E6E6E6;stroke-miterlimit:10;}
	.st24{fill:url(#SVGID_10_);}
	.st25{fill:url(#SVGID_11_);}
	.st26{fill:#EDEDED;}
	.st27{fill:#F7EECF;}
	.st28{fill:none;stroke:#8EC044;stroke-width:8;stroke-miterlimit:10;}
	.st29{fill:none;stroke:#FFFFFF;stroke-width:8;stroke-miterlimit:10;}
	.st30{clip-path:url(#SVGID_35_);fill:#F7EECF;}
	.st31{clip-path:url(#SVGID_35_);}
	.st32{fill-rule:evenodd;clip-rule:evenodd;fill:#8EC044;}
	.st33{fill:url(#SVGID_38_);}
	.st34{fill:url(#SVGID_39_);}
	.st35{opacity:0.8;fill:#FFFFFF;}
	.st36{fill:none;stroke:#FFFFFF;stroke-width:0.4139;stroke-miterlimit:10;}
	.st37{opacity:0.87;fill:#FFFFFF;}
</style>
<g id="Camada_2">
</g>
<g id="Camada_1">
</g>
<g id="Camada_3">
	<g>
		<g>
			<path class="st1" d="M202.7,202.7h-20.4v-26.1c0-1.4-1.1-2.5-2.5-2.5h-7.1v-10.3c0-23-18.7-41.7-41.7-41.7h-13.5V112
				c0-11.5,9.3-20.8,20.8-20.8h15.4c7.3,0,13.3-5.9,13.3-13.3c0-7.3-5.9-13.3-13.3-13.3h-15.6c-12.9,0-25.1,5.2-34.1,14.4
				c-8.9-9.2-21.2-14.4-34.1-14.4H54.4c-7.3,0-13.3,5.9-13.3,13.3c0,7.3,5.9,13.3,13.3,13.3h15.4c11.5,0,20.8,9.3,20.8,20.8v10.2
				H77.1c-23,0-41.7,18.7-41.7,41.7v10.3h-7.1c-1.4,0-2.5,1.1-2.5,2.5v26.1H5.3c-1.4,0-2.5,1.1-2.5,2.5s1.1,2.5,2.5,2.5h23h151.5h23
				c1.4,0,2.5-1.1,2.5-2.5S204.1,202.7,202.7,202.7z M69.8,86.1H54.4c-4.5,0-8.2-3.7-8.2-8.2c0-4.5,3.7-8.2,8.2-8.2h15.6
				c12.3,0,24.1,5.4,32.2,14.8c1,1.1,2.9,1.1,3.8,0c8.1-9.4,19.8-14.8,32.2-14.8h15.6c4.5,0,8.2,3.7,8.2,8.2c0,4.5-3.7,8.2-8.2,8.2
				h-15.4c-14.3,0-25.8,11.6-25.8,25.8v10.2H95.6V112C95.6,97.7,84,86.1,69.8,86.1z M40.5,163.8c0-20.2,16.4-36.6,36.6-36.6H131
				c20.2,0,36.6,16.4,36.6,36.6v10.3H40.5V163.8z M30.8,202.7v-23.5h146.4v23.5H30.8z"/>
			<path class="st1" d="M5.3,28.1c0.8,0,1.6-0.4,2.1-1.1c0.7-1,1.4-2,2.1-2.9c0.9-1.1,0.6-2.7-0.5-3.5c-1.1-0.9-2.7-0.6-3.5,0.5
				C4.7,22,4,23,3.2,24.1c-0.8,1.2-0.4,2.7,0.7,3.5C4.4,27.9,4.9,28.1,5.3,28.1z"/>
			<path class="st1" d="M44.4,0.3c-2.8,0.1-5.7,0.5-8.4,1.1c-1.4,0.3-2.2,1.6-1.9,3c0.3,1.2,1.3,2,2.5,2c0.2,0,0.4,0,0.5-0.1
				c2.5-0.5,5.1-0.9,7.6-1c1.4-0.1,2.5-1.3,2.4-2.6C47,1.3,45.8,0.2,44.4,0.3z"/>
			<path class="st1" d="M93.2,28.7c-0.7-1.2-2.2-1.7-3.4-1.1c-1.2,0.6-1.7,2.2-1.1,3.4c1.2,2.3,2.2,4.6,3,7.1
				c0.4,1.1,1.3,1.7,2.4,1.7c0.3,0,0.5,0,0.8-0.1c1.3-0.4,2-1.9,1.6-3.2C95.7,33.8,94.5,31.2,93.2,28.7z"/>
			<path class="st1" d="M66.6,4.2c-2.6-1.1-5.4-2-8.1-2.6c-1.4-0.3-2.7,0.5-3,1.9c-0.3,1.4,0.5,2.7,1.9,3c2.5,0.6,4.9,1.4,7.3,2.3
				c0.3,0.1,0.6,0.2,1,0.2c1,0,1.9-0.6,2.3-1.6C68.5,6.2,67.9,4.7,66.6,4.2z"/>
			<path class="st1" d="M81.3,20.6c0.5,0.5,1.2,0.8,1.9,0.8c0.6,0,1.2-0.2,1.7-0.7c1-0.9,1.1-2.5,0.1-3.6c-1.9-2.1-4-4-6.2-5.8
				c-1.1-0.9-2.7-0.7-3.6,0.4c-0.9,1.1-0.7,2.7,0.4,3.6C77.7,16.9,79.6,18.7,81.3,20.6z"/>
			<path class="st1" d="M22.7,6.3c-2.5,1.3-4.9,2.9-7.2,4.6c-1.1,0.8-1.3,2.4-0.5,3.5c0.5,0.7,1.3,1,2,1c0.5,0,1.1-0.2,1.5-0.5
				c2-1.6,4.2-3,6.5-4.2c1.2-0.7,1.7-2.2,1-3.4C25.5,6.1,23.9,5.7,22.7,6.3z"/>
			<path class="st1" d="M94.3,50.7c0.1,1.2,0.1,2.4,0.1,3.6c0,1.4,1.1,2.5,2.5,2.5s2.5-1.1,2.5-2.5c0-1.3,0-2.7-0.1-4
				c-0.1-1.4-1.3-2.5-2.7-2.3C95.3,48.1,94.2,49.3,94.3,50.7z"/>
			<path class="st1" d="M14.5,46.4c0.4,0.3,0.9,0.4,1.4,0.4c0.8,0,1.6-0.4,2.1-1.1c0.6-1,1.3-1.9,2.1-2.8c0.9-1.1,0.7-2.7-0.3-3.6
				c-1.1-0.9-2.7-0.7-3.6,0.3c-0.9,1-1.7,2.1-2.4,3.3C13,44,13.3,45.6,14.5,46.4z"/>
			<path class="st1" d="M26.2,34.1c0.4,0.9,1.3,1.4,2.3,1.4c0.4,0,0.8-0.1,1.1-0.3c2.2-1.1,4.5-1.9,6.9-2.5c1.4-0.3,2.2-1.6,1.9-3
				c-0.3-1.4-1.6-2.2-3-1.9c-2.8,0.6-5.6,1.6-8.1,2.9C26.1,31.3,25.6,32.8,26.2,34.1z"/>
			<path class="st1" d="M46.8,29.7c-0.3,1.4,0.6,2.7,1.9,3c2.4,0.5,4.7,1.3,6.9,2.4c0.4,0.2,0.7,0.3,1.1,0.3c0.9,0,1.8-0.5,2.3-1.4
				c0.6-1.3,0.1-2.8-1.1-3.4c-2.6-1.3-5.3-2.3-8.2-2.9C48.5,27.5,47.1,28.3,46.8,29.7z"/>
			<path class="st1" d="M65.7,39.2c-1.1,0.9-1.2,2.5-0.3,3.6c0.8,0.9,1.5,1.8,2.1,2.8c0.5,0.7,1.3,1.1,2.1,1.1c0.5,0,1-0.1,1.4-0.4
				c1.2-0.8,1.5-2.3,0.7-3.5c-0.7-1.1-1.6-2.2-2.4-3.3C68.3,38.5,66.7,38.3,65.7,39.2z"/>
			<path class="st1" d="M202.7,28.1c0.5,0,1-0.1,1.4-0.4c1.2-0.8,1.5-2.3,0.7-3.5c-0.7-1.1-1.5-2.2-2.3-3.2
				c-0.9-1.1-2.4-1.3-3.5-0.5c-1.1,0.9-1.3,2.4-0.5,3.5c0.7,1,1.4,1.9,2.1,2.9C201.1,27.7,201.9,28.1,202.7,28.1z"/>
			<path class="st1" d="M185.4,6.3c-1.2-0.7-2.8-0.2-3.4,1c-0.7,1.2-0.2,2.8,1,3.4c2.2,1.2,4.4,2.6,6.5,4.2c0.5,0.4,1,0.5,1.5,0.5
				c0.8,0,1.5-0.3,2-1c0.8-1.1,0.6-2.7-0.5-3.5C190.3,9.2,187.9,7.6,185.4,6.3z"/>
			<path class="st1" d="M126.7,20.6c1.7-1.9,3.6-3.6,5.6-5.2c1.1-0.9,1.3-2.5,0.4-3.6c-0.9-1.1-2.5-1.3-3.6-0.4
				c-2.2,1.7-4.3,3.7-6.2,5.8c-0.9,1-0.9,2.6,0.1,3.6c0.5,0.4,1.1,0.7,1.7,0.7C125.5,21.4,126.2,21.1,126.7,20.6z"/>
			<path class="st1" d="M172.1,1.4c-2.8-0.6-5.6-1-8.4-1.1c-1.4-0.1-2.6,1-2.6,2.4s1,2.6,2.4,2.6c2.6,0.1,5.1,0.5,7.6,1
				c0.2,0,0.4,0.1,0.5,0.1c1.2,0,2.2-0.8,2.5-2C174.3,3.1,173.5,1.7,172.1,1.4z"/>
			<path class="st1" d="M113.1,39.7c0.3,0.1,0.5,0.1,0.8,0.1c1.1,0,2-0.7,2.4-1.7c0.8-2.4,1.8-4.8,3-7.1c0.7-1.2,0.2-2.8-1.1-3.4
				c-1.2-0.6-2.8-0.2-3.4,1.1c-1.3,2.5-2.4,5.1-3.4,7.8C111.1,37.8,111.8,39.2,113.1,39.7z"/>
			<path class="st1" d="M149.5,1.6c-2.8,0.6-5.5,1.5-8.1,2.6c-1.3,0.5-1.9,2-1.4,3.3c0.4,1,1.3,1.6,2.3,1.6c0.3,0,0.7-0.1,1-0.2
				c2.4-1,4.8-1.8,7.3-2.3c1.4-0.3,2.2-1.7,1.9-3C152.3,2.1,150.9,1.3,149.5,1.6z"/>
			<path class="st1" d="M108.7,50.4c-0.1,1.3-0.1,2.6-0.1,4c0,1.4,1.1,2.5,2.5,2.5c1.4,0,2.5-1.1,2.5-2.5c0-1.2,0-2.4,0.1-3.6
				c0.1-1.4-0.9-2.6-2.3-2.7C110,47.9,108.8,49,108.7,50.4z"/>
			<path class="st1" d="M188.3,39.3c-1.1,0.9-1.2,2.5-0.3,3.6c0.7,0.9,1.4,1.8,2.1,2.8c0.5,0.7,1.3,1.1,2.1,1.1c0.5,0,1-0.1,1.4-0.4
				c1.2-0.8,1.5-2.3,0.7-3.5c-0.7-1.1-1.6-2.2-2.4-3.3C191,38.5,189.4,38.4,188.3,39.3z"/>
			<path class="st1" d="M158.2,27.8c-2.8,0.6-5.6,1.6-8.2,2.9c-1.3,0.6-1.8,2.1-1.1,3.4c0.4,0.9,1.3,1.4,2.3,1.4
				c0.4,0,0.8-0.1,1.1-0.3c2.2-1.1,4.5-1.9,6.9-2.4c1.4-0.3,2.2-1.6,1.9-3C161,28.3,159.6,27.5,158.2,27.8z"/>
			<path class="st1" d="M180.7,30.7c-2.6-1.3-5.3-2.3-8.1-2.9c-1.4-0.3-2.7,0.6-3,1.9c-0.3,1.4,0.6,2.7,1.9,3
				c2.4,0.5,4.7,1.3,6.9,2.5c0.4,0.2,0.8,0.3,1.1,0.3c0.9,0,1.8-0.5,2.3-1.4C182.5,32.8,182,31.3,180.7,30.7z"/>
			<path class="st1" d="M136.4,42.8c-0.8,1.2-0.4,2.7,0.7,3.5c0.4,0.3,0.9,0.4,1.4,0.4c0.8,0,1.6-0.4,2.1-1.1c0.6-1,1.3-1.9,2.1-2.8
				c0.9-1.1,0.8-2.7-0.3-3.6c-1.1-0.9-2.7-0.8-3.6,0.3C138,40.6,137.2,41.7,136.4,42.8z"/>
		</g>
	</g>
</g>
</svg>
