<?xml version="1.0" encoding="utf-8"?>
<!-- Generator: Adobe Illustrator 24.1.1, SVG Export Plug-In . SVG Version: 6.00 Build 0)  -->
<svg version="1.1" xmlns="http://www.w3.org/2000/svg" xmlns:xlink="http://www.w3.org/1999/xlink" x="0px" y="0px"
	 viewBox="0 0 208.1 208.1" style="enable-background:new 0 0 208.1 208.1;" xml:space="preserve">
<style type="text/css">
	.st0{fill:#8EC044;}
	.st1{fill:#003433;}
	.st2{fill:none;stroke:url(#SVGID_2_);stroke-miterlimit:10;}
	.st3{fill:none;stroke:url(#SVGID_4_);stroke-miterlimit:10;}
	.st4{fill:#FFFFFF;}
	.st5{fill:url(#SVGID_5_);}
	.st6{fill:#013333;}
	.st7{fill:url(#SVGID_6_);}
	.st8{fill:url(#SVGID_7_);}
	.st9{fill:url(#SVGID_8_);}
	.st10{fill:none;stroke:#CCCCCC;stroke-width:21;stroke-miterlimit:10;}
	.st11{fill:none;stroke:#B2B2B2;stroke-width:8;stroke-miterlimit:10;}
	.st12{fill:none;stroke:#CCCCCC;stroke-width:12;stroke-miterlimit:10;}
	.st13{fill:none;stroke:#CCCCCC;stroke-width:55;stroke-miterlimit:10;}
	.st14{fill:#CCCCCC;}
	.st15{fill:#E6E6E6;}
	.st16{fill:#B3B3B3;}
	.st17{fill:#F2F2F2;}
	.st18{fill:none;stroke:#CCCCCC;stroke-width:13.8574;stroke-miterlimit:10;}
	.st19{fill-rule:evenodd;clip-rule:evenodd;fill:#808080;}
	.st20{fill-rule:evenodd;clip-rule:evenodd;fill:#FFFFFF;}
	.st21{fill:none;stroke:#CCCCCC;stroke-width:28;stroke-miterlimit:10;}
	.st22{fill:url(#SVGID_9_);}
	.st23{fill:none;stroke:#E6E6E6;stroke-miterlimit:10;}
	.st24{fill:url(#SVGID_10_);}
	.st25{fill:url(#SVGID_11_);}
	.st26{fill:#EDEDED;}
	.st27{fill:#F7EECF;}
	.st28{fill:none;stroke:#8EC044;stroke-width:8;stroke-miterlimit:10;}
	.st29{fill:none;stroke:#FFFFFF;stroke-width:8;stroke-miterlimit:10;}
	.st30{clip-path:url(#SVGID_35_);fill:#F7EECF;}
	.st31{clip-path:url(#SVGID_35_);}
	.st32{fill-rule:evenodd;clip-rule:evenodd;fill:#8EC044;}
	.st33{fill:url(#SVGID_38_);}
	.st34{fill:url(#SVGID_39_);}
	.st35{opacity:0.8;fill:#FFFFFF;}
	.st36{fill:none;stroke:#FFFFFF;stroke-width:0.4139;stroke-miterlimit:10;}
	.st37{opacity:0.87;fill:#FFFFFF;}
</style>
<g id="Camada_2">
</g>
<g id="Camada_1">
</g>
<g id="Camada_3">
	<g>
		<defs>
			<rect id="SVGID_3_" x="-2250.6" y="-877.3" width="1920" height="951"/>
		</defs>
		<clipPath id="SVGID_2_">
			<use xlink:href="#SVGID_3_"  style="overflow:visible;"/>
		</clipPath>
		<g transform="matrix(1 0 0 1 0 0)" style="clip-path:url(#SVGID_2_);">
			
				<image style="overflow:visible;" width="6000" height="4000" xlink:href="../../../../../../../../Downloads/pexels-pixabay-265242.jpg"  transform="matrix(0.4402 0 0 0.4402 -2611.2961 -902.3956)">
			</image>
		</g>
	</g>
	<g>
		<g>
			<path class="st1" d="M24.3,87.3v18.4h-17c-1.5,0-2.5,1-2.5,2.5c0,1.5,1,2.5,2.5,2.5h194.2c1.5,0,2.5-1,2.5-2.5
				c0-1.5-1-2.5-2.5-2.5h-16V89.1c10.2-1.2,18.2-10,18.2-20.4c0-8.5-5.2-15.7-12.5-18.9c3-2.5,4.7-6,4.7-10c0-7.2-5.7-13-13-13
				c-7.2,0-13,5.7-13,13c0,4,2,7.7,4.7,10c-7.2,3.2-12.5,10.5-12.5,18.9c0,10.5,8,19.2,18.2,20.4v16.7h-45.9V87.3
				c8.5-2.5,14.7-18.4,14.7-38.9c0-22.4-7.5-39.4-17.2-39.4S115,26,115,48.4c0,20.4,6.2,36.1,14.7,38.9v18.4H82.1V81.6
				c10.2-2.2,17.7-19.2,17.7-40.1c0-22.7-9-40.6-20.2-40.6S59.4,18.5,59.4,41.5c0,20.9,7.5,37.6,17.7,40.1v24.2H29.3V87.3
				c11.2-1.2,19.9-10.7,19.9-22.2c0-9.2-5.7-17.2-13.7-20.7C38.7,42,41,38,41,33.5c0-7.7-6.2-14-14-14s-14,6.2-14,14
				c0,4.5,2.2,8.5,5.5,11c-8,3.5-13.7,11.2-13.7,20.7C4.6,76.6,13.3,86.1,24.3,87.3z M183.3,31.7c4.5,0,8,3.5,8,8s-3.5,8-8,8
				s-8-3.5-8-8S178.8,31.7,183.3,31.7z M167.6,68.9c0-8.7,7-15.7,15.7-15.7c8.7,0,15.7,7,15.7,15.7s-7,15.7-15.7,15.7
				C174.6,84.6,167.6,77.4,167.6,68.9z M120,48.7c0-20.2,6.5-34.4,12.2-34.4c5.7,0,12.2,14,12.2,34.4c0,17.4-4.7,30.2-9.7,33.4
				l0.2-50.4c0-1.5-1-2.5-2.5-2.5l0,0c-1.5,0-2.5,1-2.5,2.5l-0.2,50.4C124.7,78.6,120,65.9,120,48.7z M64.4,41.7
				c0-16.7,6.2-35.6,15.2-35.6s15.2,18.7,15.2,35.6c0,15.2-5.2,31.9-12.7,35.1l0.2-47.4c0-1.5-1-2.5-2.5-2.5l0,0
				c-1.5,0-2.5,1-2.5,2.5l-0.2,47.4C69.6,73.4,64.4,56.7,64.4,41.7z M26.8,24.5c5,0,9,4,9,9s-4,9-9,9s-9-4-9-9S21.8,24.5,26.8,24.5z
				 M26.8,47.9c9.5,0,17.4,7.7,17.4,17.4s-7.7,17.4-17.4,17.4S9.3,75.1,9.3,65.4S17.3,47.9,26.8,47.9z"/>
			<path class="st1" d="M201.7,133.2c-1.5,0-2.5,1-2.5,2.5c0,6.2-5.2,11.5-11.5,11.5c-6.2,0-11.5-5.2-11.5-11.5c0-1.5-1-2.5-2.5-2.5
				c-1.5,0-2.5,1-2.5,2.5c0,6.2-5.2,11.5-11.5,11.5s-11.5-5.2-11.5-11.5c0-1.5-1-2.5-2.5-2.5c-1.5,0-2.5,1-2.5,2.5
				c0,6.2-5.2,11.5-11.5,11.5c-6.2,0-11.5-5.2-11.5-11.5c0-1.5-1-2.5-2.5-2.5c-1.5,0-2.5,1-2.5,2.5c0,6.2-5.2,11.5-11.5,11.5
				c-6.2,0-11.5-5.2-11.5-11.5c0-1.5-1-2.5-2.5-2.5s-2.5,1-2.5,2.5c0,6.2-5.2,11.5-11.5,11.5c-6.2,0-11.5-5.2-11.5-11.5
				c0-1.5-1-2.5-2.5-2.5c-1.5,0-2.5,1-2.5,2.5c0,6.2-5.2,11.5-11.5,11.5s-11.5-5.2-11.5-11.5c0-1.5-1-2.5-2.5-2.5s-2.5,1-2.5,2.5
				c0,6.2-5.2,11.5-11.5,11.5s-11.5-5.2-11.5-11.5c0-1.5-1-2.5-2.5-2.5s-2.5,1-2.5,2.5c0,9,7.2,16.5,16.5,16.5c5.7,0,11-3,14-7.7
				c3,4.7,8,7.7,14,7.7s11-3,14-7.7c3,4.7,8,7.7,14,7.7c6,0,11-3,14-7.7c3,4.7,8,7.7,14,7.7c6,0,11-3,14-7.7c3,4.7,8,7.7,14,7.7
				c6,0,11-3,14-7.7c3,4.7,8,7.7,14,7.7s11-3,14-7.7c3,4.7,8,7.7,14,7.7c9,0,16.5-7.2,16.5-16.5
				C204.2,134.2,203.2,133.2,201.7,133.2z"/>
			<path class="st1" d="M201.7,160.4c-1.5,0-2.5,1-2.5,2.5c0,6.2-5.2,11.5-11.5,11.5c-6.2,0-11.5-5.2-11.5-11.5c0-1.5-1-2.5-2.5-2.5
				c-1.5,0-2.5,1-2.5,2.5c0,6.2-5.2,11.5-11.5,11.5s-11.5-5.2-11.5-11.5c0-1.5-1-2.5-2.5-2.5c-1.5,0-2.5,1-2.5,2.5
				c0,6.2-5.2,11.5-11.5,11.5c-6.2,0-11.5-5.2-11.5-11.5c0-1.5-1-2.5-2.5-2.5c-1.5,0-2.5,1-2.5,2.5c0,6.2-5.2,11.5-11.5,11.5
				c-6.2,0-11.5-5.2-11.5-11.5c0-1.5-1-2.5-2.5-2.5s-2.5,1-2.5,2.5c0,6.2-5.2,11.5-11.5,11.5c-6.2,0-11.5-5.2-11.5-11.5
				c0-1.5-1-2.5-2.5-2.5c-1.5,0-2.5,1-2.5,2.5c0,6.2-5.2,11.5-11.5,11.5s-11.5-5.2-11.5-11.5c0-1.5-1-2.5-2.5-2.5s-2.5,1-2.5,2.5
				c0,6.2-5.2,11.5-11.5,11.5s-11.5-5.2-11.5-11.5c0-1.5-1-2.5-2.5-2.5s-2.5,1-2.5,2.5c0,9,7.2,16.5,16.5,16.5c5.7,0,11-3,14-7.7
				c3,4.7,8,7.7,14,7.7s11-3,14-7.7c3,4.7,8,7.7,14,7.7c6,0,11-3,14-7.7c3,4.7,8,7.7,14,7.7c6,0,11-3,14-7.7c3,4.7,8,7.7,14,7.7
				c6,0,11-3,14-7.7c3,4.7,8,7.7,14,7.7s11-3,14-7.7c3,4.7,8,7.7,14,7.7c9,0,16.5-7.2,16.5-16.5
				C204.2,161.4,203.2,160.4,201.7,160.4z"/>
			<path class="st1" d="M201.7,188.3c-1.5,0-2.5,1-2.5,2.5c0,6.2-5.2,11.5-11.5,11.5c-6.2,0-11.5-5.2-11.5-11.5c0-1.5-1-2.5-2.5-2.5
				c-1.5,0-2.5,1-2.5,2.5c0,6.2-5.2,11.5-11.5,11.5s-11.5-5.2-11.5-11.5c0-1.5-1-2.5-2.5-2.5c-1.5,0-2.5,1-2.5,2.5
				c0,6.2-5.2,11.5-11.5,11.5c-6.2,0-11.5-5.2-11.5-11.5c0-1.5-1-2.5-2.5-2.5c-1.5,0-2.5,1-2.5,2.5c0,6.2-5.2,11.5-11.5,11.5
				c-6.2,0-11.5-5.2-11.5-11.5c0-1.5-1-2.5-2.5-2.5s-2.5,1-2.5,2.5c0,6.2-5.2,11.5-11.5,11.5c-6.2,0-11.5-5.2-11.5-11.5
				c0-1.5-1-2.5-2.5-2.5c-1.5,0-2.5,1-2.5,2.5c0,6.2-5.2,11.5-11.5,11.5s-11.5-5.2-11.5-11.5c0-1.5-1-2.5-2.5-2.5s-2.5,1-2.5,2.5
				c0,6.2-5.2,11.5-11.5,11.5S8.8,197,8.8,190.8c0-1.5-1-2.5-2.5-2.5s-2.5,1-2.5,2.5c0,9,7.2,16.5,16.5,16.5c5.7,0,11-3,14-7.7
				c3,4.7,8,7.7,14,7.7s11-3,14-7.7c3,4.7,8,7.7,14,7.7c6,0,11-3,14-7.7c3,4.7,8,7.7,14,7.7c6,0,11-3,14-7.7c3,4.7,8,7.7,14,7.7
				c6,0,11-3,14-7.7c3,4.7,8,7.7,14,7.7s11-3,14-7.7c3,4.7,8,7.7,14,7.7c9,0,16.5-7.2,16.5-16.5
				C204.2,189.5,203.2,188.3,201.7,188.3z"/>
		</g>
	</g>
</g>
</svg>
