<?xml version="1.0" encoding="utf-8"?>
<!-- Generator: Adobe Illustrator 24.1.1, SVG Export Plug-In . SVG Version: 6.00 Build 0)  -->
<svg version="1.1" xmlns="http://www.w3.org/2000/svg" xmlns:xlink="http://www.w3.org/1999/xlink" x="0px" y="0px"
	 viewBox="0 0 208.1 208.1" style="enable-background:new 0 0 208.1 208.1;" xml:space="preserve">
<style type="text/css">
	.st0{fill:#8EC044;}
	.st1{fill:#003433;}
	.st2{fill:none;stroke:url(#SVGID_2_);stroke-miterlimit:10;}
	.st3{fill:none;stroke:url(#SVGID_4_);stroke-miterlimit:10;}
	.st4{fill:#FFFFFF;}
	.st5{fill:url(#SVGID_5_);}
	.st6{fill:#013333;}
	.st7{fill:url(#SVGID_6_);}
	.st8{fill:url(#SVGID_7_);}
	.st9{fill:url(#SVGID_8_);}
	.st10{fill:none;stroke:#CCCCCC;stroke-width:21;stroke-miterlimit:10;}
	.st11{fill:none;stroke:#B2B2B2;stroke-width:8;stroke-miterlimit:10;}
	.st12{fill:none;stroke:#CCCCCC;stroke-width:12;stroke-miterlimit:10;}
	.st13{fill:none;stroke:#CCCCCC;stroke-width:55;stroke-miterlimit:10;}
	.st14{fill:#CCCCCC;}
	.st15{fill:#E6E6E6;}
	.st16{fill:#B3B3B3;}
	.st17{fill:#F2F2F2;}
	.st18{fill:none;stroke:#CCCCCC;stroke-width:13.8574;stroke-miterlimit:10;}
	.st19{fill-rule:evenodd;clip-rule:evenodd;fill:#808080;}
	.st20{fill-rule:evenodd;clip-rule:evenodd;fill:#FFFFFF;}
	.st21{fill:none;stroke:#CCCCCC;stroke-width:28;stroke-miterlimit:10;}
	.st22{fill:url(#SVGID_9_);}
	.st23{fill:none;stroke:#E6E6E6;stroke-miterlimit:10;}
	.st24{fill:url(#SVGID_10_);}
	.st25{fill:url(#SVGID_11_);}
	.st26{fill:#EDEDED;}
	.st27{fill:#F7EECF;}
	.st28{fill:none;stroke:#8EC044;stroke-width:8;stroke-miterlimit:10;}
	.st29{fill:none;stroke:#FFFFFF;stroke-width:8;stroke-miterlimit:10;}
	.st30{clip-path:url(#SVGID_35_);fill:#F7EECF;}
	.st31{clip-path:url(#SVGID_35_);}
	.st32{fill-rule:evenodd;clip-rule:evenodd;fill:#8EC044;}
	.st33{fill:url(#SVGID_38_);}
	.st34{fill:url(#SVGID_39_);}
	.st35{opacity:0.8;fill:#FFFFFF;}
	.st36{fill:none;stroke:#FFFFFF;stroke-width:0.4139;stroke-miterlimit:10;}
	.st37{opacity:0.87;fill:#FFFFFF;}
</style>
<g id="Camada_2">
</g>
<g id="Camada_1">
</g>
<g id="Camada_3">
	<g>
		<g>
			<path class="st1" d="M4.3,205.3c0,1.4,1.1,2.5,2.5,2.5H201c1.4,0,2.5-1.1,2.5-2.5c0-1.4-1.1-2.5-2.5-2.5h-6.1l1.4-20.5
				c0.5-4.2-0.8-8.4-3.6-11.5c-1.6-1.8-3.6-3.2-5.8-4c6.7-4.9,10.6-13.6,14.2-21.5c0.8-1.7,1.5-3.3,2.3-4.9c0.4-0.9,0.3-1.9-0.3-2.7
				c-0.6-0.7-1.6-1.1-2.6-0.8c-0.3,0.1-6.2,1.7-16,6.9c-1.5-5.7-4.4-12.4-10.1-17.1c-0.9-0.8-2.2-0.8-3.2,0
				c-5.8,4.7-8.7,11.6-10.2,17.4c-9.1-5-15.6-7-15.9-7.1c-0.9-0.3-2,0-2.6,0.8c-0.6,0.7-0.8,1.8-0.3,2.7c0.8,1.7,1.6,3.5,2.4,5.3
				c3.5,7.8,7.3,16.4,13.8,21.1c-2.1,0.8-4,2.1-5.5,3.9c-2.8,3.2-4.1,7.4-3.6,11.4l1.5,20.6H126l1.4-20.5c0.5-4.2-0.8-8.4-3.6-11.5
				c-1.6-1.8-3.6-3.2-5.8-4c6.7-4.9,10.6-13.6,14.3-21.5c0.8-1.7,1.5-3.3,2.3-4.9c0.4-0.9,0.3-1.9-0.3-2.7c-0.6-0.7-1.6-1.1-2.6-0.8
				c-0.3,0.1-6.2,1.7-16,6.9c-1.5-5.7-4.4-12.4-10.1-17.1c-0.9-0.8-2.2-0.8-3.2,0c-5.8,4.7-8.7,11.6-10.2,17.4
				c-9.1-5-15.6-7-15.9-7.1c-0.9-0.3-2,0-2.6,0.8c-0.6,0.7-0.8,1.8-0.3,2.7c0.8,1.7,1.6,3.5,2.4,5.3c3.5,7.8,7.3,16.4,13.8,21.1
				c-2.1,0.8-4,2.1-5.5,3.9c-2.8,3.2-4.1,7.4-3.6,11.4l1.4,20.6H57.2l1.4-20.5c0.5-4.2-0.8-8.4-3.6-11.5c-1.6-1.8-3.6-3.2-5.8-4
				c6.7-4.9,10.6-13.6,14.2-21.5c0.8-1.7,1.5-3.3,2.3-4.9c0.4-0.9,0.3-1.9-0.3-2.7c-0.6-0.7-1.6-1.1-2.6-0.8
				c-0.3,0.1-6.2,1.7-16,6.9c-1.5-5.7-4.4-12.4-10.1-17.1c-0.9-0.8-2.2-0.8-3.2,0c-5.8,4.7-8.7,11.6-10.2,17.4
				c-9.1-5-15.6-7-15.9-7.1c-0.9-0.3-2,0-2.6,0.8c-0.6,0.7-0.8,1.8-0.3,2.7c0.8,1.7,1.6,3.5,2.4,5.3c3.5,7.8,7.3,16.4,13.8,21.1
				c-2.1,0.8-4,2.1-5.5,3.9c-2.8,3.2-4.1,7.4-3.6,11.4l1.5,20.6H6.8C5.4,202.8,4.3,203.9,4.3,205.3z M149.3,143.9
				c3.1,1.3,7.4,3.4,12.3,6.3c0.7,0.4,1.6,0.5,2.3,0.1c0.7-0.3,1.3-1,1.4-1.8c0.9-5,2.9-11.6,7.6-16.4c4.6,4.7,6.6,11.2,7.5,16
				c0.1,0.8,0.7,1.5,1.4,1.8c0.7,0.3,1.6,0.3,2.3-0.1c5.1-2.9,9.3-4.8,12.4-6.1c-4.2,9.3-9.1,19.6-18,21.6c-5.5,1.2-11.1,0-11.3,0
				C158.2,163.8,153.7,153.7,149.3,143.9z M155,190.7h19.6c1.4,0,2.5-1.1,2.5-2.5c0-1.4-1.1-2.5-2.5-2.5h-20l-0.3-4
				c-0.3-2.8,0.5-5.5,2.4-7.6c1.8-2.1,4.5-3.3,7.2-3.3h17.8c2.8,0,5.4,1.2,7.2,3.3c1.8,2.1,2.7,4.9,2.3,7.8l-1.5,21h-34L155,190.7z
				 M80.5,143.9c3.2,1.3,7.5,3.4,12.3,6.2c0.7,0.4,1.6,0.5,2.3,0.1c0.7-0.3,1.3-1,1.4-1.8c0.9-5,2.9-11.6,7.6-16.4
				c4.6,4.7,6.6,11.2,7.5,16c0.1,0.8,0.7,1.5,1.4,1.8c0.7,0.3,1.6,0.3,2.3-0.1c5.1-2.9,9.3-4.8,12.4-6.1c-4.2,9.3-9.1,19.6-18,21.6
				c-5.5,1.2-11.1,0-11.3,0C89.3,163.8,84.8,153.7,80.5,143.9z M86.2,190.7h19.6c1.4,0,2.5-1.1,2.5-2.5c0-1.4-1.1-2.5-2.5-2.5h-20
				l-0.3-4c-0.3-2.8,0.5-5.5,2.4-7.6c1.8-2.1,4.5-3.3,7.2-3.3h17.8c2.8,0,5.4,1.2,7.2,3.3c1.8,2.1,2.7,4.9,2.3,7.8l-1.5,21H87
				L86.2,190.7z M11.6,143.9c3.1,1.3,7.4,3.4,12.3,6.3c0.7,0.4,1.6,0.5,2.3,0.1c0.7-0.3,1.3-1,1.4-1.8c0.9-5,2.9-11.6,7.6-16.4
				c4.6,4.7,6.6,11.2,7.5,16c0.1,0.8,0.7,1.5,1.4,1.8c0.7,0.3,1.6,0.3,2.3-0.1c5.1-2.9,9.3-4.8,12.4-6.1c-4.2,9.3-9.1,19.6-18,21.6
				c-5.5,1.2-11.1,0-11.3,0C20.5,163.8,15.9,153.7,11.6,143.9z M17.3,190.7h19.9c1.4,0,2.5-1.1,2.5-2.5c0-1.4-1.1-2.5-2.5-2.5H16.9
				l-0.3-4c-0.3-2.8,0.5-5.5,2.4-7.6c1.8-2.1,4.5-3.3,7.2-3.3h17.8c2.8,0,5.4,1.2,7.2,3.3c1.8,2.1,2.7,4.9,2.3,7.8l-1.5,21h-34
				L17.3,190.7z"/>
			<path class="st1" d="M104,24.7c-15.8,0-28.6,12.8-28.6,28.6S88.3,81.9,104,81.9s28.6-12.8,28.6-28.6S119.8,24.7,104,24.7z
				 M104,76.9c-13,0-23.6-10.6-23.6-23.6S91,29.7,104,29.7s23.6,10.6,23.6,23.6S117.1,76.9,104,76.9z"/>
			<path class="st1" d="M106.5,12.4V2.8c0-1.4-1.1-2.5-2.5-2.5s-2.5,1.1-2.5,2.5v9.5c0,1.4,1.1,2.5,2.5,2.5S106.5,13.7,106.5,12.4z"
				/>
			<path class="st1" d="M83.6,20.3c0.4,0,0.9-0.1,1.2-0.3c1.2-0.7,1.6-2.2,0.9-3.4L81,8.3c-0.7-1.2-2.2-1.6-3.4-0.9
				c-1.2,0.7-1.6,2.2-0.9,3.4l4.8,8.3C81.9,19.9,82.7,20.3,83.6,20.3z"/>
			<path class="st1" d="M69.8,30.7l-8.3-4.8c-1.2-0.7-2.7-0.3-3.4,0.9c-0.7,1.2-0.3,2.7,0.9,3.4l8.3,4.8c0.4,0.2,0.8,0.3,1.2,0.3
				c0.9,0,1.7-0.4,2.2-1.2C71.4,32.9,71,31.4,69.8,30.7z"/>
			<path class="st1" d="M65.6,53.3c0-1.4-1.1-2.5-2.5-2.5h-9.5c-1.4,0-2.5,1.1-2.5,2.5s1.1,2.5,2.5,2.5h9.5
				C64.5,55.8,65.6,54.7,65.6,53.3z"/>
			<path class="st1" d="M60.3,81c0.4,0,0.9-0.1,1.2-0.3l8.3-4.8c1.2-0.7,1.6-2.2,0.9-3.4c-0.7-1.2-2.2-1.6-3.4-0.9l-8.3,4.8
				c-1.2,0.7-1.6,2.2-0.9,3.4C58.6,80.6,59.5,81,60.3,81z"/>
			<path class="st1" d="M81.4,87.5l-4.8,8.3c-0.7,1.2-0.3,2.7,0.9,3.4c0.4,0.2,0.8,0.3,1.2,0.3c0.9,0,1.7-0.4,2.2-1.2l4.8-8.3
				c0.7-1.2,0.3-2.7-0.9-3.4C83.6,85.9,82.1,86.3,81.4,87.5z"/>
			<path class="st1" d="M101.5,94.2v9.5c0,1.4,1.1,2.5,2.5,2.5s2.5-1.1,2.5-2.5v-9.5c0-1.4-1.1-2.5-2.5-2.5S101.5,92.8,101.5,94.2z"
				/>
			<path class="st1" d="M123.3,86.6c-1.2,0.7-1.6,2.2-0.9,3.4l4.8,8.3c0.5,0.8,1.3,1.2,2.2,1.2c0.4,0,0.9-0.1,1.2-0.3
				c1.2-0.7,1.6-2.2,0.9-3.4l-4.8-8.3C126,86.3,124.4,85.9,123.3,86.6z"/>
			<path class="st1" d="M138.2,75.9l8.3,4.8c0.4,0.2,0.8,0.3,1.2,0.3c0.9,0,1.7-0.4,2.2-1.2c0.7-1.2,0.3-2.7-0.9-3.4l-8.3-4.8
				c-1.2-0.7-2.7-0.3-3.4,0.9C136.6,73.7,137,75.2,138.2,75.9z"/>
			<path class="st1" d="M157,53.3c0-1.4-1.1-2.5-2.5-2.5H145c-1.4,0-2.5,1.1-2.5,2.5s1.1,2.5,2.5,2.5h9.5
				C155.9,55.8,157,54.7,157,53.3z"/>
			<path class="st1" d="M146.5,25.9l-8.3,4.8c-1.2,0.7-1.6,2.2-0.9,3.4c0.5,0.8,1.3,1.2,2.2,1.2c0.4,0,0.9-0.1,1.2-0.3l8.3-4.8
				c1.2-0.7,1.6-2.2,0.9-3.4C149.2,25.6,147.7,25.2,146.5,25.9z"/>
			<path class="st1" d="M124.5,20.3c0.9,0,1.7-0.4,2.2-1.2l4.8-8.3c0.7-1.2,0.3-2.7-0.9-3.4s-2.7-0.3-3.4,0.9l-4.8,8.3
				c-0.7,1.2-0.3,2.7,0.9,3.4C123.6,20.2,124.1,20.3,124.5,20.3z"/>
		</g>
	</g>
</g>
</svg>
