<?xml version="1.0" encoding="utf-8"?>
<!-- Generator: Adobe Illustrator 24.1.1, SVG Export Plug-In . SVG Version: 6.00 Build 0)  -->
<svg version="1.1" xmlns="http://www.w3.org/2000/svg" xmlns:xlink="http://www.w3.org/1999/xlink" x="0px" y="0px"
	 viewBox="0 0 35.8 35.8" style="enable-background:new 0 0 35.8 35.8;" xml:space="preserve">
<style type="text/css">
	.st0{fill:#8EC044;}
	.st1{fill:#003433;}
	.st2{fill:none;stroke:url(#SVGID_2_);stroke-miterlimit:10;}
	.st3{fill:none;stroke:url(#SVGID_4_);stroke-miterlimit:10;}
	.st4{fill:#FFFFFF;}
	.st5{fill:url(#SVGID_5_);}
	.st6{fill:#013333;}
	.st7{fill:url(#SVGID_6_);}
	.st8{fill:url(#SVGID_7_);}
	.st9{fill:url(#SVGID_8_);}
	.st10{fill:none;stroke:#CCCCCC;stroke-width:21;stroke-miterlimit:10;}
	.st11{fill:none;stroke:#B2B2B2;stroke-width:8;stroke-miterlimit:10;}
	.st12{fill:none;stroke:#CCCCCC;stroke-width:12;stroke-miterlimit:10;}
	.st13{fill:none;stroke:#CCCCCC;stroke-width:55;stroke-miterlimit:10;}
	.st14{fill:#CCCCCC;}
	.st15{fill:#E6E6E6;}
	.st16{fill:#B3B3B3;}
	.st17{fill:#F2F2F2;}
	.st18{fill:none;stroke:#CCCCCC;stroke-width:13.8574;stroke-miterlimit:10;}
	.st19{fill-rule:evenodd;clip-rule:evenodd;fill:#808080;}
	.st20{fill-rule:evenodd;clip-rule:evenodd;fill:#FFFFFF;}
	.st21{fill:none;stroke:#CCCCCC;stroke-width:28;stroke-miterlimit:10;}
	.st22{fill:url(#SVGID_9_);}
	.st23{fill:none;stroke:#E6E6E6;stroke-miterlimit:10;}
	.st24{fill:url(#SVGID_10_);}
	.st25{fill:url(#SVGID_11_);}
	.st26{fill:#EDEDED;}
	.st27{fill:#F7EECF;}
	.st28{fill:none;stroke:#8EC044;stroke-width:8;stroke-miterlimit:10;}
	.st29{fill:none;stroke:#FFFFFF;stroke-width:8;stroke-miterlimit:10;}
	.st30{clip-path:url(#SVGID_35_);fill:#F7EECF;}
	.st31{clip-path:url(#SVGID_35_);}
	.st32{fill-rule:evenodd;clip-rule:evenodd;fill:#8EC044;}
	.st33{fill:url(#SVGID_38_);}
	.st34{fill:url(#SVGID_39_);}
	.st35{opacity:0.8;fill:#FFFFFF;}
	.st36{fill:none;stroke:#FFFFFF;stroke-width:0.4139;stroke-miterlimit:10;}
	.st37{opacity:0.87;fill:#FFFFFF;}
</style>
<g id="Camada_2">
</g>
<g id="Camada_1">
</g>
<g id="Camada_3">
	<g>
		<path class="st0" d="M31.2,25l-4.9-3.6c-0.7-0.6-1.6-1-2.5-1c-1,0-1.9,0.4-2.6,1.1l-3.1,3.1c-0.3,0.3-0.5,0.6-0.6,0.9
			c-1-0.4-5.1-2.3-7-6.4c0.3-0.3,0.8-0.7,1.1-1l3.1-3.1c0.7-0.7,1.1-1.6,1.1-2.6c0-0.9-0.4-1.8-1-2.5L11,5.1C11,5.1,11,5,10.9,5
			c-0.7-0.7-1.6-1.1-2.6-1.1c-1,0-1.9,0.4-2.6,1.1L2.8,7.8C2,8.6,1,11.5,1.3,15.2c0.3,3.2,1.6,8.1,6.5,12.9
			c4.3,4.3,9.3,5.8,12.6,6.3c0.9,0.1,1.9,0.2,2.9,0.2c1.2,0,4.1-0.1,5.1-1.2l3-3c0.7-0.7,1.1-1.6,1.1-2.6c0-1-0.4-1.9-1.1-2.6
			C31.3,25.1,31.3,25.1,31.2,25z M23.3,32.8c-0.9,0-1.8-0.1-2.7-0.2c-3.1-0.4-7.6-1.8-11.6-5.8c-4.5-4.5-5.7-8.9-6-11.8
			c-0.3-3.5,0.7-5.7,1-6l2.9-2.9c0.4-0.4,0.8-0.6,1.4-0.6c0.5,0,1,0.2,1.4,0.6l3.7,4.8l0.1,0.1c0.3,0.4,0.5,0.8,0.5,1.3
			c0,0.5-0.2,1-0.6,1.4l-3.1,3.1c-0.2,0.2-0.4,0.4-0.7,0.6L8.4,15c-0.2-0.4-0.8-0.6-1.2-0.4c-0.4,0.2-0.6,0.8-0.4,1.2l1.7,3.5
			c2.3,5.6,7.8,8,9.2,8.3l3.6,0.8c0.1,0,0.1,0,0.2,0c0.4,0,0.8-0.3,0.9-0.7c0.1-0.5-0.2-1-0.7-1.1l-2.5-0.6c0,0,0.1-0.1,0.1-0.1
			l3.1-3.1c0.7-0.7,2-0.7,2.7,0c0,0,0.1,0.1,0.1,0.1l4.9,3.6c0.4,0.4,0.6,0.8,0.6,1.4c0,0.5-0.2,1-0.6,1.4l-3,3
			C26.9,32.4,25.7,32.8,23.3,32.8z"/>
		<path class="st0" d="M34.2,8.2C34.1,8.1,33.8,8,33.6,8h-4.3c-0.5,0-0.9,0.4-0.9,0.9c0,0.5,0.4,0.9,0.9,0.9h2.1l-5.6,5.6
			c-0.3,0.3-0.3,0.9,0,1.3c0.2,0.2,0.4,0.3,0.6,0.3s0.5-0.1,0.6-0.3l5.6-5.6v2.1c0,0.5,0.4,0.9,0.9,0.9s0.9-0.4,0.9-0.9V8.9
			C34.5,8.6,34.4,8.4,34.2,8.2z"/>
		<path class="st0" d="M19.6,10.1l4.2,0c0.5,0,0.9-0.4,0.9-0.9c0-0.5-0.4-0.9-0.9-0.9l-2.1,0l5.6-5.6c0.2-0.2,0.3-0.4,0.3-0.6
			s-0.1-0.5-0.3-0.6c-0.3-0.3-0.9-0.3-1.3,0l-5.6,5.6V5c0-0.5-0.4-0.9-0.9-0.9S18.7,4.5,18.7,5l0,4.2C18.7,9.7,19.1,10.1,19.6,10.1z
			"/>
	</g>
</g>
</svg>
