<?xml version="1.0" encoding="utf-8"?>
<!-- Generator: Adobe Illustrator 24.1.1, SVG Export Plug-In . SVG Version: 6.00 Build 0)  -->
<svg version="1.1" xmlns="http://www.w3.org/2000/svg" xmlns:xlink="http://www.w3.org/1999/xlink" x="0px" y="0px"
	 viewBox="0 0 36 36" style="enable-background:new 0 0 36 36;" xml:space="preserve">
<style type="text/css">
	.st0{fill:#8EC044;}
	.st1{fill:#003433;}
	.st2{fill:none;stroke:url(#SVGID_2_);stroke-miterlimit:10;}
	.st3{fill:none;stroke:url(#SVGID_4_);stroke-miterlimit:10;}
	.st4{fill:#FFFFFF;}
	.st5{fill:url(#SVGID_5_);}
	.st6{fill:#013333;}
	.st7{fill:url(#SVGID_6_);}
	.st8{fill:url(#SVGID_7_);}
	.st9{fill:url(#SVGID_8_);}
	.st10{fill:none;stroke:#CCCCCC;stroke-width:21;stroke-miterlimit:10;}
	.st11{fill:none;stroke:#B2B2B2;stroke-width:8;stroke-miterlimit:10;}
	.st12{fill:none;stroke:#CCCCCC;stroke-width:12;stroke-miterlimit:10;}
	.st13{fill:none;stroke:#CCCCCC;stroke-width:55;stroke-miterlimit:10;}
	.st14{fill:#CCCCCC;}
	.st15{fill:#E6E6E6;}
	.st16{fill:#B3B3B3;}
	.st17{fill:#F2F2F2;}
	.st18{fill:none;stroke:#CCCCCC;stroke-width:13.8574;stroke-miterlimit:10;}
	.st19{fill-rule:evenodd;clip-rule:evenodd;fill:#808080;}
	.st20{fill-rule:evenodd;clip-rule:evenodd;fill:#FFFFFF;}
	.st21{fill:none;stroke:#CCCCCC;stroke-width:28;stroke-miterlimit:10;}
	.st22{fill:url(#SVGID_9_);}
	.st23{fill:none;stroke:#E6E6E6;stroke-miterlimit:10;}
	.st24{fill:url(#SVGID_10_);}
	.st25{fill:url(#SVGID_11_);}
	.st26{fill:#EDEDED;}
	.st27{fill:#F7EECF;}
	.st28{fill:none;stroke:#8EC044;stroke-width:8;stroke-miterlimit:10;}
	.st29{fill:none;stroke:#FFFFFF;stroke-width:8;stroke-miterlimit:10;}
	.st30{clip-path:url(#SVGID_35_);fill:#F7EECF;}
	.st31{clip-path:url(#SVGID_35_);}
	.st32{fill-rule:evenodd;clip-rule:evenodd;fill:#8EC044;}
	.st33{fill:url(#SVGID_38_);}
	.st34{fill:url(#SVGID_39_);}
	.st35{opacity:0.8;fill:#FFFFFF;}
	.st36{fill:none;stroke:#FFFFFF;stroke-width:0.4139;stroke-miterlimit:10;}
	.st37{opacity:0.87;fill:#FFFFFF;}
</style>
<g id="Camada_2">
</g>
<g id="Camada_1">
</g>
<g id="Camada_3">
	<path class="st0" d="M4.4,35.1h27.2c1.8,0,3.2-1.4,3.2-3.2V14.6c0-0.3-0.1-0.5-0.3-0.7L30,10.1V3.5c0-1.4-1.1-2.6-2.6-2.6H8.7
		C7.3,0.9,6.2,2,6.2,3.5v6.5l-4.7,3.9c-0.2,0.2-0.3,0.4-0.3,0.7v17.3C1.2,33.6,2.6,35.1,4.4,35.1z M31.6,33.2H4.4
		c-0.8,0-1.4-0.6-1.4-1.4V16.3l10.4,7.4L6,29.4c-0.4,0.3-0.5,0.9-0.2,1.3c0.3,0.4,0.9,0.5,1.3,0.2l7.9-6l2.6,1.8
		c0.3,0.2,0.7,0.2,1.1,0l2.6-1.8l7.9,6c0.4,0.3,1,0.2,1.3-0.2c0.3-0.4,0.2-1-0.2-1.3l-7.4-5.6L33,16.5v15.4
		C33,32.6,32.3,33.2,31.6,33.2L31.6,33.2z M32.5,14.6L30,16.3v-3.9L32.5,14.6z M8.7,2.7h18.7c0.4,0,0.7,0.3,0.7,0.7v14.2l-10.1,7.1
		L8,17.6V3.5C8,3,8.3,2.7,8.7,2.7z M6.2,16.3l-2.6-1.8l2.6-2.2V16.3z M18,20.1h0.2c0.5,0,0.9-0.4,0.9-0.9c0-0.5-0.4-0.9-0.9-0.9H18
		c-3.2,0-5.8-2.6-5.8-5.8c0-3.2,2.6-5.8,5.8-5.8c3.2,0,5.8,2.6,5.8,5.8V14c0,0.6-0.5,1-1.1,1c-0.5,0-0.9-0.4-1-1v-1.6
		c0-2.1-1.7-3.8-3.8-3.8c-2.1,0-3.8,1.7-3.8,3.8s1.7,3.8,3.8,3.8c0.9,0,1.7-0.3,2.4-0.8c0.8,1.4,2.5,1.9,3.9,1.1
		c0.9-0.5,1.5-1.5,1.5-2.5v-1.6c0-4.2-3.4-7.7-7.7-7.7s-7.7,3.4-7.7,7.7C10.3,16.6,13.8,20.1,18,20.1z M18,14.4c-1.1,0-2-0.9-2-2
		c0-1.1,0.9-2,2-2s2,0.9,2,2c0,0,0,0,0,0C19.9,13.5,19.1,14.4,18,14.4z"/>
</g>
</svg>
