<?xml version="1.0" encoding="utf-8"?>
<!-- Generator: Adobe Illustrator 24.1.1, SVG Export Plug-In . SVG Version: 6.00 Build 0)  -->
<svg version="1.1" xmlns="http://www.w3.org/2000/svg" xmlns:xlink="http://www.w3.org/1999/xlink" x="0px" y="0px"
	 viewBox="0 0 208.1 208.1" style="enable-background:new 0 0 208.1 208.1;" xml:space="preserve">
<style type="text/css">
	.st0{fill:#8EC044;}
	.st1{fill:#003433;}
	.st2{fill:none;stroke:url(#SVGID_2_);stroke-miterlimit:10;}
	.st3{fill:none;stroke:url(#SVGID_4_);stroke-miterlimit:10;}
	.st4{fill:#FFFFFF;}
	.st5{fill:url(#SVGID_5_);}
	.st6{fill:#013333;}
	.st7{fill:url(#SVGID_6_);}
	.st8{fill:url(#SVGID_7_);}
	.st9{fill:url(#SVGID_8_);}
	.st10{fill:none;stroke:#CCCCCC;stroke-width:21;stroke-miterlimit:10;}
	.st11{fill:none;stroke:#B2B2B2;stroke-width:8;stroke-miterlimit:10;}
	.st12{fill:none;stroke:#CCCCCC;stroke-width:12;stroke-miterlimit:10;}
	.st13{fill:none;stroke:#CCCCCC;stroke-width:55;stroke-miterlimit:10;}
	.st14{fill:#CCCCCC;}
	.st15{fill:#E6E6E6;}
	.st16{fill:#B3B3B3;}
	.st17{fill:#F2F2F2;}
	.st18{fill:none;stroke:#CCCCCC;stroke-width:13.8574;stroke-miterlimit:10;}
	.st19{fill-rule:evenodd;clip-rule:evenodd;fill:#808080;}
	.st20{fill-rule:evenodd;clip-rule:evenodd;fill:#FFFFFF;}
	.st21{fill:none;stroke:#CCCCCC;stroke-width:28;stroke-miterlimit:10;}
	.st22{fill:url(#SVGID_9_);}
	.st23{fill:none;stroke:#E6E6E6;stroke-miterlimit:10;}
	.st24{fill:url(#SVGID_10_);}
	.st25{fill:url(#SVGID_11_);}
	.st26{fill:#EDEDED;}
	.st27{fill:#F7EECF;}
	.st28{fill:none;stroke:#8EC044;stroke-width:8;stroke-miterlimit:10;}
	.st29{fill:none;stroke:#FFFFFF;stroke-width:8;stroke-miterlimit:10;}
	.st30{clip-path:url(#SVGID_35_);fill:#F7EECF;}
	.st31{clip-path:url(#SVGID_35_);}
	.st32{fill-rule:evenodd;clip-rule:evenodd;fill:#8EC044;}
	.st33{fill:url(#SVGID_38_);}
	.st34{fill:url(#SVGID_39_);}
	.st35{opacity:0.8;fill:#FFFFFF;}
	.st36{fill:none;stroke:#FFFFFF;stroke-width:0.4139;stroke-miterlimit:10;}
	.st37{opacity:0.87;fill:#FFFFFF;}
</style>
<g id="Camada_2">
</g>
<g id="Camada_1">
</g>
<g id="Camada_3">
	<g>
		<g>
			<path class="st1" d="M201.3,4.3H81.6c-1.4,0-2.5,1.1-2.5,2.5v23.3H66.5V15.9c0-6.4-5.2-11.6-11.6-11.6H34.2
				c-6.4,0-11.6,5.2-11.6,11.6v13.5H6.8c-1.4,0-2.5,1.1-2.5,2.5v169.3c0,1.4,1.1,2.5,2.5,2.5h119.6c1.4,0,2.5-1.1,2.5-2.5v-22.6
				h72.3c1.4,0,2.5-1.1,2.5-2.5V6.8C203.7,5.4,202.6,4.3,201.3,4.3z M54.8,156.7H34.3l-5.9-13.6c-0.2-0.4-0.3-0.9-0.4-1.4l7-4.3
				l8.2,5.1c0.8,0.5,1.8,0.5,2.6,0l8.2-5.1l7,4.3c-0.1,0.5-0.2,0.9-0.4,1.4L54.8,156.7z M52.7,161.7l-4.6,10.6
				c-0.6,1.4-1.9,2.3-3.5,2.3c-1.6,0-2.9-0.9-3.5-2.3l-4.6-10.6H52.7z M61.6,136.2l-6.1-3.8c-0.8-0.5-1.8-0.5-2.6,0l-8.2,5.1
				l-8.2-5.1c-0.8-0.5-1.8-0.5-2.6,0l-6.2,3.8V43h34V136.2z M34.2,9.3h20.7c3.7,0,6.6,3,6.6,6.6V38h-34V15.9
				C27.6,12.3,30.6,9.3,34.2,9.3z M9.3,34.4h13.3V139c0,2.1,0.4,4.2,1.3,6.1l6.5,15.1c0,0,0,0,0,0l6.1,14.1c1.4,3.3,4.5,5.3,8.1,5.3
				c3.6,0,6.7-2,8.1-5.3l12.6-29.1c0.8-2,1.3-4,1.3-6.1V35.1h12.6v141.1c0,0.1,0,0.2,0.1,0.3c0,0.2,0,0.3,0.1,0.5
				c0.1,0.2,0.1,0.3,0.2,0.4c0.1,0.1,0.2,0.3,0.3,0.4c0.1,0.1,0.3,0.2,0.4,0.3c0.1,0.1,0.1,0.2,0.2,0.2l36.7,20.4H9.3V34.4z
				 M124,196.9l-32.8-18.2H124V196.9z M198.8,173.6H84.1V9.3h114.7V173.6z"/>
			<path class="st1" d="M141.4,115.6c12.4,0,22.6-10.1,22.6-22.6c0-12.4-10.1-22.6-22.6-22.6S118.9,80.6,118.9,93
				C118.9,105.4,129,115.6,141.4,115.6z M141.4,75.4c9.7,0,17.6,7.9,17.6,17.6s-7.9,17.6-17.6,17.6s-17.6-7.9-17.6-17.6
				S131.7,75.4,141.4,75.4z"/>
			<path class="st1" d="M103.7,108.6c-2.3,6.2-0.8,13.3,4,18.1c4.8,4.8,11.9,6.3,18.1,4c2.8,6,8.8,10,15.6,10s12.9-4,15.6-10
				c6.2,2.3,13.3,0.9,18.1-4c4.8-4.8,6.3-11.9,4-18.1c6-2.8,10-8.8,10-15.6s-4-12.9-10-15.6c2.3-6.2,0.8-13.3-4-18.1
				c-4.8-4.8-11.9-6.3-18.1-4c-2.8-6-8.8-10-15.6-10s-12.9,4-15.6,10c-6.2-2.3-13.3-0.8-18.1,4c-4.8,4.8-6.3,11.9-4,18.1
				c-6,2.8-10,8.8-10,15.6S97.7,105.8,103.7,108.6z M107.8,81.2c0.8-0.2,1.4-0.7,1.7-1.5s0.2-1.5-0.1-2.2c-2.8-4.8-2-10.9,1.9-14.8
				c3.9-3.9,10-4.7,14.8-1.9c0.7,0.4,1.5,0.4,2.2,0.1c0.7-0.3,1.3-0.9,1.5-1.7c1.4-5.4,6.3-9.1,11.8-9.1c5.5,0,10.4,3.7,11.8,9.1
				c0.2,0.8,0.7,1.4,1.5,1.7c0.7,0.3,1.5,0.2,2.2-0.1c4.8-2.8,10.9-2,14.8,1.9c3.9,3.9,4.7,10,1.9,14.8c-0.4,0.7-0.4,1.5-0.1,2.2
				s0.9,1.3,1.7,1.5c5.4,1.4,9.1,6.3,9.1,11.8s-3.7,10.4-9.1,11.8c-0.8,0.2-1.4,0.7-1.7,1.5c-0.3,0.7-0.2,1.5,0.1,2.2
				c2.8,4.8,2,10.9-1.9,14.8c-3.9,3.9-10,4.7-14.8,1.9c-0.7-0.4-1.5-0.4-2.2-0.1c-0.7,0.3-1.3,0.9-1.5,1.7
				c-1.4,5.4-6.3,9.1-11.8,9.1c-5.5,0-10.4-3.7-11.8-9.1c-0.2-0.8-0.7-1.4-1.5-1.7c-0.3-0.1-0.6-0.2-1-0.2c-0.4,0-0.9,0.1-1.3,0.3
				c-4.8,2.8-10.9,2-14.8-1.9c-3.9-3.9-4.7-10-1.9-14.8c0.4-0.7,0.4-1.5,0.1-2.2c-0.3-0.7-0.9-1.3-1.7-1.5
				c-5.4-1.4-9.1-6.3-9.1-11.8S102.4,82.6,107.8,81.2z"/>
		</g>
	</g>
</g>
</svg>
