<?xml version="1.0" encoding="utf-8"?>
<!-- Generator: Adobe Illustrator 24.1.1, SVG Export Plug-In . SVG Version: 6.00 Build 0)  -->
<svg version="1.1" xmlns="http://www.w3.org/2000/svg" xmlns:xlink="http://www.w3.org/1999/xlink" x="0px" y="0px"
	 viewBox="0 0 208.1 208.1" style="enable-background:new 0 0 208.1 208.1;" xml:space="preserve">
<style type="text/css">
	.st0{fill:#8EC044;}
	.st1{fill:#003433;}
	.st2{fill:none;stroke:url(#SVGID_2_);stroke-miterlimit:10;}
	.st3{fill:none;stroke:url(#SVGID_4_);stroke-miterlimit:10;}
	.st4{fill:#FFFFFF;}
	.st5{fill:url(#SVGID_5_);}
	.st6{fill:#013333;}
	.st7{fill:url(#SVGID_6_);}
	.st8{fill:url(#SVGID_7_);}
	.st9{fill:url(#SVGID_8_);}
	.st10{fill:none;stroke:#CCCCCC;stroke-width:21;stroke-miterlimit:10;}
	.st11{fill:none;stroke:#B2B2B2;stroke-width:8;stroke-miterlimit:10;}
	.st12{fill:none;stroke:#CCCCCC;stroke-width:12;stroke-miterlimit:10;}
	.st13{fill:none;stroke:#CCCCCC;stroke-width:55;stroke-miterlimit:10;}
	.st14{fill:#CCCCCC;}
	.st15{fill:#E6E6E6;}
	.st16{fill:#B3B3B3;}
	.st17{fill:#F2F2F2;}
	.st18{fill:none;stroke:#CCCCCC;stroke-width:13.8574;stroke-miterlimit:10;}
	.st19{fill-rule:evenodd;clip-rule:evenodd;fill:#808080;}
	.st20{fill-rule:evenodd;clip-rule:evenodd;fill:#FFFFFF;}
	.st21{fill:none;stroke:#CCCCCC;stroke-width:28;stroke-miterlimit:10;}
	.st22{fill:url(#SVGID_9_);}
	.st23{fill:none;stroke:#E6E6E6;stroke-miterlimit:10;}
	.st24{fill:url(#SVGID_10_);}
	.st25{fill:url(#SVGID_11_);}
	.st26{fill:#EDEDED;}
	.st27{fill:#F7EECF;}
	.st28{fill:none;stroke:#8EC044;stroke-width:8;stroke-miterlimit:10;}
	.st29{fill:none;stroke:#FFFFFF;stroke-width:8;stroke-miterlimit:10;}
	.st30{clip-path:url(#SVGID_35_);fill:#F7EECF;}
	.st31{clip-path:url(#SVGID_35_);}
	.st32{fill-rule:evenodd;clip-rule:evenodd;fill:#8EC044;}
	.st33{fill:url(#SVGID_38_);}
	.st34{fill:url(#SVGID_39_);}
	.st35{opacity:0.8;fill:#FFFFFF;}
	.st36{fill:none;stroke:#FFFFFF;stroke-width:0.4139;stroke-miterlimit:10;}
	.st37{opacity:0.87;fill:#FFFFFF;}
</style>
<g id="Camada_2">
</g>
<g id="Camada_1">
</g>
<g id="Camada_3">
	<g>
		<g>
			<path class="st1" d="M171.1,27.5h-35.9v-5c0-1.5-1-2.5-2.5-2.5h-14.2v-1.2c0-8-6.5-14.5-14.5-14.5s-14.5,6.5-14.5,14.5V20H75.4
				c-1.5,0-2.5,1-2.5,2.5v5H37c-1.5,0-2.5,1-2.5,2.5v171.2c0,1.5,1,2.5,2.5,2.5h134.1c1.5,0,2.5-1,2.5-2.5V30
				C173.6,28.5,172.3,27.5,171.1,27.5z M77.9,25h14.2c1.5,0,2.5-1,2.5-2.5v-3.7c0-5.2,4.2-9.5,9.5-9.5s9.5,4.2,9.5,9.5v3.7
				c0,1.5,1,2.5,2.5,2.5h14.2v12.2H77.9V25z M75.4,42.2H133c1.5,0,2.5-1,2.5-2.5v-7.2h16.5v149.8H56.2V32.5h16.5v7.2
				C72.9,41.2,73.9,42.2,75.4,42.2z M168.6,198.8H39.5V32.5h11.7v152.3c0,1.5,1,2.5,2.5,2.5h100.5c1.5,0,2.5-1,2.5-2.5V32.5h11.7
				v166.3H168.6z"/>
			<circle class="st1" cx="104" cy="18.3" r="3.2"/>
			<path class="st1" d="M69.9,140.9c-1.5,0-2.5,1-2.5,2.5s1,2.5,2.5,2.5h68.3c1.5,0,2.5-1,2.5-2.5s-1-2.5-2.5-2.5H69.9z"/>
			<path class="st1" d="M138.2,163.1H69.9c-1.5,0-2.5,1-2.5,2.5c0,1.5,1,2.5,2.5,2.5h68.3c1.5,0,2.5-1,2.5-2.5
				C140.7,164.1,139.7,163.1,138.2,163.1z"/>
			<path class="st1" d="M68.9,120.5c0,1.5,1,2.5,2.5,2.5h65.6c1.5,0,2.5-1,2.5-2.5s-1-2.5-2.5-2.5h-8c-0.2-12.5-9.7-22.4-21.9-23.7
				V83.8c4.2-0.2,13.2-1.2,18.9-7.2c7.7-8,6.5-21.2,6.5-21.7c0-1.2-1-2.2-2.2-2.2c-0.5,0-13.7-0.7-21.4,7.2c-2,2-3.2,4.2-4.2,6.5
				c-1-2.5-2.5-4.7-4.5-6.7c-8-7.7-21.2-6.5-21.7-6.5c-1.2,0-2.2,1-2.2,2.2c0,0.5-0.7,13.7,7.2,21.4c6,5.7,14.7,6.5,19.2,6.5v10.7
				c-12.2,1.2-21.7,11.5-21.9,23.7h-8.7C69.9,118,68.9,119,68.9,120.5z M112,63.2c4.5-4.5,11.7-5.5,15.5-5.7c0,3.7-0.7,11-5.2,15.5
				c-4.5,4.5-11.7,5.5-15.2,5.7v-1C107,73.9,108,67.4,112,63.2z M86.3,73.4c-4.5-4.5-5.5-11.7-5.7-15.5c3.7,0,11,0.7,15.5,5.2
				s5.5,11.7,5.7,15.5C98.3,78.4,90.8,77.9,86.3,73.4z M104.5,99c10.5,0,19.2,8.5,19.4,18.9H84.8C85.3,107.5,93.8,99,104.5,99z"/>
		</g>
	</g>
</g>
</svg>
