<?xml version="1.0" encoding="utf-8"?>
<!-- Generator: Adobe Illustrator 24.1.1, SVG Export Plug-In . SVG Version: 6.00 Build 0)  -->
<svg version="1.1" xmlns="http://www.w3.org/2000/svg" xmlns:xlink="http://www.w3.org/1999/xlink" x="0px" y="0px"
	 viewBox="0 0 208.1 208.1" style="enable-background:new 0 0 208.1 208.1;" xml:space="preserve">
<style type="text/css">
	.st0{fill:#8EC044;}
	.st1{fill:#003433;}
	.st2{fill:none;stroke:url(#SVGID_2_);stroke-miterlimit:10;}
	.st3{fill:none;stroke:url(#SVGID_4_);stroke-miterlimit:10;}
	.st4{fill:#FFFFFF;}
	.st5{fill:url(#SVGID_5_);}
	.st6{fill:#013333;}
	.st7{fill:url(#SVGID_6_);}
	.st8{fill:url(#SVGID_7_);}
	.st9{fill:url(#SVGID_8_);}
	.st10{fill:none;stroke:#CCCCCC;stroke-width:21;stroke-miterlimit:10;}
	.st11{fill:none;stroke:#B2B2B2;stroke-width:8;stroke-miterlimit:10;}
	.st12{fill:none;stroke:#CCCCCC;stroke-width:12;stroke-miterlimit:10;}
	.st13{fill:none;stroke:#CCCCCC;stroke-width:55;stroke-miterlimit:10;}
	.st14{fill:#CCCCCC;}
	.st15{fill:#E6E6E6;}
	.st16{fill:#B3B3B3;}
	.st17{fill:#F2F2F2;}
	.st18{fill:none;stroke:#CCCCCC;stroke-width:13.8574;stroke-miterlimit:10;}
	.st19{fill-rule:evenodd;clip-rule:evenodd;fill:#808080;}
	.st20{fill-rule:evenodd;clip-rule:evenodd;fill:#FFFFFF;}
	.st21{fill:none;stroke:#CCCCCC;stroke-width:28;stroke-miterlimit:10;}
	.st22{fill:url(#SVGID_9_);}
	.st23{fill:none;stroke:#E6E6E6;stroke-miterlimit:10;}
	.st24{fill:url(#SVGID_10_);}
	.st25{fill:url(#SVGID_11_);}
	.st26{fill:#EDEDED;}
	.st27{fill:#F7EECF;}
	.st28{fill:none;stroke:#8EC044;stroke-width:8;stroke-miterlimit:10;}
	.st29{fill:none;stroke:#FFFFFF;stroke-width:8;stroke-miterlimit:10;}
	.st30{clip-path:url(#SVGID_35_);fill:#F7EECF;}
	.st31{clip-path:url(#SVGID_35_);}
	.st32{fill-rule:evenodd;clip-rule:evenodd;fill:#8EC044;}
	.st33{fill:url(#SVGID_38_);}
	.st34{fill:url(#SVGID_39_);}
	.st35{opacity:0.8;fill:#FFFFFF;}
	.st36{fill:none;stroke:#FFFFFF;stroke-width:0.4139;stroke-miterlimit:10;}
	.st37{opacity:0.87;fill:#FFFFFF;}
</style>
<g id="Camada_2">
</g>
<g id="Camada_1">
</g>
<g id="Camada_3">
	<g>
		<defs>
			<rect id="SVGID_3_" x="-2250.6" y="-559" width="1920" height="951"/>
		</defs>
		<clipPath id="SVGID_2_">
			<use xlink:href="#SVGID_3_"  style="overflow:visible;"/>
		</clipPath>
		<g transform="matrix(1 0 0 1 0 0)" style="clip-path:url(#SVGID_2_);">
			
				<image style="overflow:visible;" width="6000" height="4000" xlink:href="../../../../../../../../Downloads/pexels-pixabay-265242.jpg"  transform="matrix(0.4402 0 0 0.4402 -2611.2961 -584.0889)">
			</image>
		</g>
	</g>
	<g>
		<g>
			<path class="st1" d="M189.1,46.8c-3.7,0-7.1,1.4-9.7,3.7V31.1c0-8.8-6.9-16.2-15.4-16.5c-4.3-0.1-8.4,1.4-11.5,4.4
				c-0.3-3.9-2-7.5-4.8-10.2c-3.1-3-7.2-4.7-11.6-4.5c-7.3,0.2-13.4,5.7-15,12.8c-0.1-0.1-0.2-0.2-0.3-0.3c-3.1-3-7.2-4.7-11.6-4.5
				c-8.5,0.3-15.4,7.6-15.4,16.5v17.8c-1.7,0.7-3.2,1.7-4.6,3.1c-2.5,2.5-4,5.9-4.3,9.4L71.3,45.5c-6.2-6.2-16.4-6.6-22.6-0.7
				c-3.1,2.9-4.9,6.9-5,11.2c-2.9-2.5-6.7-3.8-10.6-3.8c-4.3,0.1-8.4,1.8-11.4,5c-5,5.3-5.5,13.5-1.6,19.6c-0.1,0-0.2,0-0.4,0
				c-4.3,0.1-8.4,1.8-11.4,5C2.7,88,3,98.1,9.2,104.4l30,30h-7.7c-8.2,0-17,5-17,15.9c0,8.8,7.1,15.9,15.9,15.9H71l36.8,36.8
				c0.5,0.5,1.1,0.7,1.8,0.7s1.3-0.3,1.8-0.7l32.2-32.2h32.3c1.4,0,2.5-1.1,2.5-2.5v-32l17.3-22.9c5.2-6.8,8-15.3,8-23.9l0-28
				C203.7,53.4,197.2,46.8,189.1,46.8z M109.6,197.7l-13.4-13.4l2.8-2.8c1-1,1-2.6,0-3.5s-2.6-1-3.5,0l-2.8,2.8l-18.9-18.9
				c-0.5-0.5-1.1-0.7-1.8-0.7H30.4c-6,0-10.9-4.9-10.9-10.9c0-8.1,6.5-10.9,12-10.9h13.7c1,0,1.9-0.6,2.3-1.5c0.4-0.9,0.2-2-0.5-2.7
				l-34.2-34.2c-4.4-4.4-4.6-11.4-0.6-15.6c2-2.2,4.8-3.4,7.8-3.4c3,0,5.8,1.1,7.9,3.2l21.5,21.5c0.5,0.5,1.1,0.7,1.8,0.7
				c0.6,0,1.3-0.2,1.8-0.7c1-1,1-2.6,0-3.5L31.3,81.5l-5.3-5.3c-4.4-4.4-4.6-11.4-0.6-15.6c2-2.2,4.8-3.4,7.8-3.4
				c3,0,5.8,1.1,7.9,3.2l7.3,7.3l19.9,19.9c0.5,0.5,1.1,0.7,1.8,0.7c0.6,0,1.3-0.2,1.8-0.7c1-1,1-2.6,0-3.5L52,64.1
				c-2.1-2.1-3.2-4.9-3.2-7.9c0-3,1.3-5.8,3.4-7.8c4.3-4,11.3-3.7,15.6,0.6l21.4,21.4l15.9,15.9c0.5,0.5,1.1,0.7,1.8,0.7
				s1.3-0.2,1.8-0.7c1-1,1-2.6,0-3.5L92.8,67c-1.8-1.8-2.8-4.3-2.8-6.8c0-2.6,1-5,2.8-6.8c3.8-3.8,9.9-3.8,13.7,0l19.8,19.8
				c5.3,5.3,8.8,12.3,9.8,19.7l4.1,29.3c0.1,0.5,0.3,1,0.7,1.4l4.6,4.6l-2.8,2.8c-1,1-1,2.6,0,3.5c0.5,0.5,1.1,0.7,1.8,0.7
				s1.3-0.2,1.8-0.7l2.8-2.8l13.4,13.3l-21.5,21.5c0,0,0,0,0,0L109.6,197.7z M148.6,165.8l18.9-18.9h5.9v18.9H148.6z M198.7,89.5
				c0,7.5-2.5,14.9-7,20.9l-17.8,23.6c-0.3,0.4-0.5,1-0.5,1.5v6.5h-7.1L145,120.6L141,92.1c0,0,0,0,0,0c-1.2-8.5-5.2-16.5-11.2-22.6
				L110,49.7c-3.1-3.1-7.1-4.4-11.2-4.2V28.8c0-6.2,4.8-11.3,10.6-11.5c3-0.1,5.8,1,8,3.1c2.1,2.1,3.3,4.9,3.3,7.8v22.9
				c0,1.4,1.1,2.5,2.5,2.5c1.4,0,2.5-1.1,2.5-2.5V28.3v-7.4c0-6.2,4.8-11.3,10.6-11.5c3-0.1,5.8,1,8,3.1c2.1,2.1,3.3,4.9,3.3,7.8
				v10.3v20.6c0,1.4,1.1,2.5,2.5,2.5s2.5-1.1,2.5-2.5V30.6c0-3,1.2-5.8,3.3-7.8c2.1-2.1,4.9-3.2,8-3.1c5.8,0.2,10.6,5.3,10.6,11.5
				v30.3V84c0,1.4,1.1,2.5,2.5,2.5c1.4,0,2.5-1.1,2.5-2.5V61.4c0-5.3,4.3-9.7,9.7-9.7c5.3,0,9.7,4.3,9.7,9.7L198.7,89.5z"/>
			<path class="st1" d="M108.5,165.1l-4.6,4.6c-1,1-1,2.6,0,3.5c0.5,0.5,1.1,0.7,1.8,0.7s1.3-0.2,1.8-0.7l4.6-4.6c1-1,1-2.6,0-3.5
				C111,164.2,109.5,164.2,108.5,165.1z"/>
			<path class="st1" d="M121.4,152.2l-4.6,4.6c-1,1-1,2.6,0,3.5c0.5,0.5,1.1,0.7,1.8,0.7s1.3-0.2,1.8-0.7l4.6-4.6c1-1,1-2.6,0-3.5
				C123.9,151.2,122.4,151.2,121.4,152.2z"/>
			<path class="st1" d="M134.3,139.3l-4.6,4.6c-1,1-1,2.6,0,3.5c0.5,0.5,1.1,0.7,1.8,0.7c0.6,0,1.3-0.2,1.8-0.7l4.6-4.6
				c1-1,1-2.6,0-3.5S135.3,138.3,134.3,139.3z"/>
		</g>
	</g>
</g>
</svg>
