<?xml version="1.0" encoding="utf-8"?>
<!-- Generator: Adobe Illustrator 24.1.1, SVG Export Plug-In . SVG Version: 6.00 Build 0)  -->
<svg version="1.1" xmlns="http://www.w3.org/2000/svg" xmlns:xlink="http://www.w3.org/1999/xlink" x="0px" y="0px"
	 viewBox="0 0 208.1 208.1" style="enable-background:new 0 0 208.1 208.1;" xml:space="preserve">
<style type="text/css">
	.st0{fill:#8EC044;}
	.st1{fill:#003433;}
	.st2{fill:none;stroke:url(#SVGID_2_);stroke-miterlimit:10;}
	.st3{fill:none;stroke:url(#SVGID_4_);stroke-miterlimit:10;}
	.st4{fill:#FFFFFF;}
	.st5{fill:url(#SVGID_5_);}
	.st6{fill:#013333;}
	.st7{fill:url(#SVGID_6_);}
	.st8{fill:url(#SVGID_7_);}
	.st9{fill:url(#SVGID_8_);}
	.st10{fill:none;stroke:#CCCCCC;stroke-width:21;stroke-miterlimit:10;}
	.st11{fill:none;stroke:#B2B2B2;stroke-width:8;stroke-miterlimit:10;}
	.st12{fill:none;stroke:#CCCCCC;stroke-width:12;stroke-miterlimit:10;}
	.st13{fill:none;stroke:#CCCCCC;stroke-width:55;stroke-miterlimit:10;}
	.st14{fill:#CCCCCC;}
	.st15{fill:#E6E6E6;}
	.st16{fill:#B3B3B3;}
	.st17{fill:#F2F2F2;}
	.st18{fill:none;stroke:#CCCCCC;stroke-width:13.8574;stroke-miterlimit:10;}
	.st19{fill-rule:evenodd;clip-rule:evenodd;fill:#808080;}
	.st20{fill-rule:evenodd;clip-rule:evenodd;fill:#FFFFFF;}
	.st21{fill:none;stroke:#CCCCCC;stroke-width:28;stroke-miterlimit:10;}
	.st22{fill:url(#SVGID_9_);}
	.st23{fill:none;stroke:#E6E6E6;stroke-miterlimit:10;}
	.st24{fill:url(#SVGID_10_);}
	.st25{fill:url(#SVGID_11_);}
	.st26{fill:#EDEDED;}
	.st27{fill:#F7EECF;}
	.st28{fill:none;stroke:#8EC044;stroke-width:8;stroke-miterlimit:10;}
	.st29{fill:none;stroke:#FFFFFF;stroke-width:8;stroke-miterlimit:10;}
	.st30{clip-path:url(#SVGID_35_);fill:#F7EECF;}
	.st31{clip-path:url(#SVGID_35_);}
	.st32{fill-rule:evenodd;clip-rule:evenodd;fill:#8EC044;}
	.st33{fill:url(#SVGID_38_);}
	.st34{fill:url(#SVGID_39_);}
	.st35{opacity:0.8;fill:#FFFFFF;}
	.st36{fill:none;stroke:#FFFFFF;stroke-width:0.4139;stroke-miterlimit:10;}
	.st37{opacity:0.87;fill:#FFFFFF;}
</style>
<g id="Camada_2">
</g>
<g id="Camada_1">
</g>
<g id="Camada_3">
	<g>
		<g>
			<path class="st1" d="M31.6,203.7c15.2,0,27.6-12.4,27.6-27.6c0-2.3-0.3-4.5-0.8-6.6h52.7c5.7,19.7,23.9,34.2,45.5,34.2
				c26.1,0,47.4-21.3,47.4-47.4c0-18.8-11.1-35.1-27-42.7V84.2c0-5.9-3.9-10.8-9.2-12.4V33.4h6.7c1.4,0,2.5-1.1,2.5-2.5V6.8
				c0-1.4-1.1-2.5-2.5-2.5H81.8c-1.4,0-2.5,1.1-2.5,2.5v24.1c0,1.4,1.1,2.5,2.5,2.5h5.1l-7.2,38L32,78.8c-6.8,1-11.9,6.9-11.9,13.8
				v40.1h-5.4c-1.4,0-2.5,1.1-2.5,2.5v21.6c-5,5-8.1,11.9-8.1,19.5C4.1,191.4,16.4,203.7,31.6,203.7z M199,156.3
				c0,23.4-19,42.4-42.4,42.4c-23.4,0-42.4-19-42.4-42.4c0-23.4,19-42.4,42.4-42.4C180,113.9,199,133,199,156.3z M84.3,9.3H172v19.1
				H84.3V9.3z M162.8,33.4v37.7h-35.4c-1.4,0-2.5,1.1-2.5,2.5v24.6c0,5-4.1,9-9,9H93.3c-5,0-9-4.1-9-9V73.8L92,33.4H162.8z
				 M25.1,92.5c0-4.4,3.3-8.2,7.7-8.9l46.5-7.2v21.7c0,7.7,6.3,14,14,14h22.6c7.7,0,14-6.3,14-14V76.1h34c4.5,0,8.1,3.6,8.1,8.1
				v27.4c-4.8-1.7-10-2.6-15.4-2.6c-17.5,0-32.8,9.6-41,23.7H25.1V92.5z M113.1,137.6c-2.5,5.7-3.9,12.1-3.9,18.7
				c0,2.8,0.3,5.5,0.8,8.2H56.7c0,0-0.1,0-0.1,0c-4.4-9.4-13.9-16-25-16c-5.3,0-10.3,1.5-14.5,4.2v-15.1H113.1z M31.6,153.6
				c12.4,0,22.6,10.1,22.6,22.6c0,12.4-10.1,22.6-22.6,22.6S9.1,188.6,9.1,176.2C9.1,163.7,19.2,153.6,31.6,153.6z"/>
			<path class="st1" d="M127.1,156.3c0,16.3,13.2,29.5,29.5,29.5s29.5-13.2,29.5-29.5s-13.2-29.5-29.5-29.5S127.1,140.1,127.1,156.3
				z M181.1,156.3c0,13.5-11,24.5-24.5,24.5c-13.5,0-24.5-11-24.5-24.5c0-13.5,11-24.5,24.5-24.5
				C170.1,131.8,181.1,142.8,181.1,156.3z"/>
		</g>
	</g>
</g>
</svg>
