<?xml version="1.0" encoding="utf-8"?>
<!-- Generator: Adobe Illustrator 24.1.1, SVG Export Plug-In . SVG Version: 6.00 Build 0)  -->
<svg version="1.1" xmlns="http://www.w3.org/2000/svg" xmlns:xlink="http://www.w3.org/1999/xlink" x="0px" y="0px"
	 viewBox="0 0 208.1 208.1" style="enable-background:new 0 0 208.1 208.1;" xml:space="preserve">
<style type="text/css">
	.st0{fill:#8EC044;}
	.st1{fill:#003433;}
	.st2{fill:none;stroke:url(#SVGID_2_);stroke-miterlimit:10;}
	.st3{fill:none;stroke:url(#SVGID_4_);stroke-miterlimit:10;}
	.st4{fill:#FFFFFF;}
	.st5{fill:url(#SVGID_5_);}
	.st6{fill:#013333;}
	.st7{fill:url(#SVGID_6_);}
	.st8{fill:url(#SVGID_7_);}
	.st9{fill:url(#SVGID_8_);}
	.st10{fill:none;stroke:#CCCCCC;stroke-width:21;stroke-miterlimit:10;}
	.st11{fill:none;stroke:#B2B2B2;stroke-width:8;stroke-miterlimit:10;}
	.st12{fill:none;stroke:#CCCCCC;stroke-width:12;stroke-miterlimit:10;}
	.st13{fill:none;stroke:#CCCCCC;stroke-width:55;stroke-miterlimit:10;}
	.st14{fill:#CCCCCC;}
	.st15{fill:#E6E6E6;}
	.st16{fill:#B3B3B3;}
	.st17{fill:#F2F2F2;}
	.st18{fill:none;stroke:#CCCCCC;stroke-width:13.8574;stroke-miterlimit:10;}
	.st19{fill-rule:evenodd;clip-rule:evenodd;fill:#808080;}
	.st20{fill-rule:evenodd;clip-rule:evenodd;fill:#FFFFFF;}
	.st21{fill:none;stroke:#CCCCCC;stroke-width:28;stroke-miterlimit:10;}
	.st22{fill:url(#SVGID_9_);}
	.st23{fill:none;stroke:#E6E6E6;stroke-miterlimit:10;}
	.st24{fill:url(#SVGID_10_);}
	.st25{fill:url(#SVGID_11_);}
	.st26{fill:#EDEDED;}
	.st27{fill:#F7EECF;}
	.st28{fill:none;stroke:#8EC044;stroke-width:8;stroke-miterlimit:10;}
	.st29{fill:none;stroke:#FFFFFF;stroke-width:8;stroke-miterlimit:10;}
	.st30{clip-path:url(#SVGID_35_);fill:#F7EECF;}
	.st31{clip-path:url(#SVGID_35_);}
	.st32{fill-rule:evenodd;clip-rule:evenodd;fill:#8EC044;}
	.st33{fill:url(#SVGID_38_);}
	.st34{fill:url(#SVGID_39_);}
	.st35{opacity:0.8;fill:#FFFFFF;}
	.st36{fill:none;stroke:#FFFFFF;stroke-width:0.4139;stroke-miterlimit:10;}
	.st37{opacity:0.87;fill:#FFFFFF;}
</style>
<g id="Camada_2">
</g>
<g id="Camada_1">
</g>
<g id="Camada_3">
	<g>
		<g>
			<path class="st1" d="M110.8,161.5c28.9,0,52.3-25.5,52.3-56.8c0-23.6-13.4-43.9-32.3-52.5c-0.1-4.2-1.6-8.1-4-11.3l3.6-3.4
				c2,1.3,4.3,2,6.8,2c0,0,0,0,0,0c3.3,0,6.4-1.3,8.8-3.6c4.8-4.9,4.8-12.7,0-17.6c-2.3-2.4-5.5-3.6-8.8-3.6c0,0,0,0,0,0
				c-3.3,0-6.4,1.3-8.8,3.6c-4.2,4.2-4.7,10.7-1.7,15.5l-3.5,3.4c-3.4-2.7-7.7-4.3-12.3-4.3c-4.8,0-9.2,1.7-12.6,4.5l-4.5-4.5
				c2.5-4.7,1.8-10.7-2.1-14.6c-2.3-2.4-5.5-3.6-8.8-3.6c0,0,0,0,0,0c-3.3,0-6.4,1.3-8.8,3.6c-4.8,4.9-4.8,12.7,0,17.6
				c2.3,2.4,5.5,3.6,8.8,3.6c0,0,0,0,0,0c2.8,0,5.4-1,7.6-2.6l4.3,4.3c-2.2,3.1-3.6,6.8-3.8,10.9C72,60.6,58.5,81,58.5,104.7
				C58.5,136,82,161.5,110.8,161.5z M69.5,129.5c1.6-1.3,3.5-2,5.6-2c5,0,9.1,4.1,9.1,9.1c0,3-1.4,5.7-3.8,7.4
				C76.1,140,72.3,135.1,69.5,129.5z M95.7,153.5c7.7-2.3,12.6-7.3,15.2-10.8c2.6,3.5,7.5,8.5,15.2,10.8c-4.8,1.8-9.9,2.8-15.2,2.8
				C105.5,156.3,100.4,155.3,95.7,153.5z M141,144.3c-2.5-1.7-4.1-4.5-4.1-7.6c0-5,4.1-9.1,9.1-9.1c2.2,0,4.3,0.8,5.9,2.3
				C149.2,135.3,145.5,140.2,141,144.3z M154.2,124.9c-2.4-1.7-5.2-2.6-8.2-2.6c-7.9,0-14.3,6.4-14.3,14.3c0,4.3,1.9,8.3,5.2,11
				c-0.9,0.7-1.9,1.3-2.9,1.9c-13.1-0.4-19.3-10-20.6-12.3V53.2c4.6,0.3,9,1.2,13.1,2.9c-1.8,2.5-2.9,5.5-2.9,8.6
				c0,7.9,6.4,14.3,14.3,14.3c4.2,0,8.1-1.8,10.7-4.9c5.8,8.6,9.3,19.2,9.3,30.7C158,111.8,156.7,118.7,154.2,124.9z M145.5,69.7
				c-1.7,2.5-4.5,4-7.5,4c-5,0-9.1-4.1-9.1-9.1c0-2.4,1-4.6,2.6-6.3C136.8,61.1,141.5,65,145.5,69.7z M132.1,21.9
				C132.1,21.9,132.1,21.9,132.1,21.9c1.4-1.4,3.2-2.1,5.1-2.1c1.9,0,3.8,0.8,5.1,2.1c2.8,2.8,2.8,7.4,0,10.3
				c-1.4,1.4-3.2,2.1-5.1,2.1s-3.8-0.8-5.1-2.1C129.3,29.3,129.3,24.7,132.1,21.9z M82.9,34.3c-1.9,0-3.8-0.8-5.1-2.1
				c-2.8-2.8-2.8-7.4,0-10.3c0,0,0,0,0,0c1.4-1.4,3.2-2.1,5.1-2.1c1.9,0,3.8,0.8,5.1,2.1c2.8,2.8,2.8,7.4,0,10.3
				C86.6,33.5,84.8,34.3,82.9,34.3z M110.9,38c7.2,0,13.2,5.2,14.5,12.1c-4.6-1.5-9.5-2.3-14.6-2.3c-5,0-9.8,0.8-14.4,2.2
				C97.7,43.2,103.7,38,110.9,38z M89.9,58.4c1.5,1.7,2.4,3.9,2.4,6.2c0,5-4.1,9.1-9.1,9.1c-2.9,0-5.6-1.4-7.3-3.7
				C79.9,65.3,84.6,61.3,89.9,58.4z M72.8,74.3c2.7,2.9,6.5,4.6,10.5,4.6c7.9,0,14.3-6.4,14.3-14.3c0-3.1-1-6-2.8-8.4
				c4.2-1.7,8.7-2.7,13.4-3v84.1c-1.3,2.3-7.7,11.9-20.6,12.3c-1.1-0.7-2.1-1.3-3.1-2.1c3.1-2.7,5-6.6,5-10.8
				c0-7.9-6.4-14.3-14.3-14.3c-2.8,0-5.5,0.8-7.8,2.3c-2.4-6.2-3.7-12.9-3.7-20C63.7,93.3,67.1,82.8,72.8,74.3z"/>
			<path class="st1" d="M86.9,115c7.9,0,14.3-6.4,14.3-14.3c0-7.9-6.4-14.3-14.3-14.3s-14.3,6.4-14.3,14.3
				C72.6,108.5,79,115,86.9,115z M86.9,91.5c5,0,9.1,4.1,9.1,9.1c0,5-4.1,9.1-9.1,9.1c-5,0-9.1-4.1-9.1-9.1
				C77.7,95.6,81.8,91.5,86.9,91.5z"/>
			<path class="st1" d="M134.8,86.3c-7.9,0-14.3,6.4-14.3,14.3c0,7.9,6.4,14.3,14.3,14.3s14.3-6.4,14.3-14.3
				C149.1,92.7,142.7,86.3,134.8,86.3z M134.8,109.8c-5,0-9.1-4.1-9.1-9.1c0-5,4.1-9.1,9.1-9.1c5,0,9.1,4.1,9.1,9.1
				C143.9,105.7,139.9,109.8,134.8,109.8z"/>
			<path class="st1" d="M205,175.4h-17.5V20.4c0-10.2-7.6-18.9-17.3-19.8c-0.2,0-0.7-0.1-152-0.2c0,0,0,0,0,0c0,0,0,0,0,0
				c-0.1,0-0.2,0-0.3,0C8.3,0.4,0.4,8.3,0.4,18v14.5c0,1.4,1.2,2.6,2.6,2.6h26.6v152.2c0,11.1,9,20.2,20,20.2l1.6,0.1
				c0,0,0.1,0,0.1,0h0h136.1c11.2,0,20.2-9.1,20.2-20.3V178C207.6,176.5,206.5,175.4,205,175.4z M5.6,29.9V18
				c0-6.8,5.5-12.4,12.3-12.4c0,0,0.1,0,0.3,0c6.3,0,11.4,5.1,11.4,11.4v12.9H5.6z M51.3,202.4l-1.6-0.1c-8.2-0.1-14.9-6.8-14.9-15
				V17c0-4.4-1.7-8.4-4.6-11.4c35.8,0,137.7,0.1,139.5,0.1c7.1,0.7,12.6,7.1,12.6,14.7v154.9H68.9c-1.4,0-2.6,1.2-2.6,2.6v9.4
				C66.3,195.7,59.6,202.4,51.3,202.4z M202.4,187.3c0,8.3-6.8,15.1-15.1,15.1H64.8c4.1-3.7,6.8-9.1,6.8-15.1v-6.8h130.9V187.3z"/>
		</g>
	</g>
</g>
</svg>
