<?xml version="1.0" encoding="utf-8"?>
<!-- Generator: Adobe Illustrator 24.1.1, SVG Export Plug-In . SVG Version: 6.00 Build 0)  -->
<svg version="1.1" xmlns="http://www.w3.org/2000/svg" xmlns:xlink="http://www.w3.org/1999/xlink" x="0px" y="0px"
	 viewBox="0 0 666.1 230.5" style="enable-background:new 0 0 666.1 230.5;" xml:space="preserve">
<style type="text/css">
	.st0{fill:#8EC044;}
	.st1{fill:#003433;}
	.st2{fill:none;stroke:url(#SVGID_2_);stroke-miterlimit:10;}
	.st3{fill:none;stroke:url(#SVGID_4_);stroke-miterlimit:10;}
	.st4{fill:#FFFFFF;}
	.st5{fill:url(#SVGID_5_);}
	.st6{fill:#013333;}
	.st7{fill:url(#SVGID_6_);}
	.st8{fill:url(#SVGID_7_);}
	.st9{fill:url(#SVGID_8_);}
	.st10{fill:none;stroke:#CCCCCC;stroke-width:21;stroke-miterlimit:10;}
	.st11{fill:none;stroke:#B2B2B2;stroke-width:8;stroke-miterlimit:10;}
	.st12{fill:none;stroke:#CCCCCC;stroke-width:12;stroke-miterlimit:10;}
	.st13{fill:none;stroke:#CCCCCC;stroke-width:55;stroke-miterlimit:10;}
	.st14{fill:#CCCCCC;}
	.st15{fill:#E6E6E6;}
	.st16{fill:#B3B3B3;}
	.st17{fill:#F2F2F2;}
	.st18{fill:none;stroke:#CCCCCC;stroke-width:13.8574;stroke-miterlimit:10;}
	.st19{fill-rule:evenodd;clip-rule:evenodd;fill:#808080;}
	.st20{fill-rule:evenodd;clip-rule:evenodd;fill:#FFFFFF;}
	.st21{fill:none;stroke:#CCCCCC;stroke-width:28;stroke-miterlimit:10;}
	.st22{fill:url(#SVGID_9_);}
	.st23{fill:none;stroke:#E6E6E6;stroke-miterlimit:10;}
	.st24{fill:url(#SVGID_10_);}
	.st25{fill:url(#SVGID_11_);}
	.st26{fill:#EDEDED;}
	.st27{fill:#F7EECF;}
	.st28{fill:none;stroke:#8EC044;stroke-width:8;stroke-miterlimit:10;}
	.st29{fill:none;stroke:#FFFFFF;stroke-width:8;stroke-miterlimit:10;}
	.st30{clip-path:url(#SVGID_35_);fill:#F7EECF;}
	.st31{clip-path:url(#SVGID_35_);}
	.st32{fill-rule:evenodd;clip-rule:evenodd;fill:#8EC044;}
	.st33{fill:url(#SVGID_38_);}
	.st34{fill:url(#SVGID_39_);}
	.st35{opacity:0.8;fill:#FFFFFF;}
	.st36{fill:none;stroke:#FFFFFF;stroke-width:0.4139;stroke-miterlimit:10;}
	.st37{opacity:0.87;fill:#FFFFFF;}
</style>
<g id="Camada_2">
</g>
<g id="Camada_1">
</g>
<g id="Camada_3">
	<g>
		<g>
			<path class="st0" d="M175.8,5.3c-33.1,0-57.9,25-57.9,55.7v0.3c0,30.8,24.5,55.4,57.6,55.4c33.1,0,57.9-25,57.9-55.7v-0.3
				C233.4,30,208.9,5.3,175.8,5.3z M203.1,61.4c0,15.5-10.9,28.6-27.3,28.6c-16.2,0-27.4-13.5-27.4-28.9v-0.3
				c0-15.5,10.9-28.6,27.1-28.6c16.4,0,27.6,13.5,27.6,28.9V61.4z"/>
			<path class="st0" d="M297.7,5.3c-33.1,0-57.9,25-57.9,55.7v0.3c0,30.8,24.5,55.4,57.6,55.4s57.9-25,57.9-55.7v-0.3
				C355.2,30,330.7,5.3,297.7,5.3z M324.9,61.4c0,15.5-10.9,28.6-27.3,28.6c-16.2,0-27.4-13.5-27.4-28.9v-0.3
				c0-15.5,10.9-28.6,27.1-28.6c16.4,0,27.6,13.5,27.6,28.9V61.4z"/>
			<path class="st0" d="M413,7.5H370c-1.6,0-3,1.3-3,3v101.2c0,1.7,1.3,3,3,3h23.7c1.6,0,3-1.3,3-3V88.8c0-1.6,1.3-3,3-3h11.7
				c26.6,0,46.1-15.1,46.1-40.4v-0.3C457.6,21.4,440.1,7.5,413,7.5z M427.8,46.8c0,7.6-6.4,12.5-17,12.5h-11.1c-1.6,0-3-1.3-3-3
				V36.8c0-1.6,1.3-3,3-3h11c10.7,0,17.1,4.4,17.1,12.7V46.8z"/>
			<path class="st1" d="M564.4,110.5l-15.7-37.1c-33.3,21.6-65.2,17.5-65.2,17.5s10.3-11.1,12-27.2c1.2-10.4,5.3-30.3,29.8-45.5
				l-4.1-9.7c-0.5-1.1-1.6-1.8-2.8-1.8h-24.7c-1.2,0-2.3,0.7-2.7,1.8l-43.1,102c-0.8,2,0.6,4.2,2.8,4.2h26.7c1.1,0,2.2-0.6,2.7-1.6
				l6-12c0.5-1,1.5-1.6,2.7-1.6h34.1c1.1,0,2.1,0.6,2.7,1.6l6.1,12c0.5,1,1.5,1.6,2.7,1.6h27.3C563.8,114.6,565.3,112.5,564.4,110.5
				z"/>
			<path class="st0" d="M662.4,109.8l-21.7-27.5c-1-1.3-0.8-3.1,0.5-4.2c13.4-11.2,15.8-23,15.8-34.1c0-5.6-1.1-10.2-3-14.2
				c-2.4-0.5-7.6-1.4-16.2-1.4c-8.1,0-16,1.6-24.1,4.7h1.7c8.4,0,13.5,4.1,13.5,12.2v0.3c0,7.5-4.9,12.2-13.4,12.2h-13.5
				c-1.6,0-3-1.3-3-3v-15c-9.2,5-19,11.4-29.7,18.9v52.8c0,1.7,1.3,3,3,3h23.7c1.6,0,3-1.3,3-3V88c0-1.6,1.3-3,2.9-3l5.9-0.1
				c1,0,1.9,0.4,2.5,1.2l19.8,27.3c0.6,0.8,1.5,1.2,2.4,1.2h27.5C662.6,114.6,664,111.8,662.4,109.8z"/>
			<path class="st0" d="M61,88.8c-15,0-27.3-12.6-27.4-28.2C33.8,45,46.1,32.4,61,32.4c9.7,0,18.8,2.5,26.2,14.4
				c0.8,1.2,2.3,1.8,3.7,1.3l20.3-7.7c1.7-0.7,2.5-2.7,1.5-4.3C100.1,14.3,80.5,5.3,59.6,5.3C27.2,5.3,3.3,29.6,3.1,60.6
				c0.2,31,24.2,55.3,56.5,55.3c20.9,0,40.5-9,53.1-30.8c0.9-1.6,0.2-3.6-1.5-4.3l-20.3-7.7c-1.4-0.5-2.9,0-3.7,1.3
				C79.9,86.3,70.7,88.8,61,88.8z"/>
			<linearGradient id="SVGID_2_" gradientUnits="userSpaceOnUse" x1="514.1062" y1="69.3441" x2="607.4533" y2="12.4251">
				<stop  offset="0" style="stop-color:#2C8439"/>
				<stop  offset="1" style="stop-color:#8EC044"/>
			</linearGradient>
			<path style="fill:url(#SVGID_2_);" d="M650.7,23.9c-0.3-0.4-1.5-1.9-3.4-3.6c-3.7-3.2-10.1-7.4-18.8-7.4
				c-23.1,0-32,15.7-59.1,38.8c-0.8,0.7-1.6,1.3-2.4,2c0,0-0.1,0.1-0.1,0.1c0,0-0.1,0-0.1,0.1c0,0,0,0,0,0c-2.5,2.1-5.1,4.2-7.9,6.3
				c-4.2,3.2-8.2,6-12.2,8.5c-30,18.6-52.9,16.5-52.9,16.5s2.2-4.9,7.6-12.7c2.8-4,6.4-8.8,11-14.1c2.7-3.1,5.7-6.3,9-9.7
				c3.8-3.8,8.1-7.2,12.5-10.1c13.2-8.7,27.7-13.3,35.4-15.4c3.5-0.9,5.6-1.3,5.6-1.3s-2.1-0.2-5.6-0.1c-7.5,0.3-21.5,2-35.5,9.9
				c-0.8,0.4-1.5,0.9-2.3,1.3c-9.7,5.8-17.3,12.3-22.4,17.3c-4.9,4.8-7.4,8.1-7.4,8.1c0.6-3.9,1.9-7.7,3.6-11.2
				c4.5-9.3,12.3-17.3,22.2-23.8c18.2-12,43.3-18.9,66.5-18.9c15.9,0,27.7,2.4,36.2,5.5c6.1,2.2,10.6,4.9,13.7,7.2
				C648.5,20.5,650.4,23.3,650.7,23.9z"/>
			<path class="st6" d="M650.8,24C650.8,24,650.8,24,650.8,24c-0.1,0-0.2,0-0.4,0c-2.8-0.3-13.1-1.1-30.4,1.9
				c-17,3-42.4,20.3-50.6,26.1c-1.2,0.9-2,1.5-2.4,1.7c0.8-0.7,1.6-1.4,2.4-2c27.1-23.1,36-38.8,59.1-38.8c8.8,0,15.2,4.2,18.8,7.4
				C649.2,22,650.4,23.5,650.8,24C650.7,23.9,650.8,24,650.8,24z"/>
		</g>
		<g>
			<path class="st1" d="M21.2,164.6c-1.3,0-2.6-0.2-3.7-0.7c-1.1-0.5-2.1-1.1-3-1.9c-0.8-0.8-1.5-1.8-2-2.9
				c-0.5-1.1-0.7-2.3-0.7-3.5c0-1.3,0.2-2.5,0.7-3.6c0.5-1.1,1.1-2,2-2.9c0.9-0.8,1.9-1.5,3-1.9c1.1-0.5,2.4-0.7,3.7-0.7
				c1,0,1.9,0.1,2.8,0.4c0.9,0.3,1.8,0.7,2.6,1.2c0.8,0.5,1.5,1.1,2,1.8l-2.9,2.8c-0.6-0.8-1.3-1.4-2.1-1.7
				c-0.8-0.4-1.6-0.6-2.5-0.6c-0.7,0-1.4,0.1-2,0.4c-0.6,0.3-1.1,0.6-1.6,1.1c-0.4,0.4-0.8,1-1,1.6c-0.2,0.6-0.4,1.3-0.4,2
				c0,0.7,0.1,1.4,0.4,2c0.3,0.6,0.6,1.1,1.1,1.6c0.5,0.5,1,0.8,1.6,1.1c0.6,0.2,1.3,0.4,2,0.4c0.8,0,1.6-0.2,2.4-0.5
				c0.7-0.4,1.4-0.9,2-1.6l2.8,2.8c-0.5,0.7-1.2,1.3-2,1.8c-0.8,0.5-1.6,0.9-2.5,1.2C23,164.4,22.1,164.6,21.2,164.6z"/>
			<path class="st1" d="M39.1,164.6c-1.3,0-2.5-0.2-3.7-0.7c-1.1-0.5-2.1-1.1-3-1.9c-0.8-0.8-1.5-1.8-2-2.9
				c-0.5-1.1-0.7-2.3-0.7-3.5s0.2-2.4,0.7-3.5c0.5-1.1,1.1-2,2-2.9c0.8-0.8,1.8-1.5,3-1.9c1.1-0.5,2.4-0.7,3.7-0.7
				c1.3,0,2.5,0.2,3.7,0.7c1.1,0.5,2.1,1.1,3,1.9c0.8,0.8,1.5,1.8,2,2.9c0.5,1.1,0.7,2.3,0.7,3.5s-0.2,2.4-0.7,3.5
				c-0.5,1.1-1.1,2-2,2.9c-0.8,0.8-1.8,1.5-3,1.9C41.7,164.4,40.5,164.6,39.1,164.6z M39.1,160.7c0.7,0,1.3-0.1,1.9-0.4
				c0.6-0.3,1.1-0.6,1.6-1.1c0.4-0.4,0.8-1,1-1.6c0.2-0.6,0.4-1.3,0.4-2c0-0.7-0.1-1.4-0.4-2c-0.2-0.6-0.6-1.1-1-1.6
				c-0.4-0.4-1-0.8-1.6-1.1c-0.6-0.3-1.2-0.4-1.9-0.4c-0.7,0-1.3,0.1-1.9,0.4s-1.1,0.6-1.6,1.1c-0.4,0.4-0.8,1-1,1.6
				c-0.2,0.6-0.4,1.3-0.4,2c0,0.7,0.1,1.4,0.4,2c0.2,0.6,0.6,1.2,1,1.6c0.4,0.4,1,0.8,1.6,1.1C37.8,160.5,38.4,160.7,39.1,160.7z"/>
			<path class="st1" d="M60,164.6c-1.3,0-2.5-0.2-3.7-0.7c-1.1-0.5-2.1-1.1-3-1.9c-0.8-0.8-1.5-1.8-2-2.9c-0.5-1.1-0.7-2.3-0.7-3.5
				s0.2-2.4,0.7-3.5c0.5-1.1,1.1-2,2-2.9c0.8-0.8,1.8-1.5,3-1.9c1.1-0.5,2.4-0.7,3.7-0.7c1.3,0,2.5,0.2,3.7,0.7
				c1.1,0.5,2.1,1.1,3,1.9c0.8,0.8,1.5,1.8,2,2.9c0.5,1.1,0.7,2.3,0.7,3.5s-0.2,2.4-0.7,3.5c-0.5,1.1-1.1,2-2,2.9
				c-0.8,0.8-1.8,1.5-3,1.9C62.5,164.4,61.3,164.6,60,164.6z M60,160.7c0.7,0,1.3-0.1,1.9-0.4c0.6-0.3,1.1-0.6,1.6-1.1
				c0.4-0.4,0.8-1,1-1.6c0.2-0.6,0.4-1.3,0.4-2c0-0.7-0.1-1.4-0.4-2c-0.2-0.6-0.6-1.1-1-1.6c-0.4-0.4-1-0.8-1.6-1.1
				c-0.6-0.3-1.2-0.4-1.9-0.4c-0.7,0-1.3,0.1-1.9,0.4s-1.1,0.6-1.6,1.1c-0.4,0.4-0.8,1-1,1.6c-0.2,0.6-0.4,1.3-0.4,2
				c0,0.7,0.1,1.4,0.4,2c0.2,0.6,0.6,1.2,1,1.6c0.4,0.4,1,0.8,1.6,1.1C58.6,160.5,59.3,160.7,60,160.7z"/>
			<path class="st1" d="M72.1,164.3v-17.5h9.2c1.1,0,2.2,0.2,3.1,0.7c0.9,0.5,1.6,1.2,2.1,2c0.5,0.8,0.8,1.8,0.8,2.9
				c0,1-0.3,2-0.8,2.8c-0.5,0.8-1.2,1.5-2.1,2c-0.9,0.5-1.9,0.7-3,0.7h-4.9v6.3H72.1z M76.4,154.5h4.4c0.6,0,1.1-0.2,1.5-0.5
				c0.4-0.4,0.6-0.8,0.6-1.4c0-0.6-0.2-1.1-0.6-1.5c-0.4-0.4-0.9-0.6-1.5-0.6h-4.4V154.5z"/>
			<path class="st1" d="M89.9,164.3v-17.5h13.8v3.7h-9.5v3.1h6.3v3.6h-6.3v3.3h9.6v3.7H89.9z"/>
			<path class="st1" d="M106.8,164.3v-17.5h8.9c1.2,0,2.3,0.2,3.2,0.7c0.9,0.5,1.7,1.1,2.2,2c0.5,0.8,0.8,1.8,0.8,2.9
				c0,1.1-0.3,2.1-0.9,2.9c-0.6,0.9-1.4,1.5-2.4,2l3.8,7h-4.8l-3.3-6.4h-3.3v6.4H106.8z M111.1,154.5h4.2c0.7,0,1.2-0.2,1.6-0.5
				c0.4-0.4,0.6-0.8,0.6-1.4c0-0.6-0.2-1.1-0.6-1.4c-0.4-0.4-0.9-0.5-1.6-0.5h-4.2V154.5z"/>
			<path class="st1" d="M123.3,164.3l7.2-17.5h4.9l7.1,17.5h-4.6l-1.6-4.2h-6.8l-1.6,4.2H123.3z M130.7,156.7h4.2l-2.1-5.6
				L130.7,156.7z"/>
			<path class="st1" d="M145.7,164.3v-13.7h-5.7v-3.8h15.7v3.8H150v13.7H145.7z"/>
			<path class="st1" d="M158.1,164.3v-17.5h4.3v17.5H158.1z"/>
			<path class="st1" d="M171.2,164.3l-7.1-17.5h4.6l5,13l5.1-13h4.5l-7.2,17.5H171.2z"/>
			<path class="st1" d="M179.9,164.3l7.2-17.5h4.9l7.1,17.5h-4.6l-1.6-4.2H186l-1.6,4.2H179.9z M187.3,156.7h4.2l-2.1-5.6
				L187.3,156.7z"/>
			<path class="st1" d="M210,164.3l7.2-17.5h4.9l7.1,17.5h-4.6l-1.6-4.2h-6.8l-1.6,4.2H210z M217.4,156.7h4.2l-2.1-5.6L217.4,156.7z
				"/>
			<path class="st1" d="M238.7,164.6c-1.3,0-2.5-0.2-3.7-0.7c-1.1-0.5-2.1-1.1-3-1.9c-0.9-0.8-1.5-1.8-2-2.9
				c-0.5-1.1-0.7-2.3-0.7-3.5s0.2-2.4,0.7-3.5c0.5-1.1,1.1-2,2-2.9c0.8-0.8,1.8-1.5,3-1.9c1.1-0.5,2.3-0.7,3.6-0.7
				c1.5,0,2.9,0.3,4.2,0.9c1.3,0.6,2.4,1.4,3.2,2.5l-3,2.7c-0.6-0.7-1.2-1.3-2-1.6c-0.7-0.4-1.6-0.5-2.4-0.5c-0.7,0-1.3,0.1-1.9,0.4
				s-1.1,0.6-1.5,1.1c-0.4,0.4-0.8,1-1,1.6c-0.2,0.6-0.4,1.3-0.4,2s0.1,1.4,0.4,2c0.2,0.6,0.6,1.2,1.1,1.6c0.5,0.5,1,0.8,1.6,1.1
				c0.6,0.3,1.3,0.4,2,0.4c0.7,0,1.3-0.1,1.9-0.3c0.6-0.2,1-0.6,1.4-1c0.4-0.4,0.7-0.9,0.8-1.4h-4.7v-3.7h9.4v1.2
				c0,1.3-0.2,2.5-0.7,3.6c-0.4,1.1-1.1,2.1-1.8,2.9c-0.8,0.8-1.7,1.5-2.8,1.9C241.1,164.4,239.9,164.6,238.7,164.6z"/>
			<path class="st1" d="M250.3,164.3v-17.5h8.9c1.2,0,2.3,0.2,3.2,0.7c0.9,0.5,1.7,1.1,2.2,2c0.5,0.8,0.8,1.8,0.8,2.9
				c0,1.1-0.3,2.1-0.9,2.9c-0.6,0.9-1.4,1.5-2.4,2l3.8,7h-4.8l-3.3-6.4h-3.3v6.4H250.3z M254.6,154.5h4.2c0.7,0,1.2-0.2,1.6-0.5
				c0.4-0.4,0.6-0.8,0.6-1.4c0-0.6-0.2-1.1-0.6-1.4c-0.4-0.4-0.9-0.5-1.6-0.5h-4.2V154.5z"/>
			<path class="st1" d="M268.1,164.3v-17.5h4.3v17.5H268.1z"/>
			<path class="st1" d="M284.5,164.6c-1.3,0-2.6-0.2-3.7-0.7c-1.1-0.5-2.1-1.1-3-1.9c-0.8-0.8-1.5-1.8-2-2.9
				c-0.5-1.1-0.7-2.3-0.7-3.5c0-1.3,0.2-2.5,0.7-3.6c0.5-1.1,1.1-2,2-2.9c0.9-0.8,1.9-1.5,3-1.9c1.1-0.5,2.4-0.7,3.7-0.7
				c1,0,1.9,0.1,2.8,0.4c0.9,0.3,1.8,0.7,2.6,1.2c0.8,0.5,1.5,1.1,2,1.8l-2.9,2.8c-0.6-0.8-1.3-1.4-2.1-1.7
				c-0.8-0.4-1.6-0.6-2.5-0.6c-0.7,0-1.4,0.1-2,0.4c-0.6,0.3-1.1,0.6-1.6,1.1c-0.4,0.4-0.8,1-1,1.6c-0.2,0.6-0.4,1.3-0.4,2
				c0,0.7,0.1,1.4,0.4,2c0.3,0.6,0.6,1.1,1.1,1.6c0.5,0.5,1,0.8,1.6,1.1c0.6,0.2,1.3,0.4,2,0.4c0.8,0,1.6-0.2,2.4-0.5
				c0.7-0.4,1.4-0.9,2-1.6l2.8,2.8c-0.5,0.7-1.2,1.3-2,1.8c-0.8,0.5-1.6,0.9-2.5,1.2C286.4,164.4,285.5,164.6,284.5,164.6z"/>
			<path class="st1" d="M302.5,164.6c-1.3,0-2.5-0.2-3.7-0.7c-1.1-0.5-2.1-1.1-3-1.9c-0.8-0.8-1.5-1.8-2-2.9
				c-0.5-1.1-0.7-2.3-0.7-3.5s0.2-2.4,0.7-3.5c0.5-1.1,1.1-2,2-2.9c0.8-0.8,1.8-1.5,3-1.9c1.1-0.5,2.4-0.7,3.7-0.7
				c1.3,0,2.5,0.2,3.7,0.7c1.1,0.5,2.1,1.1,3,1.9c0.8,0.8,1.5,1.8,2,2.9c0.5,1.1,0.7,2.3,0.7,3.5s-0.2,2.4-0.7,3.5
				c-0.5,1.1-1.1,2-2,2.9c-0.8,0.8-1.8,1.5-3,1.9C305,164.4,303.8,164.6,302.5,164.6z M302.5,160.7c0.7,0,1.3-0.1,1.9-0.4
				c0.6-0.3,1.1-0.6,1.6-1.1c0.4-0.4,0.8-1,1-1.6c0.2-0.6,0.4-1.3,0.4-2c0-0.7-0.1-1.4-0.4-2c-0.2-0.6-0.6-1.1-1-1.6
				c-0.4-0.4-1-0.8-1.6-1.1s-1.2-0.4-1.9-0.4c-0.7,0-1.3,0.1-1.9,0.4c-0.6,0.3-1.1,0.6-1.6,1.1c-0.4,0.4-0.8,1-1,1.6
				c-0.2,0.6-0.4,1.3-0.4,2c0,0.7,0.1,1.4,0.4,2c0.2,0.6,0.6,1.2,1,1.6c0.4,0.4,1,0.8,1.6,1.1C301.2,160.5,301.8,160.7,302.5,160.7z
				"/>
			<path class="st1" d="M314.6,164.3v-17.5h4.3v13.7h9.2v3.8H314.6z"/>
			<path class="st1" d="M329.6,164.3l7.2-17.5h4.9l7.1,17.5h-4.6l-1.6-4.2h-6.8l-1.6,4.2H329.6z M337,156.7h4.2l-2.1-5.6L337,156.7z
				"/>
			<path class="st1" d="M12.4,195.5v-17.5h7.1c1.3,0,2.5,0.2,3.6,0.7c1.1,0.4,2.1,1.1,2.9,1.9c0.8,0.8,1.5,1.7,2,2.8
				c0.5,1.1,0.7,2.2,0.7,3.4c0,1.2-0.2,2.3-0.7,3.4c-0.5,1-1.1,2-2,2.8c-0.8,0.8-1.8,1.4-2.9,1.9c-1.1,0.4-2.3,0.7-3.6,0.7H12.4z
				 M16.7,191.7h2.7c0.7,0,1.3-0.1,1.9-0.4c0.6-0.2,1.1-0.6,1.6-1c0.4-0.4,0.8-1,1-1.6c0.2-0.6,0.4-1.2,0.4-1.9c0-0.7-0.1-1.4-0.4-2
				c-0.2-0.6-0.6-1.1-1-1.6c-0.4-0.4-1-0.8-1.6-1.1c-0.6-0.3-1.2-0.4-1.9-0.4h-2.7V191.7z"/>
			<path class="st1" d="M31.5,195.5v-17.5h13.8v3.7h-9.5v3.1h6.3v3.6h-6.3v3.3h9.6v3.7H31.5z"/>
			<path class="st1" d="M67.9,195.8c-1.3,0-2.6-0.2-3.7-0.7c-1.1-0.5-2.1-1.1-3-1.9c-0.8-0.8-1.5-1.8-2-2.9
				c-0.5-1.1-0.7-2.3-0.7-3.5c0-1.3,0.2-2.5,0.7-3.6c0.5-1.1,1.1-2,2-2.9c0.9-0.8,1.9-1.5,3-1.9c1.1-0.5,2.4-0.7,3.7-0.7
				c1,0,1.9,0.1,2.8,0.4c0.9,0.3,1.8,0.7,2.6,1.2c0.8,0.5,1.5,1.1,2,1.8l-2.9,2.8c-0.6-0.8-1.3-1.4-2.1-1.7
				c-0.8-0.4-1.6-0.6-2.5-0.6c-0.7,0-1.4,0.1-2,0.4c-0.6,0.3-1.1,0.6-1.6,1.1c-0.4,0.4-0.8,1-1,1.6c-0.2,0.6-0.4,1.3-0.4,2
				c0,0.7,0.1,1.4,0.4,2c0.3,0.6,0.6,1.1,1.1,1.6c0.5,0.5,1,0.8,1.6,1.1c0.6,0.2,1.3,0.4,2,0.4c0.8,0,1.6-0.2,2.4-0.5
				c0.7-0.4,1.4-0.9,2-1.6l2.8,2.8c-0.5,0.7-1.2,1.3-2,1.8c-0.8,0.5-1.6,0.9-2.5,1.2C69.8,195.7,68.9,195.8,67.9,195.8z"/>
			<path class="st1" d="M85.9,195.8c-1.3,0-2.5-0.2-3.7-0.7c-1.1-0.5-2.1-1.1-3-1.9c-0.8-0.8-1.5-1.8-2-2.9
				c-0.5-1.1-0.7-2.3-0.7-3.5s0.2-2.4,0.7-3.5c0.5-1.1,1.1-2,2-2.9c0.8-0.8,1.8-1.5,3-1.9c1.1-0.5,2.4-0.7,3.7-0.7s2.5,0.2,3.7,0.7
				c1.1,0.5,2.1,1.1,3,1.9c0.8,0.8,1.5,1.8,2,2.9c0.5,1.1,0.7,2.3,0.7,3.5s-0.2,2.4-0.7,3.5c-0.5,1.1-1.1,2-2,2.9
				c-0.8,0.8-1.8,1.5-3,1.9C88.4,195.6,87.2,195.8,85.9,195.8z M85.9,191.9c0.7,0,1.3-0.1,1.9-0.4s1.1-0.6,1.6-1.1
				c0.4-0.4,0.8-1,1-1.6c0.2-0.6,0.4-1.3,0.4-2c0-0.7-0.1-1.4-0.4-2c-0.2-0.6-0.6-1.1-1-1.6c-0.4-0.4-1-0.8-1.6-1.1
				c-0.6-0.3-1.2-0.4-1.9-0.4s-1.3,0.1-1.9,0.4c-0.6,0.3-1.1,0.6-1.6,1.1c-0.4,0.4-0.8,1-1,1.6c-0.2,0.6-0.4,1.3-0.4,2
				c0,0.7,0.1,1.4,0.4,2c0.2,0.6,0.6,1.2,1,1.6c0.4,0.4,1,0.8,1.6,1.1S85.2,191.9,85.9,191.9z"/>
			<path class="st1" d="M98,195.5v-17.5h5.4l4.3,8.2l4.3-8.2h5.4v17.5h-4v-11.9l-5.7,10.7l-5.7-10.7v12H98z"/>
			<path class="st1" d="M120.9,195.5v-17.5h9.2c1.1,0,2.2,0.2,3.1,0.7c0.9,0.5,1.6,1.2,2.1,2s0.8,1.8,0.8,2.9c0,1-0.3,2-0.8,2.8
				c-0.5,0.8-1.2,1.5-2.1,2c-0.9,0.5-1.9,0.7-3,0.7h-4.9v6.3H120.9z M125.2,185.7h4.4c0.6,0,1.1-0.2,1.5-0.5
				c0.4-0.4,0.6-0.8,0.6-1.4c0-0.6-0.2-1.1-0.6-1.5c-0.4-0.4-0.9-0.6-1.5-0.6h-4.4V185.7z"/>
			<path class="st1" d="M138.7,195.5v-17.5h8.9c1.2,0,2.3,0.2,3.2,0.7c0.9,0.5,1.7,1.1,2.2,2c0.5,0.8,0.8,1.8,0.8,2.9
				c0,1.1-0.3,2.1-0.9,2.9c-0.6,0.9-1.4,1.5-2.4,2l3.8,7h-4.8l-3.3-6.4H143v6.4H138.7z M143,185.7h4.2c0.7,0,1.2-0.2,1.6-0.5
				c0.4-0.4,0.6-0.8,0.6-1.4c0-0.6-0.2-1.1-0.6-1.4c-0.4-0.4-0.9-0.5-1.6-0.5H143V185.7z"/>
			<path class="st1" d="M155.2,195.5l7.2-17.5h4.9l7.1,17.5h-4.6l-1.6-4.2h-6.8l-1.6,4.2H155.2z M162.5,187.9h4.2l-2.1-5.6
				L162.5,187.9z"/>
			<path class="st1" d="M184.9,195.5v-17.5h13.8v3.7h-9.5v3.1h6.3v3.6h-6.3v3.3h9.6v3.7H184.9z"/>
			<path class="st1" d="M216.2,195.5l-7.1-17.5h4.6l5,13l5.1-13h4.5l-7.2,17.5H216.2z"/>
			<path class="st1" d="M230,195.5v-17.5h13.8v3.7h-9.5v3.1h6.3v3.6h-6.3v3.3h9.6v3.7H230z"/>
			<path class="st1" d="M246.9,195.5v-17.5h4l7.9,10.1v-10.1h4v17.5h-3.8L251,185v10.5H246.9z"/>
			<path class="st1" d="M266.4,195.5v-17.5h7.1c1.3,0,2.5,0.2,3.6,0.7c1.1,0.4,2.1,1.1,2.9,1.9c0.8,0.8,1.5,1.7,2,2.8
				c0.5,1.1,0.7,2.2,0.7,3.4c0,1.2-0.2,2.3-0.7,3.4c-0.5,1-1.1,2-2,2.8c-0.8,0.8-1.8,1.4-2.9,1.9c-1.1,0.4-2.3,0.7-3.6,0.7H266.4z
				 M270.7,191.7h2.7c0.7,0,1.3-0.1,1.9-0.4c0.6-0.2,1.1-0.6,1.6-1c0.4-0.4,0.8-1,1-1.6c0.2-0.6,0.4-1.2,0.4-1.9
				c0-0.7-0.1-1.4-0.4-2c-0.2-0.6-0.6-1.1-1-1.6c-0.4-0.4-1-0.8-1.6-1.1c-0.6-0.3-1.2-0.4-1.9-0.4h-2.7V191.7z"/>
			<path class="st1" d="M282.8,195.5l7.2-17.5h4.9l7.1,17.5h-4.6l-1.6-4.2h-6.8l-1.6,4.2H282.8z M290.2,187.9h4.2l-2.1-5.6
				L290.2,187.9z"/>
			<path class="st1" d="M314.5,195.5v-17.5h7.1c1.3,0,2.5,0.2,3.6,0.7c1.1,0.4,2.1,1.1,2.9,1.9s1.5,1.7,2,2.8
				c0.5,1.1,0.7,2.2,0.7,3.4c0,1.2-0.2,2.3-0.7,3.4c-0.5,1-1.1,2-2,2.8s-1.8,1.4-2.9,1.9c-1.1,0.4-2.3,0.7-3.6,0.7H314.5z
				 M318.8,191.7h2.7c0.7,0,1.3-0.1,1.9-0.4c0.6-0.2,1.1-0.6,1.6-1c0.4-0.4,0.8-1,1-1.6c0.2-0.6,0.4-1.2,0.4-1.9
				c0-0.7-0.1-1.4-0.4-2c-0.2-0.6-0.6-1.1-1-1.6c-0.4-0.4-1-0.8-1.6-1.1c-0.6-0.3-1.2-0.4-1.9-0.4h-2.7V191.7z"/>
			<path class="st1" d="M333.6,195.5v-17.5h13.8v3.7h-9.5v3.1h6.3v3.6h-6.3v3.3h9.6v3.7H333.6z"/>
			<path class="st1" d="M10.8,226.8l7.2-17.5h4.9l7.1,17.5h-4.6l-1.6-4.2h-6.8l-1.6,4.2H10.8z M18.2,219.1h4.2l-2.1-5.6L18.2,219.1z
				"/>
			<path class="st1" d="M31.7,226.8v-17.5h8.9c1.2,0,2.3,0.2,3.2,0.7c0.9,0.5,1.7,1.1,2.2,2c0.5,0.8,0.8,1.8,0.8,2.9
				c0,1.1-0.3,2.1-0.9,2.9c-0.6,0.9-1.4,1.5-2.4,2l3.8,7h-4.8l-3.3-6.4H36v6.4H31.7z M36,216.9h4.2c0.7,0,1.2-0.2,1.6-0.5
				c0.4-0.4,0.6-0.8,0.6-1.4c0-0.6-0.2-1.1-0.6-1.4c-0.4-0.4-0.9-0.5-1.6-0.5H36V216.9z"/>
			<path class="st1" d="M49.5,226.8v-17.5h8.9c1.2,0,2.3,0.2,3.2,0.7c0.9,0.5,1.7,1.1,2.2,2c0.5,0.8,0.8,1.8,0.8,2.9
				c0,1.1-0.3,2.1-0.9,2.9c-0.6,0.9-1.4,1.5-2.4,2l3.8,7h-4.8l-3.3-6.4h-3.3v6.4H49.5z M53.8,216.9h4.2c0.7,0,1.2-0.2,1.6-0.5
				s0.6-0.8,0.6-1.4c0-0.6-0.2-1.1-0.6-1.4c-0.4-0.4-0.9-0.5-1.6-0.5h-4.2V216.9z"/>
			<path class="st1" d="M66,226.8l7.2-17.5H78l7.1,17.5h-4.6l-1.6-4.2h-6.8l-1.6,4.2H66z M73.4,219.1h4.2l-2.1-5.6L73.4,219.1z"/>
			<path class="st1" d="M86.9,226.8v-17.5h4.3v17.5H86.9z"/>
			<path class="st1" d="M103.3,227c-1.3,0-2.5-0.2-3.7-0.7c-1.1-0.5-2.1-1.1-3-1.9c-0.8-0.8-1.5-1.8-2-2.9c-0.5-1.1-0.7-2.3-0.7-3.5
				c0-1.3,0.2-2.4,0.7-3.5c0.5-1.1,1.1-2,2-2.9c0.8-0.8,1.8-1.5,3-1.9c1.1-0.5,2.4-0.7,3.7-0.7s2.5,0.2,3.7,0.7
				c1.1,0.5,2.1,1.1,3,1.9c0.8,0.8,1.5,1.8,2,2.9c0.5,1.1,0.7,2.3,0.7,3.5c0,1.3-0.2,2.4-0.7,3.5c-0.5,1.1-1.1,2-2,2.9
				c-0.8,0.8-1.8,1.5-3,1.9C105.8,226.8,104.6,227,103.3,227z M103.3,223.1c0.7,0,1.3-0.1,1.9-0.4c0.6-0.3,1.1-0.6,1.6-1.1
				c0.4-0.4,0.8-1,1-1.6c0.2-0.6,0.4-1.3,0.4-2c0-0.7-0.1-1.4-0.4-2c-0.2-0.6-0.6-1.1-1-1.6c-0.4-0.4-1-0.8-1.6-1.1
				c-0.6-0.3-1.2-0.4-1.9-0.4s-1.3,0.1-1.9,0.4c-0.6,0.3-1.1,0.6-1.6,1.1c-0.4,0.4-0.8,1-1,1.6c-0.2,0.6-0.4,1.3-0.4,2
				c0,0.7,0.1,1.4,0.4,2c0.2,0.6,0.6,1.2,1,1.6c0.4,0.4,1,0.8,1.6,1.1C101.9,223,102.6,223.1,103.3,223.1z"/>
			<path class="st1" d="M115.4,226.8v-17.5h4.3V223h9.2v3.8H115.4z"/>
			<path class="st1" d="M139.4,227c-1.3,0-2.5-0.2-3.7-0.7c-1.1-0.5-2.1-1.1-3-1.9c-0.8-0.8-1.5-1.8-2-2.9c-0.5-1.1-0.7-2.3-0.7-3.5
				c0-1.3,0.2-2.4,0.7-3.5c0.5-1.1,1.1-2,2-2.9c0.8-0.8,1.8-1.5,3-1.9c1.1-0.5,2.4-0.7,3.7-0.7s2.5,0.2,3.7,0.7
				c1.1,0.5,2.1,1.1,3,1.9c0.8,0.8,1.5,1.8,2,2.9c0.5,1.1,0.7,2.3,0.7,3.5c0,1.3-0.2,2.4-0.7,3.5c-0.5,1.1-1.1,2-2,2.9
				c-0.8,0.8-1.8,1.5-3,1.9C141.9,226.8,140.7,227,139.4,227z M139.4,223.1c0.7,0,1.3-0.1,1.9-0.4c0.6-0.3,1.1-0.6,1.6-1.1
				c0.4-0.4,0.8-1,1-1.6c0.2-0.6,0.4-1.3,0.4-2c0-0.7-0.1-1.4-0.4-2c-0.2-0.6-0.6-1.1-1-1.6c-0.4-0.4-1-0.8-1.6-1.1
				c-0.6-0.3-1.2-0.4-1.9-0.4s-1.3,0.1-1.9,0.4c-0.6,0.3-1.1,0.6-1.6,1.1c-0.4,0.4-0.8,1-1,1.6c-0.2,0.6-0.4,1.3-0.4,2
				c0,0.7,0.1,1.4,0.4,2c0.2,0.6,0.6,1.2,1,1.6c0.4,0.4,1,0.8,1.6,1.1C138,223,138.7,223.1,139.4,223.1z"/>
			<path class="st1" d="M157.9,227c-1.4,0-2.8-0.3-4.2-0.8c-1.4-0.5-2.6-1.2-3.7-2.1l2.4-3.1c1.1,0.9,2,1.5,2.9,1.9
				c0.9,0.4,1.9,0.6,2.9,0.6c0.7,0,1.2-0.1,1.7-0.2c0.5-0.1,0.8-0.3,1.1-0.6c0.2-0.3,0.4-0.6,0.4-0.9c0-0.5-0.2-0.9-0.5-1.1
				c-0.4-0.3-1-0.5-1.9-0.6l-3.8-0.7c-1.4-0.2-2.5-0.8-3.3-1.6c-0.8-0.8-1.1-1.9-1.1-3.2c0-1.1,0.3-2.1,0.9-2.9
				c0.6-0.8,1.4-1.4,2.5-1.9s2.4-0.6,3.8-0.6c1.3,0,2.6,0.2,3.9,0.7c1.3,0.4,2.5,1.1,3.4,1.8l-2.3,3.2c-1.8-1.4-3.6-2.1-5.4-2.1
				c-0.6,0-1.1,0.1-1.5,0.2c-0.4,0.1-0.7,0.3-1,0.5c-0.2,0.2-0.3,0.5-0.3,0.8c0,0.4,0.2,0.8,0.5,1c0.3,0.2,0.9,0.4,1.6,0.5l3.6,0.6
				c1.7,0.3,3,0.8,3.8,1.7c0.9,0.8,1.3,1.9,1.3,3.3c0,1.2-0.3,2.2-0.9,3.1c-0.6,0.9-1.5,1.5-2.6,2C160.9,226.8,159.5,227,157.9,227z
				"/>
		</g>
	</g>
</g>
</svg>
