<?xml version="1.0" encoding="utf-8"?>
<!-- Generator: Adobe Illustrator 24.1.1, SVG Export Plug-In . SVG Version: 6.00 Build 0)  -->
<svg version="1.1" xmlns="http://www.w3.org/2000/svg" xmlns:xlink="http://www.w3.org/1999/xlink" x="0px" y="0px"
	 viewBox="0 0 720.2 81.5" style="enable-background:new 0 0 720.2 81.5;" xml:space="preserve">
<style type="text/css">
	.st0{fill:#8EC044;}
	.st1{fill:#003433;}
	.st2{fill:none;stroke:url(#SVGID_2_);stroke-miterlimit:10;}
	.st3{fill:none;stroke:url(#SVGID_4_);stroke-miterlimit:10;}
	.st4{fill:#FFFFFF;}
	.st5{fill:url(#SVGID_5_);}
	.st6{fill:#013333;}
	.st7{fill:url(#SVGID_6_);}
	.st8{fill:url(#SVGID_7_);}
	.st9{fill:url(#SVGID_8_);}
	.st10{fill:none;stroke:#CCCCCC;stroke-width:21;stroke-miterlimit:10;}
	.st11{fill:none;stroke:#B2B2B2;stroke-width:8;stroke-miterlimit:10;}
	.st12{fill:none;stroke:#CCCCCC;stroke-width:12;stroke-miterlimit:10;}
	.st13{fill:none;stroke:#CCCCCC;stroke-width:55;stroke-miterlimit:10;}
	.st14{fill:#CCCCCC;}
	.st15{fill:#E6E6E6;}
	.st16{fill:#B3B3B3;}
	.st17{fill:#F2F2F2;}
	.st18{fill:none;stroke:#CCCCCC;stroke-width:13.8574;stroke-miterlimit:10;}
	.st19{fill-rule:evenodd;clip-rule:evenodd;fill:#808080;}
	.st20{fill-rule:evenodd;clip-rule:evenodd;fill:#FFFFFF;}
	.st21{fill:none;stroke:#CCCCCC;stroke-width:28;stroke-miterlimit:10;}
	.st22{fill:url(#SVGID_9_);}
	.st23{fill:none;stroke:#E6E6E6;stroke-miterlimit:10;}
	.st24{fill:url(#SVGID_10_);}
	.st25{fill:url(#SVGID_11_);}
	.st26{fill:#EDEDED;}
	.st27{fill:#F7EECF;}
	.st28{fill:none;stroke:#8EC044;stroke-width:8;stroke-miterlimit:10;}
	.st29{fill:none;stroke:#FFFFFF;stroke-width:8;stroke-miterlimit:10;}
	.st30{clip-path:url(#SVGID_35_);fill:#F7EECF;}
	.st31{clip-path:url(#SVGID_35_);}
	.st32{fill-rule:evenodd;clip-rule:evenodd;fill:#8EC044;}
	.st33{fill:url(#SVGID_38_);}
	.st34{fill:url(#SVGID_39_);}
	.st35{opacity:0.8;fill:#FFFFFF;}
	.st36{fill:none;stroke:#FFFFFF;stroke-width:0.4139;stroke-miterlimit:10;}
	.st37{opacity:0.87;fill:#FFFFFF;}
</style>
<g id="Camada_2">
</g>
<g id="Camada_1">
	<g>
		<g>
			<path class="st0" d="M120.7,2.8C98,2.8,81,20,81,41.1v0.2c0,21.1,16.8,38,39.5,38c22.7,0,39.7-17.1,39.7-38.2v-0.2
				C160.2,19.7,143.4,2.8,120.7,2.8z M139.4,41.3c0,10.6-7.5,19.6-18.7,19.6c-11.1,0-18.8-9.2-18.8-19.8v-0.2
				c0-10.6,7.5-19.6,18.6-19.6c11.2,0,18.9,9.2,18.9,19.8V41.3z"/>
			<path class="st0" d="M204.2,2.8c-22.7,0-39.7,17.1-39.7,38.2v0.2c0,21.1,16.8,38,39.5,38s39.7-17.1,39.7-38.2v-0.2
				C243.7,19.7,226.9,2.8,204.2,2.8z M222.9,41.3c0,10.6-7.5,19.6-18.7,19.6c-11.1,0-18.8-9.2-18.8-19.8v-0.2
				c0-10.6,7.5-19.6,18.6-19.6c11.2,0,18.9,9.2,18.9,19.8V41.3z"/>
			<path class="st0" d="M283.3,4.3h-29.4c-1.1,0-2,0.9-2,2.1v69.4c0,1.1,0.9,2.1,2,2.1h16.3c1.1,0,2-0.9,2-2.1V60.1c0-1.1,0.9-2,2-2
				h8c18.3,0,31.6-10.4,31.6-27.7v-0.2C313.9,13.9,301.9,4.3,283.3,4.3z M293.5,31.3c0,5.2-4.4,8.6-11.7,8.6h-7.6c-1.1,0-2-0.9-2-2
				V24.5c0-1.1,0.9-2,2-2h7.5c7.3,0,11.8,3,11.8,8.7V31.3z"/>
			<path class="st1" d="M387.1,74.9l-10.7-25.4c-22.8,14.8-44.7,12-44.7,12s7-7.6,8.3-18.6c0.8-7.1,3.6-20.8,20.5-31.2L357.6,5
				c-0.3-0.8-1.1-1.2-1.9-1.2h-16.9c-0.8,0-1.6,0.5-1.9,1.2l-29.6,69.9c-0.6,1.4,0.4,2.8,1.9,2.8h18.3c0.8,0,1.5-0.4,1.8-1.1
				l4.1-8.2c0.3-0.7,1.1-1.1,1.8-1.1h23.4c0.8,0,1.5,0.4,1.8,1.1l4.2,8.2c0.3,0.7,1.1,1.1,1.8,1.1h18.7
				C386.7,77.8,387.7,76.3,387.1,74.9z"/>
			<path class="st0" d="M454.3,74.5l-14.9-18.9c-0.7-0.9-0.5-2.1,0.3-2.9c9.2-7.7,10.9-15.8,10.9-23.4c0-3.9-0.8-7-2-9.7
				c-1.7-0.4-5.2-0.9-11.1-0.9c-5.5,0-11,1.1-16.5,3.2h1.1c5.7,0,9.3,2.8,9.3,8.4v0.2c0,5.1-3.4,8.4-9.2,8.4h-9.2c-1.1,0-2-0.9-2-2
				V26.6c-6.3,3.4-13,7.8-20.4,12.9v36.2c0,1.1,0.9,2.1,2,2.1h16.3c1.1,0,2-0.9,2-2.1V59.5c0-1.1,0.9-2,2-2l4-0.1
				c0.7,0,1.3,0.3,1.7,0.8l13.6,18.7c0.4,0.5,1,0.8,1.7,0.8h18.9C454.4,77.8,455.4,75.8,454.3,74.5z"/>
			<path class="st0" d="M42,60.1c-10.3,0-18.7-8.7-18.8-19.3c0.1-10.7,8.5-19.3,18.8-19.3c6.6,0,12.9,1.7,18,9.9
				c0.5,0.9,1.6,1.2,2.5,0.9l13.9-5.3c1.2-0.4,1.7-1.8,1.1-2.9C68.8,9,55.4,2.8,41,2.8C18.8,2.8,2.4,19.5,2.3,40.7
				C2.4,62,18.8,78.7,41,78.7c14.4,0,27.8-6.2,36.4-21.1c0.6-1.1,0.1-2.5-1.1-2.9l-13.9-5.3c-0.9-0.4-2,0-2.5,0.9
				C54.9,58.4,48.7,60.1,42,60.1z"/>
			<linearGradient id="SVGID_2_" gradientUnits="userSpaceOnUse" x1="352.6294" y1="46.7376" x2="416.6277" y2="7.7142">
				<stop  offset="0" style="stop-color:#2C8439"/>
				<stop  offset="1" style="stop-color:#8EC044"/>
			</linearGradient>
			<path style="fill:url(#SVGID_2_);" d="M446.3,15.6c-0.2-0.3-1-1.3-2.3-2.5C441.4,10.9,437,8,431,8c-15.8,0-21.9,10.7-40.5,26.6
				c-0.5,0.5-1.1,0.9-1.6,1.4c0,0-0.1,0-0.1,0.1c0,0,0,0,0,0c0,0,0,0,0,0c-1.7,1.4-3.5,2.8-5.4,4.3c-2.8,2.2-5.6,4.1-8.3,5.8
				c-20.5,12.7-36.3,11.3-36.3,11.3s1.5-3.4,5.2-8.7c1.9-2.8,4.4-6,7.6-9.7c1.8-2.1,3.9-4.3,6.2-6.6c2.6-2.6,5.6-4.9,8.6-6.9
				c9.1-5.9,19-9.1,24.3-10.5c2.4-0.6,3.8-0.9,3.8-0.9s-1.4-0.1-3.8,0c-5.1,0.2-14.7,1.3-24.3,6.8c-0.5,0.3-1.1,0.6-1.6,0.9
				c-6.7,4-11.9,8.4-15.3,11.9c-3.3,3.3-5.1,5.6-5.1,5.6c0.4-2.7,1.3-5.3,2.5-7.7c3.1-6.4,8.4-11.9,15.2-16.3
				c12.5-8.3,29.7-13,45.6-13c10.9,0,19,1.7,24.8,3.8c4.2,1.5,7.2,3.3,9.4,5C444.7,13.2,446,15.2,446.3,15.6z"/>
			<path class="st6" d="M446.3,15.6C446.3,15.6,446.3,15.6,446.3,15.6c-0.1,0-0.2,0-0.3,0c-1.9-0.2-9-0.8-20.8,1.3
				c-11.7,2-29.1,13.9-34.7,17.9c-0.8,0.6-1.4,1-1.6,1.2c0.6-0.5,1.1-0.9,1.6-1.4C409.1,18.8,415.2,8,431,8c6,0,10.4,2.9,12.9,5.1
				C445.3,14.3,446.1,15.3,446.3,15.6C446.3,15.6,446.3,15.6,446.3,15.6z"/>
		</g>
		<g>
			<path class="st1" d="M493.4,35c-0.9,0-1.8-0.2-2.5-0.5c-0.8-0.3-1.5-0.8-2-1.3c-0.6-0.6-1-1.2-1.4-2c-0.3-0.7-0.5-1.6-0.5-2.4
				c0-0.9,0.2-1.7,0.5-2.4c0.3-0.7,0.8-1.4,1.4-2c0.6-0.6,1.3-1,2.1-1.3c0.8-0.3,1.6-0.5,2.5-0.5c0.7,0,1.3,0.1,2,0.3
				c0.6,0.2,1.2,0.5,1.8,0.8c0.5,0.3,1,0.8,1.4,1.2l-2,2c-0.4-0.5-0.9-0.9-1.4-1.2c-0.5-0.3-1.1-0.4-1.7-0.4c-0.5,0-0.9,0.1-1.3,0.3
				c-0.4,0.2-0.8,0.4-1.1,0.7c-0.3,0.3-0.5,0.7-0.7,1.1c-0.2,0.4-0.3,0.9-0.3,1.4c0,0.5,0.1,0.9,0.3,1.4c0.2,0.4,0.4,0.8,0.7,1.1
				c0.3,0.3,0.7,0.6,1.1,0.7c0.4,0.2,0.9,0.3,1.4,0.3c0.6,0,1.1-0.1,1.6-0.4c0.5-0.3,0.9-0.6,1.3-1.1l1.9,1.9
				c-0.4,0.5-0.8,0.9-1.4,1.2c-0.5,0.3-1.1,0.6-1.7,0.8C494.6,34.9,494,35,493.4,35z"/>
			<path class="st1" d="M505.7,35c-0.9,0-1.7-0.2-2.5-0.5s-1.5-0.8-2-1.3c-0.6-0.6-1-1.2-1.4-2c-0.3-0.7-0.5-1.6-0.5-2.4
				s0.2-1.7,0.5-2.4c0.3-0.7,0.8-1.4,1.4-2c0.6-0.6,1.3-1,2-1.3c0.8-0.3,1.6-0.5,2.5-0.5s1.7,0.2,2.5,0.5c0.8,0.3,1.5,0.8,2,1.3
				c0.6,0.6,1,1.2,1.4,2c0.3,0.7,0.5,1.6,0.5,2.4s-0.2,1.7-0.5,2.4c-0.3,0.7-0.8,1.4-1.4,2c-0.6,0.6-1.3,1-2,1.3
				C507.4,34.8,506.6,35,505.7,35z M505.7,32.3c0.5,0,0.9-0.1,1.3-0.3c0.4-0.2,0.8-0.4,1.1-0.7c0.3-0.3,0.5-0.7,0.7-1.1
				c0.2-0.4,0.3-0.9,0.3-1.4c0-0.5-0.1-1-0.3-1.4c-0.2-0.4-0.4-0.8-0.7-1.1c-0.3-0.3-0.7-0.6-1.1-0.7s-0.9-0.3-1.3-0.3
				s-0.9,0.1-1.3,0.3c-0.4,0.2-0.8,0.4-1.1,0.7c-0.3,0.3-0.5,0.7-0.7,1.1c-0.2,0.4-0.3,0.9-0.3,1.4c0,0.5,0.1,0.9,0.3,1.4
				c0.2,0.4,0.4,0.8,0.7,1.1c0.3,0.3,0.7,0.6,1.1,0.7C504.8,32.2,505.2,32.3,505.7,32.3z"/>
			<path class="st1" d="M520,35c-0.9,0-1.7-0.2-2.5-0.5c-0.8-0.3-1.5-0.8-2-1.3c-0.6-0.6-1-1.2-1.4-2c-0.3-0.7-0.5-1.6-0.5-2.4
				s0.2-1.7,0.5-2.4c0.3-0.7,0.8-1.4,1.4-2c0.6-0.6,1.3-1,2-1.3c0.8-0.3,1.6-0.5,2.5-0.5c0.9,0,1.7,0.2,2.5,0.5
				c0.8,0.3,1.5,0.8,2,1.3c0.6,0.6,1,1.2,1.4,2c0.3,0.7,0.5,1.6,0.5,2.4s-0.2,1.7-0.5,2.4c-0.3,0.7-0.8,1.4-1.4,2
				c-0.6,0.6-1.3,1-2,1.3C521.7,34.8,520.9,35,520,35z M520,32.3c0.5,0,0.9-0.1,1.3-0.3c0.4-0.2,0.8-0.4,1.1-0.7
				c0.3-0.3,0.5-0.7,0.7-1.1c0.2-0.4,0.3-0.9,0.3-1.4c0-0.5-0.1-1-0.3-1.4c-0.2-0.4-0.4-0.8-0.7-1.1c-0.3-0.3-0.7-0.6-1.1-0.7
				c-0.4-0.2-0.9-0.3-1.3-0.3c-0.5,0-0.9,0.1-1.3,0.3s-0.8,0.4-1.1,0.7c-0.3,0.3-0.5,0.7-0.7,1.1c-0.2,0.4-0.3,0.9-0.3,1.4
				c0,0.5,0.1,0.9,0.3,1.4c0.2,0.4,0.4,0.8,0.7,1.1c0.3,0.3,0.7,0.6,1.1,0.7C519,32.2,519.5,32.3,520,32.3z"/>
			<path class="st1" d="M528.3,34.8v-12h6.3c0.8,0,1.5,0.2,2.1,0.5c0.6,0.3,1.1,0.8,1.4,1.4s0.5,1.2,0.5,2c0,0.7-0.2,1.4-0.5,1.9
				c-0.4,0.6-0.8,1-1.5,1.4c-0.6,0.3-1.3,0.5-2.1,0.5h-3.4v4.3H528.3z M531.2,28.1h3c0.4,0,0.8-0.1,1-0.4c0.3-0.3,0.4-0.6,0.4-1
				c0-0.4-0.1-0.7-0.4-1c-0.3-0.3-0.6-0.4-1-0.4h-3V28.1z"/>
			<path class="st1" d="M540.5,34.8v-12h9.5v2.6h-6.5v2.2h4.3V30h-4.3v2.3h6.6v2.6H540.5z"/>
			<path class="st1" d="M552.1,34.8v-12h6.1c0.8,0,1.6,0.2,2.2,0.5c0.6,0.3,1.1,0.8,1.5,1.4c0.4,0.6,0.5,1.2,0.5,2
				c0,0.8-0.2,1.4-0.6,2c-0.4,0.6-1,1-1.6,1.4l2.6,4.8h-3.3l-2.3-4.4H555v4.4H552.1z M555,28h2.9c0.5,0,0.8-0.1,1.1-0.4
				s0.4-0.6,0.4-1c0-0.4-0.1-0.7-0.4-1c-0.3-0.3-0.6-0.4-1.1-0.4H555V28z"/>
			<path class="st1" d="M563.4,34.8l4.9-12h3.4l4.8,12h-3.2l-1.1-2.9h-4.7l-1.1,2.9H563.4z M568.4,29.6h2.9l-1.4-3.8L568.4,29.6z"/>
			<path class="st1" d="M578.7,34.8v-9.4h-3.9v-2.6h10.8v2.6h-3.9v9.4H578.7z"/>
			<path class="st1" d="M587.2,34.8v-12h2.9v12H587.2z"/>
			<path class="st1" d="M596.2,34.8l-4.8-12h3.2l3.4,8.9l3.5-8.9h3.1l-4.9,12H596.2z"/>
			<path class="st1" d="M602.2,34.8l4.9-12h3.4l4.8,12h-3.2l-1.1-2.9h-4.7l-1.1,2.9H602.2z M607.3,29.6h2.9l-1.4-3.8L607.3,29.6z"/>
			<path class="st1" d="M622.8,34.8l4.9-12h3.4l4.8,12h-3.2l-1.1-2.9H627l-1.1,2.9H622.8z M627.9,29.6h2.9l-1.4-3.8L627.9,29.6z"/>
			<path class="st1" d="M642.5,35c-0.9,0-1.7-0.2-2.5-0.5c-0.8-0.3-1.5-0.8-2-1.3c-0.6-0.6-1-1.2-1.4-2c-0.3-0.7-0.5-1.6-0.5-2.4
				s0.2-1.7,0.5-2.4c0.3-0.7,0.8-1.4,1.4-2c0.6-0.6,1.3-1,2-1.3c0.8-0.3,1.6-0.5,2.5-0.5c1,0,2,0.2,2.9,0.6c0.9,0.4,1.6,1,2.2,1.7
				l-2.1,1.9c-0.4-0.5-0.8-0.9-1.3-1.1c-0.5-0.3-1.1-0.4-1.7-0.4c-0.5,0-0.9,0.1-1.3,0.3c-0.4,0.2-0.8,0.4-1.1,0.7
				c-0.3,0.3-0.5,0.7-0.7,1.1c-0.2,0.4-0.2,0.9-0.2,1.4s0.1,1,0.3,1.4c0.2,0.4,0.4,0.8,0.7,1.1c0.3,0.3,0.7,0.6,1.1,0.7
				c0.4,0.2,0.9,0.3,1.4,0.3c0.5,0,0.9-0.1,1.3-0.2c0.4-0.2,0.7-0.4,1-0.7c0.3-0.3,0.5-0.6,0.6-1h-3.2v-2.6h6.4v0.9
				c0,0.9-0.2,1.7-0.5,2.5c-0.3,0.8-0.7,1.4-1.3,2c-0.5,0.6-1.2,1-1.9,1.3C644.1,34.8,643.3,35,642.5,35z"/>
			<path class="st1" d="M650.4,34.8v-12h6.1c0.8,0,1.6,0.2,2.2,0.5c0.6,0.3,1.1,0.8,1.5,1.4c0.4,0.6,0.5,1.2,0.5,2
				c0,0.8-0.2,1.4-0.6,2c-0.4,0.6-1,1-1.6,1.4l2.6,4.8h-3.3l-2.3-4.4h-2.2v4.4H650.4z M653.4,28h2.9c0.5,0,0.8-0.1,1.1-0.4
				s0.4-0.6,0.4-1c0-0.4-0.1-0.7-0.4-1c-0.3-0.3-0.6-0.4-1.1-0.4h-2.9V28z"/>
			<path class="st1" d="M662.6,34.8v-12h2.9v12H662.6z"/>
			<path class="st1" d="M673.9,35c-0.9,0-1.8-0.2-2.5-0.5c-0.8-0.3-1.5-0.8-2-1.3c-0.6-0.6-1-1.2-1.4-2c-0.3-0.7-0.5-1.6-0.5-2.4
				c0-0.9,0.2-1.7,0.5-2.4c0.3-0.7,0.8-1.4,1.4-2c0.6-0.6,1.3-1,2.1-1.3c0.8-0.3,1.6-0.5,2.5-0.5c0.7,0,1.3,0.1,2,0.3
				c0.6,0.2,1.2,0.5,1.8,0.8c0.5,0.3,1,0.8,1.4,1.2l-2,2c-0.4-0.5-0.9-0.9-1.4-1.2c-0.5-0.3-1.1-0.4-1.7-0.4c-0.5,0-0.9,0.1-1.3,0.3
				c-0.4,0.2-0.8,0.4-1.1,0.7c-0.3,0.3-0.5,0.7-0.7,1.1c-0.2,0.4-0.3,0.9-0.3,1.4c0,0.5,0.1,0.9,0.3,1.4c0.2,0.4,0.4,0.8,0.7,1.1
				c0.3,0.3,0.7,0.6,1.1,0.7c0.4,0.2,0.9,0.3,1.4,0.3c0.6,0,1.1-0.1,1.6-0.4c0.5-0.3,0.9-0.6,1.3-1.1l1.9,1.9
				c-0.4,0.5-0.8,0.9-1.4,1.2c-0.5,0.3-1.1,0.6-1.7,0.8C675.2,34.9,674.6,35,673.9,35z"/>
			<path class="st1" d="M686.2,35c-0.9,0-1.7-0.2-2.5-0.5c-0.8-0.3-1.5-0.8-2-1.3c-0.6-0.6-1-1.2-1.4-2c-0.3-0.7-0.5-1.6-0.5-2.4
				s0.2-1.7,0.5-2.4c0.3-0.7,0.8-1.4,1.4-2c0.6-0.6,1.3-1,2-1.3c0.8-0.3,1.6-0.5,2.5-0.5s1.7,0.2,2.5,0.5c0.8,0.3,1.5,0.8,2,1.3
				c0.6,0.6,1,1.2,1.4,2c0.3,0.7,0.5,1.6,0.5,2.4s-0.2,1.7-0.5,2.4c-0.3,0.7-0.8,1.4-1.4,2c-0.6,0.6-1.3,1-2,1.3
				C688,34.8,687.1,35,686.2,35z M686.2,32.3c0.5,0,0.9-0.1,1.3-0.3c0.4-0.2,0.8-0.4,1.1-0.7c0.3-0.3,0.5-0.7,0.7-1.1
				c0.2-0.4,0.3-0.9,0.3-1.4c0-0.5-0.1-1-0.3-1.4c-0.2-0.4-0.4-0.8-0.7-1.1c-0.3-0.3-0.7-0.6-1.1-0.7c-0.4-0.2-0.9-0.3-1.3-0.3
				c-0.5,0-0.9,0.1-1.3,0.3c-0.4,0.2-0.8,0.4-1.1,0.7c-0.3,0.3-0.5,0.7-0.7,1.1c-0.2,0.4-0.3,0.9-0.3,1.4c0,0.5,0.1,0.9,0.3,1.4
				c0.2,0.4,0.4,0.8,0.7,1.1c0.3,0.3,0.7,0.6,1.1,0.7C685.3,32.2,685.8,32.3,686.2,32.3z"/>
			<path class="st1" d="M694.5,34.8v-12h2.9v9.4h6.3v2.6H694.5z"/>
			<path class="st1" d="M704.8,34.8l4.9-12h3.4l4.8,12h-3.2l-1.1-2.9H709l-1.1,2.9H704.8z M709.9,29.6h2.9l-1.4-3.8L709.9,29.6z"/>
			<path class="st1" d="M487.4,56.2v-12h4.9c0.9,0,1.7,0.2,2.5,0.5c0.8,0.3,1.4,0.7,2,1.3c0.6,0.5,1,1.2,1.4,1.9
				c0.3,0.7,0.5,1.5,0.5,2.4c0,0.8-0.2,1.6-0.5,2.3c-0.3,0.7-0.8,1.3-1.4,1.9c-0.6,0.5-1.2,1-2,1.3c-0.8,0.3-1.6,0.5-2.5,0.5H487.4z
				 M490.3,53.6h1.8c0.5,0,0.9-0.1,1.3-0.3c0.4-0.2,0.8-0.4,1.1-0.7c0.3-0.3,0.5-0.7,0.7-1.1c0.2-0.4,0.3-0.8,0.3-1.3
				c0-0.5-0.1-0.9-0.3-1.3c-0.2-0.4-0.4-0.8-0.7-1.1c-0.3-0.3-0.7-0.6-1.1-0.7c-0.4-0.2-0.8-0.3-1.3-0.3h-1.8V53.6z"/>
			<path class="st1" d="M500.5,56.2v-12h9.4v2.6h-6.5v2.2h4.3v2.5h-4.3v2.3h6.6v2.6H500.5z"/>
			<path class="st1" d="M525.4,56.4c-0.9,0-1.8-0.2-2.5-0.5c-0.8-0.3-1.5-0.8-2-1.3c-0.6-0.6-1-1.2-1.4-2c-0.3-0.7-0.5-1.6-0.5-2.4
				c0-0.9,0.2-1.7,0.5-2.4c0.3-0.7,0.8-1.4,1.4-2c0.6-0.6,1.3-1,2.1-1.3c0.8-0.3,1.6-0.5,2.5-0.5c0.7,0,1.3,0.1,2,0.3
				c0.6,0.2,1.2,0.5,1.8,0.8c0.5,0.3,1,0.8,1.4,1.2l-2,2c-0.4-0.5-0.9-0.9-1.4-1.2c-0.5-0.3-1.1-0.4-1.7-0.4c-0.5,0-0.9,0.1-1.3,0.3
				c-0.4,0.2-0.8,0.4-1.1,0.7s-0.5,0.7-0.7,1.1c-0.2,0.4-0.3,0.9-0.3,1.4c0,0.5,0.1,0.9,0.3,1.4c0.2,0.4,0.4,0.8,0.7,1.1
				c0.3,0.3,0.7,0.6,1.1,0.7c0.4,0.2,0.9,0.3,1.4,0.3c0.6,0,1.1-0.1,1.6-0.4c0.5-0.3,0.9-0.6,1.3-1.1l1.9,1.9
				c-0.4,0.5-0.8,0.9-1.4,1.2c-0.5,0.3-1.1,0.6-1.7,0.8C526.7,56.3,526.1,56.4,525.4,56.4z"/>
			<path class="st1" d="M537.7,56.4c-0.9,0-1.7-0.2-2.5-0.5c-0.8-0.3-1.5-0.8-2-1.3c-0.6-0.6-1-1.2-1.4-2c-0.3-0.7-0.5-1.6-0.5-2.4
				c0-0.9,0.2-1.7,0.5-2.4c0.3-0.7,0.8-1.4,1.4-2c0.6-0.6,1.3-1,2-1.3c0.8-0.3,1.6-0.5,2.5-0.5c0.9,0,1.7,0.2,2.5,0.5
				c0.8,0.3,1.5,0.8,2,1.3c0.6,0.6,1,1.2,1.4,2c0.3,0.7,0.5,1.6,0.5,2.4c0,0.9-0.2,1.7-0.5,2.4c-0.3,0.7-0.8,1.4-1.4,2
				c-0.6,0.6-1.3,1-2,1.3C539.5,56.2,538.6,56.4,537.7,56.4z M537.7,53.7c0.5,0,0.9-0.1,1.3-0.3c0.4-0.2,0.8-0.4,1.1-0.7
				c0.3-0.3,0.5-0.7,0.7-1.1c0.2-0.4,0.3-0.9,0.3-1.4c0-0.5-0.1-1-0.3-1.4c-0.2-0.4-0.4-0.8-0.7-1.1c-0.3-0.3-0.7-0.6-1.1-0.7
				c-0.4-0.2-0.9-0.3-1.3-0.3c-0.5,0-0.9,0.1-1.3,0.3c-0.4,0.2-0.8,0.4-1.1,0.7s-0.5,0.7-0.7,1.1c-0.2,0.4-0.3,0.9-0.3,1.4
				c0,0.5,0.1,0.9,0.3,1.4c0.2,0.4,0.4,0.8,0.7,1.1c0.3,0.3,0.7,0.6,1.1,0.7C536.8,53.6,537.2,53.7,537.7,53.7z"/>
			<path class="st1" d="M546,56.2v-12h3.7l3,5.6l3-5.6h3.7v12h-2.8V48l-3.9,7.3l-3.9-7.3v8.2H546z"/>
			<path class="st1" d="M561.7,56.2v-12h6.3c0.8,0,1.5,0.2,2.1,0.5c0.6,0.3,1.1,0.8,1.4,1.4c0.4,0.6,0.5,1.2,0.5,2
				c0,0.7-0.2,1.4-0.5,1.9c-0.4,0.6-0.8,1-1.5,1.4c-0.6,0.3-1.3,0.5-2.1,0.5h-3.4v4.3H561.7z M564.7,49.5h3c0.4,0,0.8-0.1,1-0.4
				c0.3-0.3,0.4-0.6,0.4-1c0-0.4-0.1-0.7-0.4-1c-0.3-0.3-0.6-0.4-1-0.4h-3V49.5z"/>
			<path class="st1" d="M573.9,56.2v-12h6.1c0.8,0,1.6,0.2,2.2,0.5c0.6,0.3,1.1,0.8,1.5,1.4c0.4,0.6,0.5,1.2,0.5,2
				c0,0.8-0.2,1.4-0.6,2c-0.4,0.6-1,1-1.6,1.4l2.6,4.8h-3.3l-2.3-4.4h-2.2v4.4H573.9z M576.9,49.4h2.9c0.5,0,0.8-0.1,1.1-0.4
				s0.4-0.6,0.4-1c0-0.4-0.1-0.7-0.4-1c-0.3-0.3-0.6-0.4-1.1-0.4h-2.9V49.4z"/>
			<path class="st1" d="M585.2,56.2l4.9-12h3.4l4.8,12h-3.2l-1.1-2.9h-4.7l-1.1,2.9H585.2z M590.3,51h2.9l-1.4-3.8L590.3,51z"/>
			<path class="st1" d="M605.6,56.2v-12h9.5v2.6h-6.5v2.2h4.3v2.5h-4.3v2.3h6.6v2.6H605.6z"/>
			<path class="st1" d="M627.1,56.2l-4.8-12h3.2l3.4,8.9l3.5-8.9h3.1l-4.9,12H627.1z"/>
			<path class="st1" d="M636.6,56.2v-12h9.4v2.6h-6.5v2.2h4.3v2.5h-4.3v2.3h6.6v2.6H636.6z"/>
			<path class="st1" d="M648.1,56.2v-12h2.8l5.4,7v-7h2.8v12h-2.6l-5.6-7.2v7.2H648.1z"/>
			<path class="st1" d="M661.5,56.2v-12h4.9c0.9,0,1.7,0.2,2.5,0.5c0.8,0.3,1.4,0.7,2,1.3s1,1.2,1.4,1.9c0.3,0.7,0.5,1.5,0.5,2.4
				c0,0.8-0.2,1.6-0.5,2.3c-0.3,0.7-0.8,1.3-1.4,1.9s-1.2,1-2,1.3c-0.8,0.3-1.6,0.5-2.5,0.5H661.5z M664.4,53.6h1.8
				c0.5,0,0.9-0.1,1.3-0.3c0.4-0.2,0.8-0.4,1.1-0.7s0.5-0.7,0.7-1.1c0.2-0.4,0.3-0.8,0.3-1.3c0-0.5-0.1-0.9-0.3-1.3
				c-0.2-0.4-0.4-0.8-0.7-1.1c-0.3-0.3-0.7-0.6-1.1-0.7c-0.4-0.2-0.8-0.3-1.3-0.3h-1.8V53.6z"/>
			<path class="st1" d="M672.8,56.2l4.9-12h3.4l4.8,12h-3.2l-1.1-2.9h-4.7l-1.1,2.9H672.8z M677.8,51h2.9l-1.4-3.8L677.8,51z"/>
			<path class="st1" d="M694.5,56.2v-12h4.9c0.9,0,1.7,0.2,2.5,0.5c0.8,0.3,1.4,0.7,2,1.3s1,1.2,1.4,1.9c0.3,0.7,0.5,1.5,0.5,2.4
				c0,0.8-0.2,1.6-0.5,2.3c-0.3,0.7-0.8,1.3-1.4,1.9s-1.2,1-2,1.3c-0.8,0.3-1.6,0.5-2.5,0.5H694.5z M697.4,53.6h1.8
				c0.5,0,0.9-0.1,1.3-0.3c0.4-0.2,0.8-0.4,1.1-0.7s0.5-0.7,0.7-1.1c0.2-0.4,0.3-0.8,0.3-1.3c0-0.5-0.1-0.9-0.3-1.3
				c-0.2-0.4-0.4-0.8-0.7-1.1c-0.3-0.3-0.7-0.6-1.1-0.7c-0.4-0.2-0.8-0.3-1.3-0.3h-1.8V53.6z"/>
			<path class="st1" d="M707.6,56.2v-12h9.4v2.6h-6.5v2.2h4.3v2.5h-4.3v2.3h6.6v2.6H707.6z"/>
			<path class="st1" d="M486.2,77.6l4.9-12h3.4l4.8,12h-3.2l-1.1-2.9h-4.7l-1.1,2.9H486.2z M491.3,72.4h2.9l-1.4-3.8L491.3,72.4z"/>
			<path class="st1" d="M500.6,77.6v-12h6.1c0.8,0,1.6,0.2,2.2,0.5c0.6,0.3,1.1,0.8,1.5,1.4c0.4,0.6,0.5,1.2,0.5,2
				c0,0.8-0.2,1.4-0.6,2c-0.4,0.6-1,1-1.6,1.4l2.6,4.8H508l-2.3-4.4h-2.2v4.4H500.6z M503.5,70.8h2.9c0.5,0,0.8-0.1,1.1-0.4
				c0.3-0.3,0.4-0.6,0.4-1c0-0.4-0.1-0.7-0.4-1c-0.3-0.3-0.6-0.4-1.1-0.4h-2.9V70.8z"/>
			<path class="st1" d="M512.8,77.6v-12h6.1c0.8,0,1.6,0.2,2.2,0.5c0.6,0.3,1.1,0.8,1.5,1.4c0.4,0.6,0.5,1.2,0.5,2
				c0,0.8-0.2,1.4-0.6,2c-0.4,0.6-1,1-1.6,1.4l2.6,4.8h-3.3l-2.3-4.4h-2.2v4.4H512.8z M515.7,70.8h2.9c0.5,0,0.8-0.1,1.1-0.4
				c0.3-0.3,0.4-0.6,0.4-1c0-0.4-0.1-0.7-0.4-1c-0.3-0.3-0.6-0.4-1.1-0.4h-2.9V70.8z"/>
			<path class="st1" d="M524.1,77.6l4.9-12h3.4l4.8,12H534l-1.1-2.9h-4.7l-1.1,2.9H524.1z M529.1,72.4h2.9l-1.4-3.8L529.1,72.4z"/>
			<path class="st1" d="M538.4,77.6v-12h2.9v12H538.4z"/>
			<path class="st1" d="M549.7,77.8c-0.9,0-1.7-0.2-2.5-0.5c-0.8-0.3-1.5-0.8-2-1.3c-0.6-0.6-1-1.2-1.4-2c-0.3-0.7-0.5-1.6-0.5-2.4
				c0-0.9,0.2-1.7,0.5-2.4c0.3-0.7,0.8-1.4,1.4-2c0.6-0.6,1.3-1,2-1.3c0.8-0.3,1.6-0.5,2.5-0.5c0.9,0,1.7,0.2,2.5,0.5
				c0.8,0.3,1.5,0.8,2,1.3c0.6,0.6,1,1.2,1.4,2c0.3,0.7,0.5,1.6,0.5,2.4c0,0.9-0.2,1.7-0.5,2.4c-0.3,0.7-0.8,1.4-1.4,2
				c-0.6,0.6-1.3,1-2,1.3C551.4,77.6,550.6,77.8,549.7,77.8z M549.7,75.1c0.5,0,0.9-0.1,1.3-0.3c0.4-0.2,0.8-0.4,1.1-0.7
				c0.3-0.3,0.5-0.7,0.7-1.1c0.2-0.4,0.3-0.9,0.3-1.4c0-0.5-0.1-1-0.3-1.4c-0.2-0.4-0.4-0.8-0.7-1.1c-0.3-0.3-0.7-0.6-1.1-0.7
				c-0.4-0.2-0.9-0.3-1.3-0.3c-0.5,0-0.9,0.1-1.3,0.3c-0.4,0.2-0.8,0.4-1.1,0.7c-0.3,0.3-0.5,0.7-0.7,1.1c-0.2,0.4-0.3,0.9-0.3,1.4
				c0,0.5,0.1,0.9,0.3,1.4c0.2,0.4,0.4,0.8,0.7,1.1c0.3,0.3,0.7,0.6,1.1,0.7C548.7,75,549.2,75.1,549.7,75.1z"/>
			<path class="st1" d="M558,77.6v-12h2.9V75h6.3v2.6H558z"/>
			<path class="st1" d="M574.4,77.8c-0.9,0-1.7-0.2-2.5-0.5c-0.8-0.3-1.5-0.8-2-1.3c-0.6-0.6-1-1.2-1.4-2c-0.3-0.7-0.5-1.6-0.5-2.4
				c0-0.9,0.2-1.7,0.5-2.4c0.3-0.7,0.8-1.4,1.4-2c0.6-0.6,1.3-1,2-1.3c0.8-0.3,1.6-0.5,2.5-0.5c0.9,0,1.7,0.2,2.5,0.5
				c0.8,0.3,1.5,0.8,2,1.3c0.6,0.6,1,1.2,1.4,2c0.3,0.7,0.5,1.6,0.5,2.4c0,0.9-0.2,1.7-0.5,2.4c-0.3,0.7-0.8,1.4-1.4,2
				c-0.6,0.6-1.3,1-2,1.3C576.1,77.6,575.3,77.8,574.4,77.8z M574.4,75.1c0.5,0,0.9-0.1,1.3-0.3c0.4-0.2,0.8-0.4,1.1-0.7
				c0.3-0.3,0.5-0.7,0.7-1.1c0.2-0.4,0.3-0.9,0.3-1.4c0-0.5-0.1-1-0.3-1.4c-0.2-0.4-0.4-0.8-0.7-1.1c-0.3-0.3-0.7-0.6-1.1-0.7
				c-0.4-0.2-0.9-0.3-1.3-0.3c-0.5,0-0.9,0.1-1.3,0.3c-0.4,0.2-0.8,0.4-1.1,0.7c-0.3,0.3-0.5,0.7-0.7,1.1c-0.2,0.4-0.3,0.9-0.3,1.4
				c0,0.5,0.1,0.9,0.3,1.4c0.2,0.4,0.4,0.8,0.7,1.1c0.3,0.3,0.7,0.6,1.1,0.7C573.5,75,573.9,75.1,574.4,75.1z"/>
			<path class="st1" d="M587.1,77.8c-1,0-1.9-0.2-2.9-0.5c-0.9-0.4-1.8-0.8-2.5-1.5l1.6-2.1c0.7,0.6,1.4,1,2,1.3
				c0.6,0.3,1.3,0.4,2,0.4c0.5,0,0.8,0,1.2-0.1c0.3-0.1,0.6-0.2,0.7-0.4c0.2-0.2,0.3-0.4,0.3-0.6c0-0.3-0.1-0.6-0.4-0.8
				c-0.3-0.2-0.7-0.3-1.3-0.4l-2.6-0.5c-1-0.2-1.7-0.5-2.2-1.1c-0.5-0.6-0.8-1.3-0.8-2.2c0-0.8,0.2-1.4,0.6-2c0.4-0.6,1-1,1.7-1.3
				c0.7-0.3,1.6-0.4,2.6-0.4c0.9,0,1.8,0.2,2.7,0.5c0.9,0.3,1.7,0.7,2.3,1.3l-1.6,2.2c-1.2-0.9-2.5-1.4-3.7-1.4c-0.4,0-0.7,0-1,0.1
				c-0.3,0.1-0.5,0.2-0.7,0.4c-0.2,0.2-0.2,0.3-0.2,0.6c0,0.3,0.1,0.5,0.3,0.7c0.2,0.2,0.6,0.3,1.1,0.4l2.5,0.4
				c1.2,0.2,2,0.6,2.6,1.1s0.9,1.3,0.9,2.3c0,0.8-0.2,1.5-0.6,2.1c-0.4,0.6-1,1-1.8,1.4C589.1,77.6,588.2,77.8,587.1,77.8z"/>
		</g>
	</g>
</g>
<g id="Camada_3">
</g>
</svg>
